G04 EAGLE Gerber X2 export*
%TF.Part,Single*%
%TF.FileFunction,Copper,L1,Top,Mixed*%
%TF.FilePolarity,Positive*%
%TF.GenerationSoftware,Autodesk,EAGLE,9.4.1*%
%TF.CreationDate,2019-06-30T19:23:07Z*%
G75*
%MOMM*%
%FSLAX34Y34*%
%LPD*%
%INTop Copper*%
%AMOC8*
5,1,8,0,0,1.08239X$1,22.5*%
G01*
%ADD10R,0.600000X2.286000*%
%ADD11R,3.000000X1.200000*%
%ADD12R,1.200000X1.100000*%
%ADD13R,1.050000X1.080000*%
%ADD14R,1.400000X1.000000*%
%ADD15R,2.500000X1.600000*%
%ADD16R,1.803000X1.600000*%
%ADD17R,2.400000X2.400000*%
%ADD18C,2.400000*%
%ADD19R,1.300000X1.550000*%
%ADD20R,1.550000X1.300000*%
%ADD21C,1.676400*%
%ADD22R,1.676400X1.676400*%
%ADD23R,0.900000X0.700000*%
%ADD24R,1.080000X1.050000*%
%ADD25R,1.000000X1.100000*%
%ADD26C,1.879600*%
%ADD27R,1.600000X2.600000*%
%ADD28R,0.800000X0.800000*%
%ADD29R,1.100000X1.000000*%
%ADD30R,1.000000X1.400000*%
%ADD31C,0.609600*%
%ADD32C,0.756400*%
%ADD33C,0.812800*%
%ADD34C,0.406400*%
%ADD35C,0.304800*%
%ADD36C,0.508000*%
%ADD37C,0.254000*%

G36*
X255351Y4003D02*
X255351Y4003D01*
X255369Y4001D01*
X255551Y4022D01*
X255734Y4041D01*
X255751Y4046D01*
X255769Y4048D01*
X255943Y4105D01*
X256119Y4159D01*
X256135Y4167D01*
X256152Y4173D01*
X256312Y4263D01*
X256473Y4351D01*
X256487Y4362D01*
X256502Y4371D01*
X256642Y4491D01*
X256782Y4608D01*
X256794Y4622D01*
X256807Y4634D01*
X256920Y4779D01*
X257035Y4922D01*
X257043Y4938D01*
X257054Y4952D01*
X257136Y5117D01*
X257220Y5279D01*
X257225Y5296D01*
X257233Y5312D01*
X257281Y5491D01*
X257332Y5666D01*
X257333Y5684D01*
X257338Y5701D01*
X257365Y6032D01*
X257365Y8877D01*
X257388Y8962D01*
X257440Y9133D01*
X257442Y9156D01*
X257448Y9177D01*
X257461Y9356D01*
X257478Y9534D01*
X257476Y9556D01*
X257478Y9579D01*
X257455Y9757D01*
X257437Y9935D01*
X257430Y9956D01*
X257427Y9978D01*
X257370Y10148D01*
X257317Y10319D01*
X257306Y10339D01*
X257299Y10360D01*
X257209Y10515D01*
X257124Y10672D01*
X257109Y10689D01*
X257098Y10709D01*
X257043Y10773D01*
X257043Y26748D01*
X259127Y28832D01*
X275091Y28832D01*
X275108Y28834D01*
X275126Y28832D01*
X275308Y28853D01*
X275491Y28872D01*
X275508Y28877D01*
X275526Y28879D01*
X275700Y28936D01*
X275876Y28990D01*
X275892Y28998D01*
X275909Y29004D01*
X276069Y29094D01*
X276230Y29182D01*
X276244Y29193D01*
X276259Y29202D01*
X276399Y29322D01*
X276539Y29439D01*
X276551Y29453D01*
X276564Y29465D01*
X276677Y29610D01*
X276792Y29753D01*
X276800Y29769D01*
X276811Y29783D01*
X276853Y29869D01*
X284162Y29869D01*
X284163Y29869D01*
X291287Y29869D01*
X291307Y29807D01*
X291361Y29631D01*
X291370Y29615D01*
X291375Y29598D01*
X291466Y29438D01*
X291553Y29277D01*
X291564Y29263D01*
X291573Y29248D01*
X291693Y29108D01*
X291811Y28968D01*
X291825Y28956D01*
X291836Y28943D01*
X291981Y28830D01*
X292125Y28715D01*
X292140Y28707D01*
X292154Y28696D01*
X292319Y28614D01*
X292482Y28530D01*
X292499Y28525D01*
X292515Y28517D01*
X292693Y28469D01*
X292869Y28418D01*
X292887Y28417D01*
X292904Y28412D01*
X293234Y28385D01*
X303912Y28385D01*
X303930Y28387D01*
X303948Y28386D01*
X304130Y28407D01*
X304313Y28425D01*
X304330Y28430D01*
X304347Y28432D01*
X304522Y28489D01*
X304698Y28543D01*
X304713Y28552D01*
X304730Y28557D01*
X304890Y28648D01*
X305052Y28735D01*
X305065Y28746D01*
X305081Y28755D01*
X305220Y28875D01*
X305361Y28993D01*
X305372Y29007D01*
X305386Y29018D01*
X305498Y29163D01*
X305613Y29307D01*
X305621Y29322D01*
X305632Y29336D01*
X305714Y29501D01*
X305799Y29664D01*
X305804Y29681D01*
X305812Y29697D01*
X305859Y29875D01*
X305910Y30051D01*
X305912Y30069D01*
X305916Y30086D01*
X305943Y30416D01*
X305943Y40923D01*
X308027Y43007D01*
X308301Y43007D01*
X308438Y43020D01*
X308575Y43025D01*
X308638Y43040D01*
X308702Y43047D01*
X308833Y43087D01*
X308967Y43119D01*
X309025Y43146D01*
X309087Y43165D01*
X309208Y43230D01*
X309332Y43288D01*
X309384Y43326D01*
X309441Y43357D01*
X309546Y43444D01*
X309657Y43526D01*
X309701Y43573D01*
X309750Y43614D01*
X309836Y43721D01*
X309929Y43823D01*
X309962Y43878D01*
X310002Y43928D01*
X310066Y44050D01*
X310137Y44168D01*
X310158Y44228D01*
X310188Y44285D01*
X310226Y44417D01*
X310272Y44547D01*
X310281Y44610D01*
X310299Y44672D01*
X310310Y44809D01*
X310330Y44945D01*
X310327Y45009D01*
X310332Y45074D01*
X310316Y45210D01*
X310309Y45347D01*
X310293Y45409D01*
X310285Y45473D01*
X310243Y45604D01*
X310208Y45737D01*
X310180Y45795D01*
X310160Y45856D01*
X310093Y45976D01*
X310033Y46100D01*
X309994Y46151D01*
X309962Y46207D01*
X309873Y46311D01*
X309790Y46420D01*
X309741Y46463D01*
X309699Y46511D01*
X309591Y46596D01*
X309488Y46687D01*
X309432Y46719D01*
X309381Y46758D01*
X309258Y46819D01*
X309139Y46888D01*
X309070Y46913D01*
X309021Y46938D01*
X308943Y46958D01*
X308827Y47000D01*
X308519Y47082D01*
X307940Y47417D01*
X307467Y47890D01*
X307132Y48469D01*
X306959Y49115D01*
X306959Y58451D01*
X315532Y58451D01*
X315550Y58452D01*
X315567Y58451D01*
X315750Y58472D01*
X315932Y58491D01*
X315949Y58496D01*
X315967Y58498D01*
X316142Y58555D01*
X316317Y58609D01*
X316333Y58617D01*
X316350Y58623D01*
X316510Y58713D01*
X316671Y58800D01*
X316685Y58812D01*
X316701Y58821D01*
X316840Y58941D01*
X316981Y59058D01*
X316992Y59072D01*
X317005Y59084D01*
X317118Y59229D01*
X317233Y59372D01*
X317241Y59388D01*
X317252Y59402D01*
X317334Y59567D01*
X317418Y59729D01*
X317423Y59746D01*
X317431Y59762D01*
X317479Y59941D01*
X317498Y60005D01*
X317541Y59872D01*
X317595Y59696D01*
X317603Y59681D01*
X317609Y59664D01*
X317699Y59504D01*
X317787Y59342D01*
X317798Y59329D01*
X317807Y59313D01*
X317927Y59174D01*
X318045Y59033D01*
X318058Y59022D01*
X318070Y59008D01*
X318215Y58896D01*
X318358Y58781D01*
X318374Y58773D01*
X318388Y58762D01*
X318553Y58680D01*
X318716Y58595D01*
X318733Y58590D01*
X318749Y58582D01*
X318927Y58534D01*
X319102Y58484D01*
X319120Y58482D01*
X319137Y58478D01*
X319468Y58451D01*
X328122Y58451D01*
X328145Y58382D01*
X328199Y58206D01*
X328207Y58190D01*
X328213Y58173D01*
X328303Y58013D01*
X328391Y57852D01*
X328402Y57838D01*
X328411Y57823D01*
X328531Y57683D01*
X328648Y57543D01*
X328662Y57531D01*
X328674Y57518D01*
X328819Y57405D01*
X328962Y57290D01*
X328978Y57282D01*
X328992Y57271D01*
X329157Y57189D01*
X329319Y57105D01*
X329336Y57100D01*
X329352Y57092D01*
X329531Y57044D01*
X329706Y56993D01*
X329724Y56992D01*
X329741Y56987D01*
X330072Y56960D01*
X354922Y56960D01*
X354951Y56948D01*
X354961Y56945D01*
X354962Y56945D01*
X354964Y56944D01*
X354975Y56938D01*
X355156Y56886D01*
X355336Y56832D01*
X355349Y56831D01*
X355362Y56827D01*
X355551Y56811D01*
X355737Y56794D01*
X355750Y56795D01*
X355764Y56794D01*
X355950Y56816D01*
X356137Y56835D01*
X356150Y56839D01*
X356163Y56841D01*
X356341Y56899D01*
X356522Y56955D01*
X356533Y56962D01*
X356546Y56966D01*
X356710Y57058D01*
X356875Y57149D01*
X356885Y57157D01*
X356897Y57164D01*
X357039Y57287D01*
X357183Y57408D01*
X357191Y57418D01*
X357202Y57427D01*
X357316Y57575D01*
X357434Y57722D01*
X357440Y57734D01*
X357448Y57745D01*
X357531Y57911D01*
X357618Y58081D01*
X357622Y58093D01*
X357628Y58106D01*
X357676Y58287D01*
X357723Y58451D01*
X366332Y58451D01*
X366350Y58452D01*
X366367Y58451D01*
X366550Y58472D01*
X366732Y58491D01*
X366749Y58496D01*
X366767Y58498D01*
X366942Y58555D01*
X367117Y58609D01*
X367133Y58617D01*
X367150Y58623D01*
X367310Y58713D01*
X367471Y58800D01*
X367485Y58812D01*
X367501Y58821D01*
X367640Y58941D01*
X367781Y59058D01*
X367792Y59072D01*
X367805Y59084D01*
X367918Y59229D01*
X368033Y59372D01*
X368041Y59388D01*
X368052Y59402D01*
X368134Y59567D01*
X368218Y59729D01*
X368223Y59746D01*
X368231Y59762D01*
X368279Y59941D01*
X368298Y60005D01*
X368341Y59872D01*
X368395Y59696D01*
X368403Y59681D01*
X368409Y59664D01*
X368499Y59504D01*
X368587Y59342D01*
X368598Y59329D01*
X368607Y59313D01*
X368727Y59174D01*
X368845Y59033D01*
X368858Y59022D01*
X368870Y59008D01*
X369015Y58896D01*
X369158Y58781D01*
X369174Y58773D01*
X369188Y58762D01*
X369353Y58680D01*
X369516Y58595D01*
X369533Y58590D01*
X369549Y58582D01*
X369727Y58534D01*
X369902Y58484D01*
X369920Y58482D01*
X369937Y58478D01*
X370268Y58451D01*
X378922Y58451D01*
X378945Y58382D01*
X378999Y58206D01*
X379007Y58190D01*
X379013Y58173D01*
X379103Y58013D01*
X379191Y57852D01*
X379202Y57838D01*
X379211Y57823D01*
X379331Y57683D01*
X379448Y57543D01*
X379462Y57531D01*
X379474Y57518D01*
X379619Y57405D01*
X379762Y57290D01*
X379778Y57282D01*
X379792Y57271D01*
X379957Y57189D01*
X380119Y57105D01*
X380136Y57100D01*
X380152Y57092D01*
X380331Y57044D01*
X380506Y56993D01*
X380524Y56992D01*
X380541Y56987D01*
X380872Y56960D01*
X393022Y56960D01*
X393191Y56890D01*
X393204Y56886D01*
X393215Y56880D01*
X393396Y56828D01*
X393576Y56774D01*
X393589Y56773D01*
X393602Y56769D01*
X393791Y56754D01*
X393977Y56736D01*
X393990Y56737D01*
X394004Y56736D01*
X394190Y56758D01*
X394377Y56777D01*
X394390Y56781D01*
X394403Y56783D01*
X394582Y56841D01*
X394762Y56897D01*
X394773Y56904D01*
X394786Y56908D01*
X394950Y57000D01*
X395115Y57091D01*
X395125Y57099D01*
X395137Y57106D01*
X395279Y57229D01*
X395423Y57350D01*
X395431Y57360D01*
X395442Y57369D01*
X395556Y57517D01*
X395674Y57664D01*
X395680Y57676D01*
X395688Y57687D01*
X395772Y57855D01*
X395858Y58023D01*
X395862Y58035D01*
X395868Y58048D01*
X395916Y58229D01*
X395968Y58410D01*
X395969Y58423D01*
X395972Y58436D01*
X395999Y58767D01*
X395999Y265537D01*
X395997Y265555D01*
X395999Y265573D01*
X395978Y265755D01*
X395959Y265938D01*
X395954Y265955D01*
X395952Y265972D01*
X395895Y266147D01*
X395841Y266323D01*
X395833Y266338D01*
X395827Y266355D01*
X395737Y266515D01*
X395649Y266677D01*
X395638Y266690D01*
X395629Y266706D01*
X395509Y266845D01*
X395392Y266986D01*
X395378Y266997D01*
X395366Y267011D01*
X395221Y267123D01*
X395078Y267238D01*
X395062Y267246D01*
X395048Y267257D01*
X394883Y267339D01*
X394721Y267424D01*
X394704Y267429D01*
X394688Y267437D01*
X394509Y267484D01*
X394334Y267535D01*
X394316Y267537D01*
X394299Y267541D01*
X393968Y267568D01*
X367027Y267568D01*
X365447Y269148D01*
X365426Y269165D01*
X365409Y269186D01*
X365271Y269293D01*
X365135Y269403D01*
X365112Y269416D01*
X365090Y269432D01*
X364934Y269510D01*
X364780Y269592D01*
X364754Y269600D01*
X364730Y269612D01*
X364561Y269657D01*
X364394Y269707D01*
X364367Y269709D01*
X364341Y269716D01*
X364010Y269743D01*
X347902Y269743D01*
X345818Y271827D01*
X345818Y290273D01*
X348346Y292801D01*
X348351Y292808D01*
X348358Y292813D01*
X348479Y292963D01*
X348601Y293112D01*
X348605Y293120D01*
X348611Y293127D01*
X348699Y293297D01*
X348789Y293468D01*
X348792Y293477D01*
X348796Y293484D01*
X348849Y293669D01*
X348904Y293854D01*
X348905Y293863D01*
X348907Y293871D01*
X348923Y294062D01*
X348941Y294255D01*
X348940Y294264D01*
X348940Y294273D01*
X348918Y294462D01*
X348897Y294655D01*
X348894Y294664D01*
X348893Y294672D01*
X348834Y294854D01*
X348776Y295039D01*
X348771Y295047D01*
X348769Y295055D01*
X348674Y295224D01*
X348581Y295391D01*
X348575Y295398D01*
X348571Y295406D01*
X348445Y295551D01*
X348320Y295698D01*
X348313Y295704D01*
X348308Y295711D01*
X348156Y295828D01*
X348004Y295948D01*
X347996Y295952D01*
X347989Y295957D01*
X347817Y296043D01*
X347646Y296130D01*
X347637Y296133D01*
X347629Y296137D01*
X347443Y296187D01*
X347258Y296238D01*
X347249Y296239D01*
X347240Y296241D01*
X346909Y296268D01*
X329552Y296268D01*
X327468Y298352D01*
X327468Y305438D01*
X327454Y305584D01*
X327447Y305730D01*
X327434Y305784D01*
X327428Y305839D01*
X327385Y305979D01*
X327350Y306121D01*
X327327Y306171D01*
X327310Y306224D01*
X327241Y306352D01*
X327178Y306485D01*
X327145Y306529D01*
X327118Y306578D01*
X327025Y306690D01*
X326937Y306808D01*
X326896Y306845D01*
X326861Y306887D01*
X326747Y306979D01*
X326638Y307077D01*
X326590Y307105D01*
X326547Y307139D01*
X326417Y307207D01*
X326291Y307281D01*
X326239Y307299D01*
X326190Y307325D01*
X326049Y307365D01*
X325911Y307414D01*
X325856Y307421D01*
X325803Y307436D01*
X325657Y307448D01*
X325512Y307468D01*
X325457Y307465D01*
X325401Y307469D01*
X325256Y307452D01*
X325110Y307443D01*
X325057Y307429D01*
X325002Y307422D01*
X324863Y307377D01*
X324721Y307339D01*
X324664Y307312D01*
X324619Y307298D01*
X324546Y307256D01*
X324421Y307197D01*
X324006Y306957D01*
X323360Y306784D01*
X318524Y306784D01*
X318524Y313857D01*
X318522Y313875D01*
X318524Y313892D01*
X318503Y314074D01*
X318484Y314257D01*
X318479Y314274D01*
X318477Y314292D01*
X318464Y314333D01*
X318491Y314427D01*
X318493Y314445D01*
X318497Y314462D01*
X318524Y314793D01*
X318524Y321866D01*
X319913Y321866D01*
X319931Y321868D01*
X319949Y321866D01*
X320131Y321887D01*
X320314Y321906D01*
X320331Y321911D01*
X320348Y321913D01*
X320523Y321970D01*
X320699Y322024D01*
X320714Y322032D01*
X320731Y322038D01*
X320891Y322128D01*
X321053Y322216D01*
X321066Y322227D01*
X321082Y322236D01*
X321221Y322356D01*
X321362Y322473D01*
X321373Y322487D01*
X321387Y322499D01*
X321498Y322643D01*
X321614Y322787D01*
X321622Y322803D01*
X321633Y322817D01*
X321715Y322982D01*
X321800Y323144D01*
X321805Y323161D01*
X321813Y323177D01*
X321860Y323356D01*
X321911Y323531D01*
X321913Y323549D01*
X321917Y323566D01*
X321944Y323897D01*
X321944Y327236D01*
X321942Y327262D01*
X321944Y327289D01*
X321922Y327463D01*
X321904Y327636D01*
X321897Y327662D01*
X321893Y327689D01*
X321838Y327854D01*
X321786Y328021D01*
X321773Y328045D01*
X321765Y328070D01*
X321678Y328222D01*
X321594Y328375D01*
X321577Y328396D01*
X321564Y328419D01*
X321349Y328672D01*
X320804Y329218D01*
X319686Y331915D01*
X319686Y334835D01*
X320804Y337532D01*
X322868Y339596D01*
X325565Y340714D01*
X328485Y340714D01*
X331182Y339596D01*
X333246Y337532D01*
X334364Y334835D01*
X334364Y334413D01*
X334366Y334395D01*
X334364Y334377D01*
X334385Y334195D01*
X334404Y334012D01*
X334409Y333995D01*
X334411Y333978D01*
X334468Y333803D01*
X334522Y333627D01*
X334530Y333612D01*
X334536Y333595D01*
X334626Y333435D01*
X334714Y333273D01*
X334725Y333260D01*
X334734Y333244D01*
X334854Y333105D01*
X334971Y332964D01*
X334985Y332953D01*
X334997Y332939D01*
X335142Y332827D01*
X335285Y332712D01*
X335301Y332704D01*
X335315Y332693D01*
X335480Y332611D01*
X335642Y332526D01*
X335659Y332521D01*
X335675Y332513D01*
X335854Y332466D01*
X336029Y332415D01*
X336047Y332413D01*
X336064Y332409D01*
X336395Y332382D01*
X346498Y332382D01*
X348582Y330298D01*
X348582Y328350D01*
X348584Y328324D01*
X348582Y328297D01*
X348604Y328123D01*
X348622Y327950D01*
X348629Y327924D01*
X348633Y327897D01*
X348688Y327732D01*
X348740Y327565D01*
X348753Y327541D01*
X348761Y327516D01*
X348848Y327364D01*
X348932Y327211D01*
X348949Y327190D01*
X348962Y327167D01*
X349177Y326914D01*
X361476Y314615D01*
X361483Y314609D01*
X361488Y314602D01*
X361638Y314482D01*
X361787Y314360D01*
X361795Y314356D01*
X361802Y314350D01*
X361972Y314261D01*
X362143Y314171D01*
X362152Y314169D01*
X362159Y314164D01*
X362344Y314111D01*
X362529Y314056D01*
X362538Y314055D01*
X362546Y314053D01*
X362738Y314037D01*
X362930Y314020D01*
X362939Y314021D01*
X362948Y314020D01*
X363137Y314042D01*
X363330Y314063D01*
X363339Y314066D01*
X363347Y314067D01*
X363529Y314126D01*
X363714Y314185D01*
X363722Y314189D01*
X363730Y314192D01*
X363899Y314287D01*
X364066Y314380D01*
X364073Y314385D01*
X364081Y314390D01*
X364227Y314516D01*
X364373Y314640D01*
X364379Y314647D01*
X364386Y314653D01*
X364503Y314804D01*
X364623Y314956D01*
X364627Y314964D01*
X364632Y314971D01*
X364718Y315143D01*
X364805Y315315D01*
X364808Y315324D01*
X364812Y315332D01*
X364862Y315518D01*
X364913Y315703D01*
X364914Y315712D01*
X364916Y315720D01*
X364943Y316051D01*
X364943Y323375D01*
X364941Y323401D01*
X364943Y323428D01*
X364921Y323602D01*
X364903Y323776D01*
X364896Y323801D01*
X364892Y323828D01*
X364837Y323993D01*
X364785Y324160D01*
X364772Y324184D01*
X364764Y324209D01*
X364677Y324361D01*
X364593Y324514D01*
X364576Y324535D01*
X364563Y324558D01*
X364348Y324811D01*
X324311Y364848D01*
X324290Y364865D01*
X324273Y364886D01*
X324135Y364993D01*
X324000Y365103D01*
X323976Y365116D01*
X323955Y365132D01*
X323798Y365210D01*
X323644Y365292D01*
X323618Y365300D01*
X323594Y365312D01*
X323425Y365357D01*
X323258Y365407D01*
X323231Y365409D01*
X323206Y365416D01*
X322875Y365443D01*
X321156Y365443D01*
X315438Y367812D01*
X311062Y372188D01*
X308693Y377906D01*
X308693Y384094D01*
X311062Y389812D01*
X315438Y394188D01*
X320270Y396190D01*
X321156Y396557D01*
X327344Y396557D01*
X333062Y394188D01*
X337438Y389812D01*
X339807Y384094D01*
X339807Y377906D01*
X337435Y372179D01*
X337428Y372158D01*
X337418Y372138D01*
X337370Y371965D01*
X337318Y371794D01*
X337316Y371771D01*
X337310Y371750D01*
X337297Y371571D01*
X337280Y371393D01*
X337282Y371371D01*
X337281Y371348D01*
X337303Y371170D01*
X337322Y370992D01*
X337328Y370971D01*
X337331Y370949D01*
X337388Y370779D01*
X337442Y370608D01*
X337452Y370588D01*
X337459Y370567D01*
X337549Y370412D01*
X337635Y370255D01*
X337649Y370238D01*
X337660Y370218D01*
X337875Y369965D01*
X371564Y336277D01*
X371585Y336260D01*
X371602Y336239D01*
X371740Y336132D01*
X371875Y336022D01*
X371899Y336009D01*
X371920Y335993D01*
X372077Y335915D01*
X372231Y335833D01*
X372257Y335825D01*
X372281Y335813D01*
X372450Y335768D01*
X372617Y335718D01*
X372644Y335716D01*
X372669Y335709D01*
X373000Y335682D01*
X393968Y335682D01*
X393986Y335684D01*
X394004Y335682D01*
X394186Y335703D01*
X394369Y335722D01*
X394386Y335727D01*
X394403Y335729D01*
X394578Y335786D01*
X394754Y335840D01*
X394769Y335848D01*
X394786Y335854D01*
X394946Y335944D01*
X395108Y336032D01*
X395121Y336043D01*
X395137Y336052D01*
X395276Y336172D01*
X395417Y336289D01*
X395428Y336303D01*
X395442Y336315D01*
X395554Y336460D01*
X395669Y336603D01*
X395677Y336619D01*
X395688Y336633D01*
X395770Y336798D01*
X395855Y336960D01*
X395860Y336977D01*
X395868Y336993D01*
X395915Y337172D01*
X395966Y337347D01*
X395968Y337365D01*
X395972Y337382D01*
X395999Y337713D01*
X395999Y418968D01*
X395997Y418986D01*
X395999Y419004D01*
X395978Y419186D01*
X395959Y419369D01*
X395954Y419386D01*
X395952Y419403D01*
X395895Y419578D01*
X395841Y419754D01*
X395833Y419769D01*
X395827Y419786D01*
X395737Y419946D01*
X395649Y420108D01*
X395638Y420121D01*
X395629Y420137D01*
X395509Y420276D01*
X395392Y420417D01*
X395378Y420428D01*
X395366Y420442D01*
X395221Y420554D01*
X395078Y420669D01*
X395062Y420677D01*
X395048Y420688D01*
X394883Y420770D01*
X394721Y420855D01*
X394704Y420860D01*
X394688Y420868D01*
X394509Y420915D01*
X394334Y420966D01*
X394316Y420968D01*
X394299Y420972D01*
X393968Y420999D01*
X215000Y420999D01*
X214992Y420998D01*
X214983Y420999D01*
X214791Y420978D01*
X214600Y420959D01*
X214591Y420957D01*
X214582Y420956D01*
X214400Y420898D01*
X214215Y420841D01*
X214207Y420837D01*
X214198Y420834D01*
X214030Y420741D01*
X213861Y420649D01*
X213854Y420644D01*
X213846Y420639D01*
X213699Y420515D01*
X213552Y420392D01*
X213546Y420385D01*
X213539Y420379D01*
X213420Y420228D01*
X213299Y420078D01*
X213295Y420070D01*
X213290Y420063D01*
X213202Y419890D01*
X213114Y419721D01*
X213111Y419712D01*
X213107Y419704D01*
X213055Y419518D01*
X213002Y419334D01*
X213002Y419325D01*
X212999Y419316D01*
X212985Y419123D01*
X212969Y418932D01*
X212970Y418924D01*
X212970Y418915D01*
X212994Y418722D01*
X213016Y418533D01*
X213019Y418524D01*
X213020Y418515D01*
X213082Y418332D01*
X213141Y418150D01*
X213146Y418142D01*
X213148Y418134D01*
X213245Y417967D01*
X213339Y417799D01*
X213345Y417792D01*
X213349Y417785D01*
X213564Y417532D01*
X217358Y413738D01*
X219330Y408977D01*
X219330Y403823D01*
X217358Y399062D01*
X213432Y395136D01*
X213421Y395122D01*
X213407Y395111D01*
X213294Y394967D01*
X213177Y394825D01*
X213169Y394809D01*
X213158Y394795D01*
X213074Y394631D01*
X212988Y394469D01*
X212983Y394452D01*
X212975Y394436D01*
X212926Y394259D01*
X212874Y394083D01*
X212872Y394065D01*
X212867Y394048D01*
X212854Y393865D01*
X212837Y393682D01*
X212839Y393664D01*
X212838Y393647D01*
X212861Y393465D01*
X212881Y393282D01*
X212886Y393265D01*
X212888Y393247D01*
X212947Y393073D01*
X213002Y392898D01*
X213011Y392882D01*
X213016Y392866D01*
X213108Y392706D01*
X213197Y392546D01*
X213208Y392532D01*
X213217Y392517D01*
X213432Y392264D01*
X217358Y388338D01*
X219330Y383577D01*
X219330Y378423D01*
X217358Y373662D01*
X213432Y369736D01*
X213421Y369723D01*
X213407Y369711D01*
X213293Y369567D01*
X213177Y369425D01*
X213169Y369409D01*
X213158Y369395D01*
X213074Y369231D01*
X212988Y369069D01*
X212983Y369052D01*
X212975Y369036D01*
X212926Y368859D01*
X212874Y368683D01*
X212872Y368665D01*
X212867Y368648D01*
X212854Y368465D01*
X212837Y368282D01*
X212839Y368264D01*
X212838Y368247D01*
X212861Y368065D01*
X212881Y367882D01*
X212886Y367865D01*
X212888Y367847D01*
X212947Y367674D01*
X213002Y367498D01*
X213011Y367482D01*
X213016Y367466D01*
X213108Y367306D01*
X213197Y367146D01*
X213208Y367132D01*
X213217Y367117D01*
X213432Y366864D01*
X217358Y362938D01*
X219330Y358177D01*
X219330Y353023D01*
X217358Y348262D01*
X213713Y344617D01*
X212634Y344170D01*
X212519Y344109D01*
X212399Y344055D01*
X212342Y344014D01*
X212279Y343980D01*
X212178Y343897D01*
X212072Y343821D01*
X212023Y343769D01*
X211969Y343724D01*
X211886Y343622D01*
X211797Y343527D01*
X211760Y343466D01*
X211715Y343411D01*
X211654Y343295D01*
X211585Y343184D01*
X211561Y343118D01*
X211528Y343055D01*
X211491Y342929D01*
X211446Y342806D01*
X211435Y342736D01*
X211415Y342668D01*
X211403Y342538D01*
X211383Y342409D01*
X211386Y342338D01*
X211380Y342267D01*
X211395Y342137D01*
X211400Y342006D01*
X211417Y341938D01*
X211425Y341867D01*
X211465Y341742D01*
X211497Y341615D01*
X211527Y341551D01*
X211548Y341484D01*
X211612Y341370D01*
X211668Y341251D01*
X211710Y341194D01*
X211745Y341132D01*
X211830Y341033D01*
X211908Y340928D01*
X211960Y340880D01*
X212007Y340826D01*
X212110Y340746D01*
X212207Y340658D01*
X212277Y340615D01*
X212324Y340578D01*
X212392Y340544D01*
X212489Y340484D01*
X212632Y340411D01*
X214153Y339306D01*
X215481Y337978D01*
X216586Y336457D01*
X217439Y334783D01*
X218020Y332996D01*
X218060Y332739D01*
X206883Y332739D01*
X206865Y332737D01*
X206848Y332739D01*
X206665Y332718D01*
X206483Y332699D01*
X206466Y332694D01*
X206448Y332692D01*
X206370Y332667D01*
X206233Y332706D01*
X206215Y332708D01*
X206198Y332712D01*
X205867Y332739D01*
X194690Y332739D01*
X194730Y332996D01*
X195311Y334783D01*
X196164Y336457D01*
X197269Y337978D01*
X198597Y339306D01*
X200118Y340411D01*
X200261Y340484D01*
X200371Y340554D01*
X200486Y340617D01*
X200540Y340663D01*
X200600Y340701D01*
X200694Y340792D01*
X200794Y340876D01*
X200838Y340932D01*
X200889Y340981D01*
X200963Y341089D01*
X201045Y341191D01*
X201077Y341254D01*
X201118Y341313D01*
X201169Y341433D01*
X201229Y341549D01*
X201248Y341618D01*
X201276Y341683D01*
X201303Y341811D01*
X201338Y341937D01*
X201344Y342007D01*
X201358Y342077D01*
X201359Y342208D01*
X201370Y342338D01*
X201361Y342409D01*
X201362Y342480D01*
X201337Y342608D01*
X201321Y342738D01*
X201299Y342805D01*
X201285Y342875D01*
X201235Y342996D01*
X201194Y343120D01*
X201159Y343182D01*
X201132Y343247D01*
X201060Y343356D01*
X200995Y343470D01*
X200948Y343523D01*
X200909Y343582D01*
X200816Y343675D01*
X200730Y343773D01*
X200674Y343817D01*
X200624Y343867D01*
X200515Y343939D01*
X200411Y344019D01*
X200338Y344056D01*
X200289Y344089D01*
X200218Y344118D01*
X200116Y344170D01*
X199037Y344617D01*
X195459Y348195D01*
X195445Y348207D01*
X195434Y348220D01*
X195289Y348334D01*
X195148Y348450D01*
X195132Y348459D01*
X195118Y348470D01*
X194954Y348553D01*
X194792Y348639D01*
X194775Y348644D01*
X194759Y348652D01*
X194581Y348701D01*
X194406Y348754D01*
X194388Y348755D01*
X194371Y348760D01*
X194188Y348774D01*
X194005Y348790D01*
X193987Y348788D01*
X193969Y348789D01*
X193787Y348767D01*
X193605Y348747D01*
X193588Y348741D01*
X193570Y348739D01*
X193396Y348681D01*
X193221Y348625D01*
X193205Y348617D01*
X193188Y348611D01*
X193029Y348519D01*
X192868Y348430D01*
X192855Y348419D01*
X192839Y348410D01*
X192586Y348195D01*
X164790Y320399D01*
X164785Y320392D01*
X164778Y320387D01*
X164658Y320237D01*
X164535Y320088D01*
X164531Y320080D01*
X164526Y320073D01*
X164437Y319902D01*
X164347Y319732D01*
X164344Y319724D01*
X164340Y319716D01*
X164287Y319530D01*
X164232Y319346D01*
X164231Y319337D01*
X164229Y319329D01*
X164213Y319137D01*
X164196Y318945D01*
X164197Y318936D01*
X164196Y318927D01*
X164218Y318738D01*
X164239Y318545D01*
X164242Y318536D01*
X164243Y318528D01*
X164302Y318346D01*
X164360Y318161D01*
X164365Y318153D01*
X164368Y318145D01*
X164463Y317976D01*
X164555Y317809D01*
X164561Y317802D01*
X164565Y317794D01*
X164691Y317648D01*
X164816Y317502D01*
X164823Y317496D01*
X164829Y317489D01*
X164980Y317372D01*
X165132Y317252D01*
X165140Y317248D01*
X165147Y317243D01*
X165319Y317157D01*
X165491Y317070D01*
X165499Y317067D01*
X165507Y317063D01*
X165694Y317013D01*
X165879Y316962D01*
X165887Y316961D01*
X165896Y316959D01*
X166227Y316932D01*
X175773Y316932D01*
X177089Y315616D01*
X177209Y315518D01*
X177324Y315414D01*
X177364Y315390D01*
X177400Y315361D01*
X177537Y315288D01*
X177671Y315209D01*
X177715Y315194D01*
X177756Y315172D01*
X177905Y315128D01*
X178051Y315077D01*
X178097Y315071D01*
X178142Y315058D01*
X178297Y315043D01*
X178450Y315022D01*
X178497Y315025D01*
X178543Y315021D01*
X178697Y315038D01*
X178852Y315047D01*
X178897Y315059D01*
X178943Y315065D01*
X179091Y315111D01*
X179241Y315151D01*
X179288Y315174D01*
X179327Y315186D01*
X179403Y315228D01*
X179541Y315293D01*
X180319Y315743D01*
X180965Y315916D01*
X183926Y315916D01*
X183926Y308568D01*
X183927Y308550D01*
X183926Y308533D01*
X183947Y308350D01*
X183966Y308168D01*
X183971Y308151D01*
X183973Y308133D01*
X184024Y307977D01*
X184009Y307923D01*
X183959Y307748D01*
X183957Y307730D01*
X183953Y307713D01*
X183926Y307382D01*
X183926Y300034D01*
X180965Y300034D01*
X180319Y300207D01*
X179541Y300657D01*
X179399Y300721D01*
X179261Y300791D01*
X179217Y300803D01*
X179174Y300823D01*
X179023Y300857D01*
X178874Y300899D01*
X178827Y300902D01*
X178782Y300913D01*
X178627Y300917D01*
X178472Y300928D01*
X178426Y300922D01*
X178379Y300924D01*
X178226Y300897D01*
X178073Y300878D01*
X178028Y300863D01*
X177982Y300855D01*
X177838Y300799D01*
X177691Y300750D01*
X177651Y300726D01*
X177607Y300710D01*
X177476Y300626D01*
X177342Y300549D01*
X177302Y300515D01*
X177268Y300493D01*
X177205Y300433D01*
X177089Y300334D01*
X175773Y299018D01*
X164076Y299018D01*
X164049Y299016D01*
X164023Y299018D01*
X163849Y298996D01*
X163675Y298978D01*
X163650Y298971D01*
X163623Y298967D01*
X163458Y298912D01*
X163290Y298860D01*
X163267Y298847D01*
X163241Y298839D01*
X163090Y298752D01*
X162936Y298668D01*
X162916Y298651D01*
X162893Y298638D01*
X162640Y298423D01*
X155347Y291130D01*
X155327Y291106D01*
X155303Y291086D01*
X155200Y290951D01*
X155092Y290819D01*
X155077Y290791D01*
X155058Y290767D01*
X154906Y290471D01*
X153859Y287943D01*
X151795Y285879D01*
X149097Y284761D01*
X146178Y284761D01*
X143480Y285879D01*
X142406Y286953D01*
X142399Y286958D01*
X142394Y286965D01*
X142243Y287086D01*
X142095Y287208D01*
X142087Y287212D01*
X142080Y287218D01*
X141910Y287306D01*
X141739Y287396D01*
X141730Y287399D01*
X141723Y287403D01*
X141538Y287456D01*
X141353Y287511D01*
X141344Y287512D01*
X141336Y287514D01*
X141145Y287530D01*
X140952Y287548D01*
X140943Y287547D01*
X140934Y287547D01*
X140745Y287525D01*
X140552Y287504D01*
X140543Y287501D01*
X140535Y287500D01*
X140353Y287441D01*
X140168Y287383D01*
X140160Y287378D01*
X140152Y287376D01*
X139985Y287281D01*
X139816Y287188D01*
X139809Y287182D01*
X139801Y287178D01*
X139656Y287053D01*
X139509Y286927D01*
X139503Y286920D01*
X139496Y286915D01*
X139380Y286764D01*
X139259Y286611D01*
X139255Y286603D01*
X139250Y286596D01*
X139165Y286426D01*
X139077Y286253D01*
X139074Y286244D01*
X139070Y286236D01*
X139021Y286050D01*
X138969Y285865D01*
X138968Y285856D01*
X138966Y285847D01*
X138939Y285516D01*
X138939Y229076D01*
X138088Y227022D01*
X53452Y142386D01*
X53435Y142365D01*
X53414Y142347D01*
X53307Y142209D01*
X53197Y142074D01*
X53184Y142050D01*
X53168Y142029D01*
X53090Y141872D01*
X53008Y141718D01*
X53000Y141693D01*
X52988Y141669D01*
X52943Y141499D01*
X52893Y141332D01*
X52891Y141306D01*
X52884Y141280D01*
X52857Y140949D01*
X52857Y138502D01*
X50773Y136418D01*
X17827Y136418D01*
X17756Y136489D01*
X17749Y136495D01*
X17743Y136502D01*
X17594Y136621D01*
X17444Y136744D01*
X17436Y136749D01*
X17429Y136754D01*
X17260Y136842D01*
X17089Y136933D01*
X17080Y136936D01*
X17072Y136940D01*
X16889Y136992D01*
X16703Y137048D01*
X16694Y137049D01*
X16685Y137051D01*
X16495Y137067D01*
X16302Y137084D01*
X16293Y137083D01*
X16284Y137084D01*
X16094Y137062D01*
X15901Y137041D01*
X15893Y137038D01*
X15884Y137037D01*
X15701Y136977D01*
X15518Y136919D01*
X15510Y136915D01*
X15501Y136912D01*
X15333Y136817D01*
X15165Y136724D01*
X15158Y136719D01*
X15151Y136714D01*
X15005Y136589D01*
X14858Y136464D01*
X14853Y136457D01*
X14846Y136451D01*
X14728Y136299D01*
X14609Y136148D01*
X14605Y136140D01*
X14599Y136133D01*
X14513Y135959D01*
X14426Y135789D01*
X14424Y135781D01*
X14420Y135772D01*
X14369Y135584D01*
X14318Y135401D01*
X14318Y135392D01*
X14315Y135384D01*
X14288Y135053D01*
X14288Y105582D01*
X14291Y105555D01*
X14289Y105529D01*
X14311Y105355D01*
X14328Y105181D01*
X14336Y105156D01*
X14339Y105129D01*
X14395Y104963D01*
X14446Y104796D01*
X14459Y104773D01*
X14468Y104747D01*
X14555Y104596D01*
X14638Y104442D01*
X14655Y104422D01*
X14668Y104399D01*
X14883Y104146D01*
X78070Y40959D01*
X78091Y40942D01*
X78108Y40921D01*
X78246Y40814D01*
X78382Y40704D01*
X78405Y40691D01*
X78426Y40675D01*
X78583Y40597D01*
X78737Y40515D01*
X78763Y40507D01*
X78787Y40495D01*
X78956Y40450D01*
X79123Y40400D01*
X79150Y40398D01*
X79176Y40391D01*
X79506Y40364D01*
X88144Y40364D01*
X88289Y40378D01*
X88435Y40385D01*
X88489Y40398D01*
X88544Y40404D01*
X88684Y40446D01*
X88826Y40482D01*
X88876Y40506D01*
X88929Y40522D01*
X89058Y40591D01*
X89190Y40654D01*
X89234Y40687D01*
X89283Y40714D01*
X89395Y40807D01*
X89513Y40895D01*
X89550Y40936D01*
X89592Y40971D01*
X89684Y41085D01*
X89782Y41194D01*
X89810Y41242D01*
X89845Y41285D01*
X89912Y41415D01*
X89987Y41541D01*
X90005Y41593D01*
X90030Y41642D01*
X90071Y41783D01*
X90119Y41921D01*
X90126Y41976D01*
X90142Y42029D01*
X90154Y42175D01*
X90174Y42320D01*
X90170Y42375D01*
X90175Y42431D01*
X90158Y42575D01*
X90148Y42722D01*
X90134Y42775D01*
X90128Y42830D01*
X90082Y42969D01*
X90045Y43111D01*
X90018Y43168D01*
X90003Y43213D01*
X89982Y43251D01*
X89797Y43940D01*
X89797Y45744D01*
X96837Y45744D01*
X96838Y45744D01*
X103878Y45744D01*
X103878Y43940D01*
X103705Y43294D01*
X103622Y43150D01*
X103558Y43008D01*
X103488Y42870D01*
X103475Y42826D01*
X103456Y42783D01*
X103421Y42632D01*
X103380Y42482D01*
X103376Y42436D01*
X103366Y42391D01*
X103362Y42236D01*
X103350Y42081D01*
X103356Y42035D01*
X103355Y41988D01*
X103381Y41835D01*
X103401Y41681D01*
X103416Y41637D01*
X103423Y41591D01*
X103479Y41447D01*
X103529Y41300D01*
X103552Y41259D01*
X103569Y41216D01*
X103653Y41085D01*
X103730Y40951D01*
X103764Y40911D01*
X103786Y40877D01*
X103846Y40814D01*
X103945Y40698D01*
X104894Y39748D01*
X104894Y30863D01*
X104896Y30845D01*
X104895Y30827D01*
X104916Y30645D01*
X104934Y30462D01*
X104939Y30445D01*
X104941Y30428D01*
X104998Y30253D01*
X105052Y30077D01*
X105061Y30062D01*
X105066Y30045D01*
X105157Y29885D01*
X105244Y29723D01*
X105255Y29710D01*
X105264Y29694D01*
X105384Y29555D01*
X105502Y29414D01*
X105516Y29403D01*
X105527Y29389D01*
X105672Y29277D01*
X105701Y29254D01*
X108207Y26748D01*
X108207Y10802D01*
X106123Y8718D01*
X87677Y8718D01*
X85593Y10802D01*
X85593Y27155D01*
X85591Y27173D01*
X85593Y27191D01*
X85572Y27373D01*
X85553Y27556D01*
X85548Y27573D01*
X85546Y27590D01*
X85489Y27765D01*
X85435Y27941D01*
X85427Y27956D01*
X85421Y27973D01*
X85331Y28133D01*
X85243Y28295D01*
X85232Y28308D01*
X85223Y28324D01*
X85103Y28463D01*
X84986Y28604D01*
X84972Y28615D01*
X84960Y28629D01*
X84815Y28741D01*
X84672Y28856D01*
X84656Y28864D01*
X84642Y28875D01*
X84477Y28957D01*
X84315Y29042D01*
X84298Y29047D01*
X84282Y29055D01*
X84103Y29102D01*
X83928Y29153D01*
X83910Y29155D01*
X83893Y29159D01*
X83562Y29186D01*
X75238Y29186D01*
X73184Y30037D01*
X41851Y61370D01*
X41841Y61379D01*
X41832Y61389D01*
X41685Y61506D01*
X41540Y61625D01*
X41528Y61631D01*
X41517Y61640D01*
X41349Y61726D01*
X41184Y61814D01*
X41171Y61818D01*
X41159Y61824D01*
X40978Y61875D01*
X40798Y61929D01*
X40785Y61930D01*
X40772Y61933D01*
X40586Y61948D01*
X40397Y61965D01*
X40384Y61964D01*
X40370Y61965D01*
X40185Y61942D01*
X39997Y61922D01*
X39984Y61918D01*
X39971Y61916D01*
X39792Y61857D01*
X39613Y61800D01*
X39601Y61794D01*
X39589Y61789D01*
X39425Y61696D01*
X39261Y61605D01*
X39250Y61597D01*
X39239Y61590D01*
X39097Y61466D01*
X38954Y61345D01*
X38945Y61334D01*
X38935Y61326D01*
X38820Y61176D01*
X38704Y61029D01*
X38698Y61017D01*
X38690Y61006D01*
X38538Y60711D01*
X37971Y59343D01*
X35907Y57279D01*
X33210Y56161D01*
X29908Y56161D01*
X29881Y56159D01*
X29854Y56161D01*
X29680Y56139D01*
X29507Y56121D01*
X29481Y56114D01*
X29455Y56110D01*
X29289Y56054D01*
X29122Y56003D01*
X29098Y55990D01*
X29073Y55982D01*
X28922Y55895D01*
X28768Y55811D01*
X28747Y55794D01*
X28724Y55781D01*
X28471Y55566D01*
X26623Y53718D01*
X8177Y53718D01*
X7468Y54427D01*
X7461Y54432D01*
X7456Y54439D01*
X7306Y54560D01*
X7157Y54682D01*
X7149Y54686D01*
X7142Y54692D01*
X6972Y54780D01*
X6801Y54870D01*
X6792Y54873D01*
X6785Y54877D01*
X6600Y54930D01*
X6415Y54985D01*
X6406Y54986D01*
X6398Y54988D01*
X6207Y55004D01*
X6014Y55022D01*
X6005Y55021D01*
X5996Y55021D01*
X5807Y54999D01*
X5614Y54978D01*
X5605Y54975D01*
X5597Y54974D01*
X5415Y54915D01*
X5230Y54857D01*
X5222Y54852D01*
X5214Y54850D01*
X5047Y54755D01*
X4878Y54662D01*
X4871Y54656D01*
X4863Y54652D01*
X4718Y54527D01*
X4571Y54401D01*
X4565Y54394D01*
X4558Y54389D01*
X4442Y54238D01*
X4321Y54085D01*
X4317Y54077D01*
X4312Y54070D01*
X4227Y53900D01*
X4139Y53727D01*
X4136Y53718D01*
X4132Y53710D01*
X4082Y53524D01*
X4031Y53339D01*
X4030Y53330D01*
X4028Y53321D01*
X4001Y52990D01*
X4001Y29560D01*
X4002Y29551D01*
X4001Y29542D01*
X4022Y29350D01*
X4041Y29159D01*
X4043Y29150D01*
X4044Y29142D01*
X4102Y28959D01*
X4159Y28774D01*
X4163Y28766D01*
X4166Y28758D01*
X4259Y28589D01*
X4351Y28420D01*
X4356Y28413D01*
X4361Y28405D01*
X4486Y28258D01*
X4608Y28111D01*
X4615Y28105D01*
X4621Y28098D01*
X4772Y27979D01*
X4922Y27858D01*
X4930Y27854D01*
X4937Y27849D01*
X5108Y27762D01*
X5279Y27673D01*
X5288Y27670D01*
X5296Y27666D01*
X5482Y27615D01*
X5666Y27562D01*
X5675Y27561D01*
X5684Y27558D01*
X5876Y27544D01*
X6068Y27529D01*
X6076Y27530D01*
X6085Y27529D01*
X6278Y27553D01*
X6467Y27576D01*
X6476Y27578D01*
X6485Y27579D01*
X6668Y27641D01*
X6850Y27700D01*
X6858Y27705D01*
X6866Y27708D01*
X7032Y27803D01*
X7201Y27898D01*
X7208Y27904D01*
X7215Y27909D01*
X7468Y28123D01*
X8177Y28832D01*
X26623Y28832D01*
X28707Y26748D01*
X28707Y10802D01*
X26623Y8718D01*
X8177Y8718D01*
X7468Y9427D01*
X7461Y9432D01*
X7456Y9439D01*
X7306Y9560D01*
X7157Y9682D01*
X7149Y9686D01*
X7142Y9692D01*
X6972Y9780D01*
X6801Y9870D01*
X6792Y9873D01*
X6785Y9877D01*
X6600Y9930D01*
X6415Y9985D01*
X6406Y9986D01*
X6398Y9988D01*
X6207Y10004D01*
X6014Y10022D01*
X6005Y10021D01*
X5996Y10021D01*
X5807Y9999D01*
X5614Y9978D01*
X5605Y9975D01*
X5597Y9974D01*
X5415Y9915D01*
X5230Y9857D01*
X5222Y9852D01*
X5214Y9850D01*
X5047Y9755D01*
X4878Y9662D01*
X4871Y9656D01*
X4863Y9652D01*
X4718Y9527D01*
X4571Y9401D01*
X4565Y9394D01*
X4558Y9389D01*
X4442Y9238D01*
X4321Y9085D01*
X4317Y9077D01*
X4312Y9070D01*
X4227Y8900D01*
X4139Y8727D01*
X4136Y8718D01*
X4132Y8710D01*
X4082Y8524D01*
X4031Y8339D01*
X4030Y8330D01*
X4028Y8321D01*
X4001Y7990D01*
X4001Y6032D01*
X4003Y6014D01*
X4001Y5996D01*
X4022Y5814D01*
X4041Y5631D01*
X4046Y5614D01*
X4048Y5597D01*
X4105Y5422D01*
X4159Y5246D01*
X4167Y5231D01*
X4173Y5214D01*
X4263Y5054D01*
X4351Y4892D01*
X4362Y4879D01*
X4371Y4863D01*
X4491Y4724D01*
X4608Y4583D01*
X4622Y4572D01*
X4634Y4558D01*
X4779Y4446D01*
X4922Y4331D01*
X4938Y4323D01*
X4952Y4312D01*
X5117Y4230D01*
X5279Y4145D01*
X5296Y4140D01*
X5312Y4132D01*
X5491Y4085D01*
X5666Y4034D01*
X5684Y4032D01*
X5701Y4028D01*
X6032Y4001D01*
X255334Y4001D01*
X255351Y4003D01*
G37*
%LPC*%
G36*
X179627Y8718D02*
X179627Y8718D01*
X177543Y10802D01*
X177543Y23203D01*
X177541Y23221D01*
X177543Y23239D01*
X177522Y23421D01*
X177503Y23604D01*
X177498Y23621D01*
X177496Y23638D01*
X177439Y23813D01*
X177385Y23989D01*
X177377Y24004D01*
X177371Y24021D01*
X177281Y24181D01*
X177193Y24343D01*
X177182Y24356D01*
X177173Y24372D01*
X177053Y24511D01*
X176936Y24652D01*
X176922Y24663D01*
X176910Y24677D01*
X176765Y24789D01*
X176622Y24904D01*
X176606Y24912D01*
X176592Y24923D01*
X176427Y25005D01*
X176265Y25090D01*
X176248Y25095D01*
X176232Y25103D01*
X176053Y25150D01*
X175878Y25201D01*
X175860Y25203D01*
X175843Y25207D01*
X175537Y25232D01*
X175537Y32307D01*
X175535Y32325D01*
X175536Y32342D01*
X175515Y32525D01*
X175497Y32707D01*
X175492Y32724D01*
X175490Y32742D01*
X175433Y32917D01*
X175379Y33092D01*
X175370Y33108D01*
X175365Y33125D01*
X175274Y33285D01*
X175187Y33446D01*
X175176Y33460D01*
X175167Y33476D01*
X175047Y33615D01*
X174929Y33756D01*
X174915Y33767D01*
X174904Y33780D01*
X174759Y33893D01*
X174615Y34008D01*
X174600Y34016D01*
X174586Y34027D01*
X174421Y34109D01*
X174393Y34123D01*
X174338Y34221D01*
X174251Y34383D01*
X174239Y34396D01*
X174231Y34412D01*
X174110Y34551D01*
X173993Y34692D01*
X173979Y34703D01*
X173967Y34717D01*
X173822Y34829D01*
X173679Y34944D01*
X173663Y34952D01*
X173649Y34963D01*
X173484Y35045D01*
X173322Y35130D01*
X173305Y35135D01*
X173289Y35143D01*
X173111Y35190D01*
X172935Y35241D01*
X172917Y35243D01*
X172900Y35247D01*
X172569Y35274D01*
X164997Y35274D01*
X164997Y38110D01*
X165170Y38756D01*
X165619Y39534D01*
X165683Y39676D01*
X165753Y39814D01*
X165766Y39858D01*
X165785Y39901D01*
X165820Y40052D01*
X165861Y40201D01*
X165865Y40248D01*
X165875Y40293D01*
X165879Y40448D01*
X165891Y40603D01*
X165885Y40649D01*
X165886Y40696D01*
X165860Y40849D01*
X165840Y41002D01*
X165826Y41047D01*
X165818Y41093D01*
X165762Y41237D01*
X165712Y41384D01*
X165689Y41424D01*
X165672Y41468D01*
X165588Y41599D01*
X165511Y41733D01*
X165477Y41773D01*
X165455Y41807D01*
X165395Y41870D01*
X165297Y41986D01*
X163981Y43302D01*
X163981Y56248D01*
X166064Y58332D01*
X175512Y58332D01*
X175530Y58334D01*
X175548Y58332D01*
X175730Y58353D01*
X175913Y58372D01*
X175930Y58377D01*
X175947Y58379D01*
X176122Y58436D01*
X176298Y58490D01*
X176313Y58498D01*
X176330Y58504D01*
X176490Y58594D01*
X176652Y58682D01*
X176665Y58693D01*
X176681Y58702D01*
X176820Y58822D01*
X176961Y58939D01*
X176972Y58953D01*
X176986Y58965D01*
X177098Y59110D01*
X177213Y59253D01*
X177221Y59269D01*
X177232Y59283D01*
X177314Y59448D01*
X177399Y59610D01*
X177404Y59627D01*
X177412Y59643D01*
X177459Y59822D01*
X177510Y59997D01*
X177512Y60015D01*
X177516Y60032D01*
X177543Y60363D01*
X177543Y71748D01*
X179627Y73832D01*
X198755Y73832D01*
X198773Y73834D01*
X198791Y73832D01*
X198973Y73853D01*
X199156Y73872D01*
X199173Y73877D01*
X199190Y73879D01*
X199365Y73936D01*
X199541Y73990D01*
X199556Y73998D01*
X199573Y74004D01*
X199733Y74094D01*
X199895Y74182D01*
X199908Y74193D01*
X199924Y74202D01*
X200063Y74322D01*
X200204Y74439D01*
X200215Y74453D01*
X200229Y74465D01*
X200341Y74610D01*
X200456Y74753D01*
X200464Y74769D01*
X200475Y74783D01*
X200557Y74948D01*
X200642Y75110D01*
X200647Y75127D01*
X200655Y75143D01*
X200702Y75322D01*
X200753Y75497D01*
X200755Y75515D01*
X200759Y75532D01*
X200786Y75863D01*
X200786Y77806D01*
X200784Y77833D01*
X200786Y77859D01*
X200764Y78033D01*
X200746Y78207D01*
X200739Y78232D01*
X200735Y78259D01*
X200680Y78425D01*
X200628Y78592D01*
X200615Y78615D01*
X200607Y78641D01*
X200520Y78792D01*
X200436Y78946D01*
X200419Y78966D01*
X200406Y78989D01*
X200191Y79242D01*
X189562Y89872D01*
X188711Y91926D01*
X188711Y134387D01*
X188709Y134405D01*
X188711Y134423D01*
X188690Y134605D01*
X188671Y134788D01*
X188666Y134805D01*
X188664Y134822D01*
X188607Y134997D01*
X188553Y135173D01*
X188545Y135188D01*
X188539Y135205D01*
X188449Y135365D01*
X188361Y135527D01*
X188350Y135540D01*
X188341Y135556D01*
X188221Y135695D01*
X188104Y135836D01*
X188090Y135847D01*
X188078Y135861D01*
X187933Y135973D01*
X187790Y136088D01*
X187774Y136096D01*
X187760Y136107D01*
X187595Y136189D01*
X187433Y136274D01*
X187416Y136279D01*
X187400Y136287D01*
X187221Y136334D01*
X187046Y136385D01*
X187028Y136387D01*
X187011Y136391D01*
X186680Y136418D01*
X177827Y136418D01*
X175743Y138502D01*
X175743Y153448D01*
X176834Y154539D01*
X176845Y154553D01*
X176859Y154564D01*
X176973Y154708D01*
X177089Y154850D01*
X177097Y154866D01*
X177108Y154880D01*
X177192Y155044D01*
X177277Y155206D01*
X177282Y155223D01*
X177291Y155239D01*
X177340Y155416D01*
X177392Y155592D01*
X177394Y155610D01*
X177399Y155627D01*
X177412Y155810D01*
X177429Y155993D01*
X177427Y156011D01*
X177428Y156028D01*
X177405Y156210D01*
X177385Y156393D01*
X177380Y156410D01*
X177378Y156428D01*
X177319Y156602D01*
X177264Y156777D01*
X177255Y156793D01*
X177249Y156809D01*
X177158Y156968D01*
X177069Y157129D01*
X177057Y157143D01*
X177048Y157158D01*
X176834Y157411D01*
X175743Y158502D01*
X175743Y173448D01*
X176834Y174539D01*
X176845Y174553D01*
X176859Y174564D01*
X176973Y174708D01*
X177089Y174850D01*
X177097Y174866D01*
X177108Y174880D01*
X177192Y175044D01*
X177277Y175206D01*
X177282Y175223D01*
X177291Y175239D01*
X177340Y175416D01*
X177392Y175592D01*
X177394Y175610D01*
X177399Y175627D01*
X177412Y175810D01*
X177429Y175993D01*
X177427Y176011D01*
X177428Y176028D01*
X177405Y176210D01*
X177385Y176393D01*
X177380Y176410D01*
X177378Y176428D01*
X177319Y176602D01*
X177264Y176777D01*
X177255Y176793D01*
X177249Y176809D01*
X177158Y176968D01*
X177069Y177129D01*
X177057Y177143D01*
X177048Y177158D01*
X176834Y177411D01*
X175743Y178502D01*
X175743Y193448D01*
X176834Y194539D01*
X176845Y194553D01*
X176859Y194564D01*
X176973Y194708D01*
X177089Y194850D01*
X177097Y194866D01*
X177108Y194880D01*
X177192Y195044D01*
X177277Y195206D01*
X177282Y195223D01*
X177291Y195239D01*
X177340Y195416D01*
X177392Y195592D01*
X177394Y195610D01*
X177399Y195627D01*
X177412Y195810D01*
X177429Y195993D01*
X177427Y196011D01*
X177428Y196028D01*
X177405Y196210D01*
X177385Y196393D01*
X177380Y196410D01*
X177378Y196428D01*
X177319Y196602D01*
X177264Y196777D01*
X177255Y196793D01*
X177249Y196809D01*
X177158Y196968D01*
X177069Y197129D01*
X177057Y197143D01*
X177048Y197158D01*
X176834Y197411D01*
X175743Y198502D01*
X175743Y213448D01*
X176834Y214539D01*
X176845Y214553D01*
X176859Y214564D01*
X176973Y214708D01*
X177089Y214850D01*
X177097Y214866D01*
X177108Y214880D01*
X177192Y215044D01*
X177277Y215206D01*
X177282Y215223D01*
X177291Y215239D01*
X177340Y215416D01*
X177392Y215592D01*
X177394Y215610D01*
X177399Y215627D01*
X177412Y215810D01*
X177429Y215993D01*
X177427Y216011D01*
X177428Y216028D01*
X177405Y216210D01*
X177385Y216393D01*
X177380Y216410D01*
X177378Y216428D01*
X177319Y216602D01*
X177264Y216777D01*
X177255Y216793D01*
X177249Y216809D01*
X177158Y216968D01*
X177069Y217129D01*
X177057Y217143D01*
X177048Y217158D01*
X176834Y217411D01*
X175743Y218502D01*
X175743Y233448D01*
X176834Y234539D01*
X176845Y234553D01*
X176859Y234564D01*
X176973Y234708D01*
X177089Y234850D01*
X177097Y234866D01*
X177108Y234880D01*
X177192Y235044D01*
X177277Y235206D01*
X177282Y235223D01*
X177291Y235239D01*
X177340Y235416D01*
X177392Y235592D01*
X177394Y235610D01*
X177399Y235627D01*
X177412Y235810D01*
X177429Y235993D01*
X177427Y236011D01*
X177428Y236028D01*
X177405Y236210D01*
X177385Y236393D01*
X177380Y236410D01*
X177378Y236428D01*
X177319Y236602D01*
X177264Y236777D01*
X177255Y236793D01*
X177249Y236809D01*
X177158Y236968D01*
X177069Y237129D01*
X177057Y237143D01*
X177048Y237158D01*
X176834Y237411D01*
X175743Y238502D01*
X175743Y253448D01*
X176834Y254539D01*
X176845Y254553D01*
X176859Y254564D01*
X176973Y254708D01*
X177089Y254850D01*
X177097Y254866D01*
X177108Y254880D01*
X177192Y255044D01*
X177277Y255206D01*
X177282Y255223D01*
X177291Y255239D01*
X177340Y255416D01*
X177392Y255592D01*
X177394Y255610D01*
X177399Y255627D01*
X177412Y255810D01*
X177429Y255993D01*
X177427Y256011D01*
X177428Y256028D01*
X177405Y256210D01*
X177385Y256393D01*
X177380Y256410D01*
X177378Y256428D01*
X177319Y256602D01*
X177264Y256777D01*
X177255Y256793D01*
X177249Y256809D01*
X177158Y256968D01*
X177069Y257129D01*
X177057Y257143D01*
X177048Y257158D01*
X176834Y257411D01*
X175743Y258502D01*
X175743Y273448D01*
X177552Y275257D01*
X177563Y275271D01*
X177577Y275283D01*
X177691Y275427D01*
X177807Y275569D01*
X177816Y275584D01*
X177827Y275598D01*
X177910Y275762D01*
X177996Y275924D01*
X178001Y275941D01*
X178009Y275957D01*
X178058Y276134D01*
X178111Y276310D01*
X178112Y276328D01*
X178117Y276345D01*
X178130Y276528D01*
X178147Y276711D01*
X178145Y276729D01*
X178146Y276747D01*
X178123Y276928D01*
X178104Y277111D01*
X178098Y277129D01*
X178096Y277146D01*
X178038Y277319D01*
X177982Y277495D01*
X177973Y277511D01*
X177968Y277528D01*
X177876Y277687D01*
X177787Y277848D01*
X177776Y277861D01*
X177767Y277877D01*
X177552Y278130D01*
X177267Y278415D01*
X176932Y278994D01*
X176759Y279640D01*
X176759Y282976D01*
X193332Y282976D01*
X193350Y282977D01*
X193367Y282976D01*
X193550Y282997D01*
X193732Y283016D01*
X193749Y283021D01*
X193767Y283023D01*
X193942Y283080D01*
X194117Y283134D01*
X194133Y283142D01*
X194150Y283148D01*
X194310Y283238D01*
X194471Y283325D01*
X194485Y283337D01*
X194501Y283346D01*
X194640Y283466D01*
X194781Y283583D01*
X194792Y283597D01*
X194805Y283609D01*
X194918Y283754D01*
X195033Y283897D01*
X195041Y283913D01*
X195052Y283927D01*
X195134Y284092D01*
X195218Y284254D01*
X195223Y284271D01*
X195231Y284287D01*
X195279Y284466D01*
X195330Y284641D01*
X195331Y284659D01*
X195336Y284676D01*
X195356Y284918D01*
X195486Y284934D01*
X195669Y284952D01*
X195686Y284957D01*
X195703Y284959D01*
X195878Y285016D01*
X196054Y285070D01*
X196069Y285078D01*
X196086Y285084D01*
X196246Y285174D01*
X196408Y285262D01*
X196421Y285273D01*
X196437Y285282D01*
X196576Y285402D01*
X196717Y285520D01*
X196728Y285533D01*
X196742Y285545D01*
X196854Y285690D01*
X196969Y285833D01*
X196977Y285849D01*
X196988Y285863D01*
X197070Y286028D01*
X197155Y286191D01*
X197160Y286208D01*
X197168Y286224D01*
X197215Y286402D01*
X197266Y286577D01*
X197268Y286595D01*
X197272Y286612D01*
X197299Y286943D01*
X197299Y294516D01*
X209635Y294516D01*
X210281Y294343D01*
X210860Y294008D01*
X211333Y293535D01*
X211668Y292956D01*
X211740Y292684D01*
X211795Y292539D01*
X211843Y292391D01*
X211866Y292351D01*
X211883Y292307D01*
X211965Y292176D01*
X212041Y292041D01*
X212072Y292005D01*
X212096Y291966D01*
X212203Y291853D01*
X212304Y291736D01*
X212341Y291707D01*
X212373Y291674D01*
X212500Y291584D01*
X212622Y291489D01*
X212664Y291468D01*
X212702Y291442D01*
X212844Y291379D01*
X212983Y291310D01*
X213028Y291298D01*
X213071Y291279D01*
X213222Y291246D01*
X213372Y291205D01*
X213424Y291201D01*
X213464Y291192D01*
X213550Y291191D01*
X213702Y291178D01*
X216451Y291178D01*
X216451Y283981D01*
X216452Y283963D01*
X216451Y283945D01*
X216472Y283763D01*
X216491Y283580D01*
X216496Y283563D01*
X216498Y283545D01*
X216555Y283371D01*
X216609Y283195D01*
X216617Y283179D01*
X216623Y283163D01*
X216713Y283002D01*
X216800Y282841D01*
X216812Y282827D01*
X216821Y282812D01*
X216941Y282673D01*
X217058Y282532D01*
X217072Y282521D01*
X217084Y282507D01*
X217229Y282395D01*
X217372Y282280D01*
X217388Y282271D01*
X217402Y282260D01*
X217567Y282178D01*
X217729Y282094D01*
X217746Y282089D01*
X217762Y282081D01*
X217941Y282033D01*
X218116Y281983D01*
X218134Y281981D01*
X218151Y281977D01*
X218482Y281949D01*
X219668Y281949D01*
X219686Y281951D01*
X219704Y281950D01*
X219886Y281971D01*
X220069Y281989D01*
X220086Y281995D01*
X220103Y281997D01*
X220278Y282054D01*
X220454Y282107D01*
X220469Y282116D01*
X220486Y282122D01*
X220646Y282212D01*
X220808Y282299D01*
X220821Y282311D01*
X220837Y282319D01*
X220976Y282440D01*
X221117Y282557D01*
X221128Y282571D01*
X221142Y282583D01*
X221254Y282728D01*
X221369Y282871D01*
X221377Y282887D01*
X221388Y282901D01*
X221470Y283066D01*
X221555Y283228D01*
X221560Y283245D01*
X221568Y283261D01*
X221615Y283439D01*
X221666Y283615D01*
X221668Y283633D01*
X221672Y283650D01*
X221699Y283981D01*
X221699Y291178D01*
X222662Y291178D01*
X222671Y291179D01*
X222680Y291178D01*
X222872Y291199D01*
X223063Y291218D01*
X223071Y291221D01*
X223081Y291222D01*
X223265Y291280D01*
X223448Y291336D01*
X223456Y291341D01*
X223464Y291343D01*
X223633Y291437D01*
X223802Y291528D01*
X223809Y291534D01*
X223817Y291538D01*
X223964Y291664D01*
X224111Y291786D01*
X224117Y291793D01*
X224124Y291799D01*
X224242Y291949D01*
X224363Y292100D01*
X224368Y292108D01*
X224373Y292115D01*
X224460Y292286D01*
X224549Y292457D01*
X224551Y292466D01*
X224556Y292474D01*
X224607Y292658D01*
X224660Y292844D01*
X224661Y292853D01*
X224663Y292862D01*
X224677Y293052D01*
X224693Y293245D01*
X224692Y293254D01*
X224693Y293263D01*
X224669Y293453D01*
X224646Y293645D01*
X224644Y293653D01*
X224642Y293663D01*
X224581Y293845D01*
X224521Y294028D01*
X224517Y294036D01*
X224514Y294044D01*
X224420Y294208D01*
X224324Y294378D01*
X224318Y294385D01*
X224313Y294393D01*
X224205Y294520D01*
X223845Y295144D01*
X223672Y295790D01*
X223672Y299126D01*
X230744Y299126D01*
X230762Y299127D01*
X230780Y299126D01*
X230962Y299147D01*
X231145Y299166D01*
X231162Y299171D01*
X231180Y299173D01*
X231354Y299230D01*
X231530Y299284D01*
X231546Y299292D01*
X231562Y299298D01*
X231723Y299388D01*
X231884Y299475D01*
X231898Y299487D01*
X231913Y299496D01*
X232052Y299616D01*
X232193Y299733D01*
X232204Y299747D01*
X232218Y299759D01*
X232330Y299904D01*
X232445Y300047D01*
X232454Y300063D01*
X232465Y300077D01*
X232547Y300242D01*
X232561Y300269D01*
X232659Y300324D01*
X232820Y300412D01*
X232834Y300423D01*
X232849Y300432D01*
X232989Y300552D01*
X233129Y300670D01*
X233141Y300683D01*
X233154Y300695D01*
X233267Y300840D01*
X233382Y300983D01*
X233390Y300999D01*
X233401Y301013D01*
X233483Y301178D01*
X233567Y301341D01*
X233572Y301358D01*
X233580Y301374D01*
X233628Y301552D01*
X233679Y301727D01*
X233680Y301745D01*
X233685Y301762D01*
X233712Y302093D01*
X233712Y309666D01*
X236547Y309666D01*
X237193Y309493D01*
X237972Y309043D01*
X238113Y308979D01*
X238251Y308909D01*
X238296Y308897D01*
X238338Y308877D01*
X238490Y308843D01*
X238639Y308801D01*
X238686Y308798D01*
X238731Y308787D01*
X238886Y308783D01*
X239041Y308772D01*
X239087Y308778D01*
X239133Y308776D01*
X239286Y308803D01*
X239440Y308822D01*
X239484Y308837D01*
X239530Y308845D01*
X239675Y308901D01*
X239822Y308950D01*
X239862Y308974D01*
X239905Y308990D01*
X240036Y309074D01*
X240171Y309151D01*
X240211Y309185D01*
X240245Y309207D01*
X240307Y309267D01*
X240424Y309366D01*
X241908Y310850D01*
X241919Y310854D01*
X242079Y310944D01*
X242240Y311032D01*
X242254Y311043D01*
X242269Y311052D01*
X242409Y311172D01*
X242549Y311289D01*
X242561Y311303D01*
X242574Y311315D01*
X242687Y311460D01*
X242802Y311603D01*
X242810Y311619D01*
X242821Y311633D01*
X242903Y311798D01*
X242987Y311960D01*
X242992Y311977D01*
X243000Y311993D01*
X243048Y312172D01*
X243099Y312347D01*
X243100Y312365D01*
X243105Y312382D01*
X243132Y312713D01*
X243132Y315898D01*
X243905Y317765D01*
X245620Y319480D01*
X251732Y325592D01*
X251839Y325722D01*
X251949Y325849D01*
X251966Y325878D01*
X251987Y325904D01*
X252066Y326052D01*
X252150Y326198D01*
X252160Y326230D01*
X252176Y326259D01*
X252224Y326421D01*
X252277Y326580D01*
X252281Y326613D01*
X252291Y326645D01*
X252306Y326813D01*
X252326Y326980D01*
X252324Y327013D01*
X252327Y327046D01*
X252309Y327214D01*
X252296Y327381D01*
X252287Y327413D01*
X252284Y327447D01*
X252233Y327607D01*
X252187Y327769D01*
X252172Y327799D01*
X252162Y327830D01*
X252081Y327977D01*
X252004Y328128D01*
X251983Y328154D01*
X251967Y328183D01*
X251859Y328311D01*
X251754Y328443D01*
X251728Y328464D01*
X251707Y328490D01*
X251575Y328594D01*
X251446Y328703D01*
X251417Y328719D01*
X251391Y328739D01*
X251241Y328816D01*
X251093Y328897D01*
X251062Y328907D01*
X251032Y328922D01*
X250870Y328967D01*
X250709Y329017D01*
X250676Y329021D01*
X250644Y329030D01*
X250476Y329042D01*
X250309Y329060D01*
X250272Y329057D01*
X250242Y329059D01*
X250157Y329048D01*
X250149Y329048D01*
X250149Y339257D01*
X250147Y339275D01*
X250149Y339292D01*
X250128Y339475D01*
X250109Y339657D01*
X250104Y339674D01*
X250102Y339692D01*
X250045Y339866D01*
X249991Y340042D01*
X249983Y340058D01*
X249977Y340075D01*
X249887Y340235D01*
X249799Y340396D01*
X249788Y340410D01*
X249779Y340426D01*
X249659Y340565D01*
X249542Y340706D01*
X249528Y340717D01*
X249516Y340730D01*
X249371Y340843D01*
X249228Y340958D01*
X249212Y340966D01*
X249198Y340977D01*
X249033Y341059D01*
X249006Y341073D01*
X248951Y341171D01*
X248863Y341333D01*
X248852Y341346D01*
X248843Y341362D01*
X248723Y341501D01*
X248605Y341642D01*
X248592Y341653D01*
X248580Y341667D01*
X248435Y341779D01*
X248292Y341894D01*
X248276Y341902D01*
X248262Y341913D01*
X248097Y341995D01*
X247934Y342080D01*
X247917Y342085D01*
X247901Y342093D01*
X247723Y342140D01*
X247548Y342191D01*
X247530Y342193D01*
X247513Y342197D01*
X247182Y342224D01*
X236987Y342224D01*
X236996Y342283D01*
X237528Y343918D01*
X238308Y345450D01*
X239319Y346841D01*
X240534Y348056D01*
X241925Y349067D01*
X243457Y349848D01*
X243757Y349945D01*
X243838Y349981D01*
X243923Y350007D01*
X244022Y350061D01*
X244125Y350107D01*
X244198Y350158D01*
X244276Y350200D01*
X244362Y350273D01*
X244455Y350338D01*
X244516Y350402D01*
X244584Y350459D01*
X244655Y350548D01*
X244732Y350630D01*
X244780Y350705D01*
X244835Y350774D01*
X244887Y350875D01*
X244947Y350970D01*
X244978Y351053D01*
X245019Y351132D01*
X245050Y351241D01*
X245090Y351347D01*
X245104Y351434D01*
X245129Y351520D01*
X245137Y351632D01*
X245156Y351744D01*
X245153Y351833D01*
X245160Y351921D01*
X245146Y352033D01*
X245142Y352146D01*
X245122Y352233D01*
X245111Y352321D01*
X245076Y352428D01*
X245050Y352538D01*
X245013Y352619D01*
X244985Y352703D01*
X244929Y352801D01*
X244881Y352904D01*
X244829Y352976D01*
X244785Y353053D01*
X244711Y353138D01*
X244644Y353229D01*
X244579Y353289D01*
X244521Y353356D01*
X244431Y353425D01*
X244348Y353502D01*
X244272Y353548D01*
X244201Y353602D01*
X244076Y353666D01*
X244003Y353710D01*
X243960Y353726D01*
X243906Y353753D01*
X240887Y355004D01*
X237529Y358362D01*
X235711Y362750D01*
X235711Y367500D01*
X237529Y371888D01*
X240887Y375246D01*
X242583Y375948D01*
X242590Y375953D01*
X242599Y375955D01*
X242768Y376048D01*
X242937Y376139D01*
X242944Y376144D01*
X242952Y376148D01*
X243100Y376273D01*
X243248Y376395D01*
X243253Y376402D01*
X243260Y376408D01*
X243381Y376559D01*
X243501Y376708D01*
X243506Y376715D01*
X243511Y376722D01*
X243600Y376895D01*
X243689Y377064D01*
X243691Y377073D01*
X243695Y377081D01*
X243748Y377266D01*
X243802Y377451D01*
X243802Y377459D01*
X243805Y377468D01*
X243820Y377659D01*
X243836Y377852D01*
X243835Y377861D01*
X243836Y377869D01*
X243813Y378062D01*
X243791Y378252D01*
X243788Y378260D01*
X243787Y378269D01*
X243726Y378454D01*
X243668Y378635D01*
X243664Y378643D01*
X243661Y378651D01*
X243565Y378819D01*
X243472Y378987D01*
X243466Y378993D01*
X243461Y379001D01*
X243336Y379145D01*
X243210Y379292D01*
X243203Y379298D01*
X243197Y379305D01*
X243046Y379421D01*
X242893Y379541D01*
X242885Y379545D01*
X242878Y379550D01*
X242583Y379702D01*
X240887Y380404D01*
X237529Y383762D01*
X235711Y388150D01*
X235711Y392900D01*
X237529Y397288D01*
X240887Y400646D01*
X245275Y402464D01*
X250025Y402464D01*
X254413Y400646D01*
X257771Y397288D01*
X258473Y395592D01*
X258478Y395585D01*
X258480Y395576D01*
X258572Y395408D01*
X258664Y395238D01*
X258669Y395231D01*
X258674Y395223D01*
X258796Y395077D01*
X258920Y394927D01*
X258927Y394922D01*
X258933Y394915D01*
X259082Y394796D01*
X259233Y394673D01*
X259241Y394669D01*
X259248Y394664D01*
X259416Y394577D01*
X259589Y394486D01*
X259598Y394484D01*
X259606Y394480D01*
X259789Y394428D01*
X259976Y394373D01*
X259985Y394373D01*
X259993Y394370D01*
X260184Y394355D01*
X260377Y394339D01*
X260386Y394340D01*
X260394Y394339D01*
X260585Y394362D01*
X260777Y394384D01*
X260785Y394387D01*
X260794Y394388D01*
X260975Y394447D01*
X261160Y394507D01*
X261168Y394511D01*
X261176Y394514D01*
X261343Y394609D01*
X261512Y394703D01*
X261518Y394709D01*
X261526Y394714D01*
X261672Y394841D01*
X261817Y394965D01*
X261823Y394972D01*
X261830Y394978D01*
X261946Y395130D01*
X262066Y395282D01*
X262070Y395290D01*
X262075Y395297D01*
X262227Y395592D01*
X262929Y397288D01*
X266287Y400646D01*
X270675Y402464D01*
X275425Y402464D01*
X279813Y400646D01*
X283171Y397288D01*
X284989Y392900D01*
X284989Y388150D01*
X283139Y383684D01*
X283091Y383626D01*
X283083Y383610D01*
X283071Y383596D01*
X282988Y383432D01*
X282902Y383270D01*
X282897Y383253D01*
X282889Y383237D01*
X282840Y383060D01*
X282787Y382884D01*
X282786Y382866D01*
X282781Y382849D01*
X282768Y382666D01*
X282751Y382483D01*
X282753Y382465D01*
X282752Y382447D01*
X282775Y382265D01*
X282794Y382083D01*
X282800Y382066D01*
X282802Y382048D01*
X282861Y381873D01*
X282916Y381699D01*
X282925Y381683D01*
X282930Y381666D01*
X283022Y381507D01*
X283111Y381347D01*
X283122Y381333D01*
X283131Y381317D01*
X283346Y381064D01*
X293232Y371178D01*
X294006Y369311D01*
X294006Y363308D01*
X294008Y363282D01*
X294006Y363255D01*
X294028Y363081D01*
X294046Y362908D01*
X294053Y362882D01*
X294057Y362856D01*
X294112Y362690D01*
X294164Y362523D01*
X294177Y362499D01*
X294185Y362474D01*
X294272Y362323D01*
X294356Y362169D01*
X294373Y362148D01*
X294386Y362125D01*
X294601Y361872D01*
X302355Y354118D01*
X304070Y352403D01*
X304843Y350536D01*
X304843Y323363D01*
X304858Y323217D01*
X304864Y323071D01*
X304878Y323017D01*
X304883Y322962D01*
X304926Y322823D01*
X304961Y322680D01*
X304985Y322630D01*
X305001Y322577D01*
X305071Y322449D01*
X305133Y322316D01*
X305167Y322272D01*
X305193Y322223D01*
X305287Y322111D01*
X305374Y321994D01*
X305415Y321956D01*
X305451Y321914D01*
X305565Y321822D01*
X305674Y321724D01*
X305721Y321696D01*
X305765Y321662D01*
X305894Y321594D01*
X306020Y321520D01*
X306073Y321501D01*
X306122Y321476D01*
X306262Y321436D01*
X306401Y321387D01*
X306456Y321380D01*
X306509Y321365D01*
X306654Y321353D01*
X306799Y321333D01*
X306855Y321336D01*
X306910Y321332D01*
X307055Y321349D01*
X307201Y321358D01*
X307255Y321372D01*
X307310Y321379D01*
X307449Y321424D01*
X307590Y321462D01*
X307647Y321489D01*
X307693Y321503D01*
X307766Y321545D01*
X307890Y321604D01*
X308044Y321693D01*
X308690Y321866D01*
X313526Y321866D01*
X313526Y314793D01*
X313527Y314775D01*
X313526Y314758D01*
X313547Y314575D01*
X313566Y314393D01*
X313571Y314376D01*
X313573Y314358D01*
X313586Y314317D01*
X313559Y314223D01*
X313557Y314205D01*
X313553Y314188D01*
X313526Y313857D01*
X313526Y306784D01*
X308690Y306784D01*
X308044Y306957D01*
X307890Y307046D01*
X307757Y307107D01*
X307627Y307174D01*
X307574Y307189D01*
X307523Y307212D01*
X307381Y307245D01*
X307240Y307285D01*
X307185Y307290D01*
X307131Y307302D01*
X306985Y307306D01*
X306839Y307318D01*
X306784Y307312D01*
X306728Y307313D01*
X306584Y307288D01*
X306439Y307271D01*
X306386Y307254D01*
X306332Y307245D01*
X306195Y307192D01*
X306056Y307147D01*
X306008Y307119D01*
X305956Y307099D01*
X305833Y307020D01*
X305706Y306949D01*
X305664Y306912D01*
X305617Y306883D01*
X305512Y306781D01*
X305401Y306685D01*
X305367Y306642D01*
X305327Y306603D01*
X305244Y306483D01*
X305154Y306367D01*
X305130Y306318D01*
X305098Y306272D01*
X305040Y306138D01*
X304975Y306007D01*
X304960Y305953D01*
X304939Y305902D01*
X304908Y305759D01*
X304870Y305618D01*
X304865Y305555D01*
X304855Y305508D01*
X304854Y305425D01*
X304843Y305287D01*
X304843Y295108D01*
X304846Y295082D01*
X304844Y295055D01*
X304866Y294881D01*
X304883Y294708D01*
X304891Y294682D01*
X304894Y294656D01*
X304950Y294490D01*
X305001Y294323D01*
X305014Y294299D01*
X305023Y294274D01*
X305110Y294122D01*
X305193Y293969D01*
X305210Y293948D01*
X305223Y293925D01*
X305438Y293672D01*
X306159Y292952D01*
X306179Y292935D01*
X306197Y292914D01*
X306335Y292807D01*
X306470Y292697D01*
X306494Y292684D01*
X306515Y292668D01*
X306672Y292590D01*
X306826Y292508D01*
X306851Y292500D01*
X306875Y292488D01*
X307045Y292443D01*
X307212Y292393D01*
X307238Y292391D01*
X307264Y292384D01*
X307595Y292357D01*
X318848Y292357D01*
X320932Y290273D01*
X320932Y271827D01*
X318848Y269743D01*
X302902Y269743D01*
X300818Y271827D01*
X300818Y283080D01*
X300816Y283107D01*
X300818Y283133D01*
X300796Y283307D01*
X300778Y283481D01*
X300771Y283506D01*
X300767Y283533D01*
X300712Y283699D01*
X300660Y283866D01*
X300647Y283889D01*
X300639Y283915D01*
X300552Y284066D01*
X300468Y284220D01*
X300451Y284240D01*
X300438Y284263D01*
X300223Y284516D01*
X297170Y287570D01*
X295455Y289285D01*
X294682Y291152D01*
X294682Y291553D01*
X294680Y291571D01*
X294681Y291589D01*
X294660Y291771D01*
X294642Y291954D01*
X294637Y291971D01*
X294635Y291988D01*
X294578Y292163D01*
X294524Y292339D01*
X294515Y292354D01*
X294510Y292371D01*
X294419Y292531D01*
X294332Y292693D01*
X294321Y292706D01*
X294312Y292722D01*
X294192Y292861D01*
X294074Y293002D01*
X294060Y293013D01*
X294049Y293027D01*
X293904Y293139D01*
X293760Y293254D01*
X293745Y293262D01*
X293731Y293273D01*
X293566Y293355D01*
X293403Y293440D01*
X293386Y293445D01*
X293370Y293453D01*
X293192Y293500D01*
X293016Y293551D01*
X292998Y293553D01*
X292981Y293557D01*
X292651Y293584D01*
X291987Y293584D01*
X291987Y301157D01*
X291985Y301175D01*
X291986Y301192D01*
X291965Y301374D01*
X291947Y301557D01*
X291942Y301574D01*
X291940Y301592D01*
X291883Y301767D01*
X291829Y301942D01*
X291820Y301958D01*
X291815Y301975D01*
X291724Y302135D01*
X291637Y302296D01*
X291626Y302310D01*
X291617Y302326D01*
X291497Y302465D01*
X291379Y302606D01*
X291365Y302617D01*
X291354Y302630D01*
X291209Y302743D01*
X291065Y302858D01*
X291050Y302866D01*
X291036Y302877D01*
X290871Y302959D01*
X290708Y303043D01*
X290691Y303048D01*
X290675Y303056D01*
X290497Y303104D01*
X290321Y303155D01*
X290303Y303156D01*
X290286Y303161D01*
X289956Y303188D01*
X289019Y303188D01*
X289002Y303186D01*
X288984Y303188D01*
X288802Y303166D01*
X288619Y303148D01*
X288602Y303143D01*
X288584Y303141D01*
X288409Y303084D01*
X288234Y303030D01*
X288218Y303022D01*
X288201Y303016D01*
X288041Y302926D01*
X287880Y302838D01*
X287866Y302827D01*
X287851Y302818D01*
X287711Y302698D01*
X287571Y302580D01*
X287559Y302567D01*
X287546Y302555D01*
X287433Y302410D01*
X287318Y302267D01*
X287310Y302251D01*
X287299Y302237D01*
X287217Y302072D01*
X287133Y301909D01*
X287128Y301892D01*
X287120Y301876D01*
X287072Y301698D01*
X287021Y301523D01*
X287020Y301505D01*
X287015Y301488D01*
X286988Y301157D01*
X286988Y293584D01*
X284153Y293584D01*
X283507Y293757D01*
X282728Y294207D01*
X282587Y294271D01*
X282449Y294341D01*
X282404Y294353D01*
X282362Y294373D01*
X282210Y294407D01*
X282061Y294449D01*
X282014Y294452D01*
X281969Y294463D01*
X281814Y294467D01*
X281659Y294478D01*
X281613Y294472D01*
X281567Y294474D01*
X281414Y294447D01*
X281260Y294428D01*
X281216Y294413D01*
X281170Y294405D01*
X281025Y294349D01*
X280878Y294300D01*
X280838Y294276D01*
X280795Y294260D01*
X280664Y294176D01*
X280601Y294140D01*
X280564Y294120D01*
X280559Y294116D01*
X280529Y294099D01*
X280489Y294065D01*
X280455Y294043D01*
X280393Y293983D01*
X280276Y293884D01*
X279775Y293383D01*
X279764Y293369D01*
X279750Y293357D01*
X279636Y293213D01*
X279520Y293071D01*
X279512Y293055D01*
X279501Y293041D01*
X279417Y292878D01*
X279331Y292715D01*
X279326Y292698D01*
X279318Y292682D01*
X279269Y292505D01*
X279217Y292329D01*
X279215Y292312D01*
X279210Y292294D01*
X279197Y292110D01*
X279180Y291928D01*
X279182Y291911D01*
X279181Y291893D01*
X279204Y291710D01*
X279224Y291528D01*
X279229Y291511D01*
X279231Y291493D01*
X279290Y291320D01*
X279345Y291144D01*
X279354Y291129D01*
X279359Y291112D01*
X279451Y290953D01*
X279540Y290792D01*
X279552Y290778D01*
X279560Y290763D01*
X279607Y290708D01*
X279607Y264872D01*
X279234Y264499D01*
X279217Y264478D01*
X279196Y264461D01*
X279090Y264323D01*
X278979Y264187D01*
X278966Y264163D01*
X278950Y264142D01*
X278872Y263986D01*
X278790Y263832D01*
X278782Y263806D01*
X278770Y263782D01*
X278725Y263613D01*
X278675Y263446D01*
X278673Y263419D01*
X278666Y263393D01*
X278639Y263062D01*
X278639Y262413D01*
X277788Y260359D01*
X258260Y240831D01*
X258254Y240824D01*
X258247Y240819D01*
X258127Y240669D01*
X258005Y240520D01*
X258001Y240512D01*
X257995Y240505D01*
X257906Y240334D01*
X257816Y240164D01*
X257814Y240156D01*
X257810Y240148D01*
X257756Y239962D01*
X257701Y239778D01*
X257701Y239769D01*
X257698Y239761D01*
X257683Y239569D01*
X257665Y239377D01*
X257666Y239368D01*
X257665Y239359D01*
X257688Y239170D01*
X257708Y238977D01*
X257711Y238968D01*
X257712Y238960D01*
X257772Y238778D01*
X257830Y238593D01*
X257834Y238585D01*
X257837Y238577D01*
X257932Y238408D01*
X258025Y238241D01*
X258031Y238234D01*
X258035Y238226D01*
X258161Y238080D01*
X258285Y237934D01*
X258292Y237928D01*
X258298Y237921D01*
X258450Y237804D01*
X258601Y237684D01*
X258609Y237680D01*
X258616Y237675D01*
X258788Y237589D01*
X258960Y237502D01*
X258969Y237499D01*
X258977Y237495D01*
X259163Y237445D01*
X259348Y237394D01*
X259357Y237393D01*
X259366Y237391D01*
X259696Y237364D01*
X281762Y237364D01*
X283816Y236513D01*
X300013Y220316D01*
X300864Y218262D01*
X300864Y214888D01*
X300866Y214870D01*
X300864Y214852D01*
X300885Y214670D01*
X300904Y214487D01*
X300909Y214470D01*
X300911Y214453D01*
X300968Y214278D01*
X301022Y214102D01*
X301030Y214087D01*
X301036Y214070D01*
X301126Y213910D01*
X301214Y213748D01*
X301225Y213735D01*
X301234Y213719D01*
X301354Y213580D01*
X301471Y213439D01*
X301485Y213428D01*
X301497Y213414D01*
X301642Y213302D01*
X301785Y213187D01*
X301801Y213179D01*
X301815Y213168D01*
X301980Y213086D01*
X302142Y213001D01*
X302159Y212996D01*
X302175Y212988D01*
X302354Y212941D01*
X302529Y212890D01*
X302547Y212888D01*
X302564Y212884D01*
X302895Y212857D01*
X318848Y212857D01*
X320998Y210707D01*
X321036Y210591D01*
X321090Y210415D01*
X321098Y210399D01*
X321104Y210382D01*
X321194Y210222D01*
X321282Y210061D01*
X321293Y210047D01*
X321302Y210032D01*
X321422Y209892D01*
X321539Y209752D01*
X321553Y209740D01*
X321565Y209727D01*
X321710Y209614D01*
X321853Y209499D01*
X321869Y209491D01*
X321883Y209480D01*
X322048Y209398D01*
X322210Y209314D01*
X322227Y209309D01*
X322243Y209301D01*
X322422Y209253D01*
X322597Y209202D01*
X322615Y209201D01*
X322632Y209196D01*
X322963Y209169D01*
X331348Y209169D01*
X331939Y208579D01*
X331952Y208568D01*
X331964Y208554D01*
X332108Y208440D01*
X332250Y208324D01*
X332266Y208315D01*
X332280Y208304D01*
X332444Y208221D01*
X332606Y208135D01*
X332623Y208130D01*
X332639Y208122D01*
X332816Y208073D01*
X332992Y208020D01*
X333010Y208019D01*
X333027Y208014D01*
X333210Y208001D01*
X333393Y207984D01*
X333411Y207986D01*
X333428Y207985D01*
X333610Y208008D01*
X333793Y208027D01*
X333810Y208033D01*
X333828Y208035D01*
X334001Y208093D01*
X334177Y208149D01*
X334193Y208158D01*
X334209Y208163D01*
X334368Y208255D01*
X334529Y208344D01*
X334543Y208355D01*
X334558Y208364D01*
X334811Y208579D01*
X335402Y209169D01*
X343787Y209169D01*
X343805Y209171D01*
X343823Y209170D01*
X344005Y209191D01*
X344188Y209209D01*
X344205Y209214D01*
X344222Y209216D01*
X344397Y209273D01*
X344573Y209327D01*
X344588Y209336D01*
X344605Y209341D01*
X344765Y209432D01*
X344927Y209519D01*
X344940Y209530D01*
X344956Y209539D01*
X345095Y209659D01*
X345236Y209777D01*
X345247Y209791D01*
X345261Y209802D01*
X345373Y209947D01*
X345488Y210091D01*
X345496Y210106D01*
X345507Y210120D01*
X345589Y210285D01*
X345674Y210448D01*
X345679Y210465D01*
X345687Y210481D01*
X345734Y210659D01*
X345747Y210702D01*
X348156Y213111D01*
X348166Y213117D01*
X348332Y213207D01*
X348342Y213215D01*
X348354Y213222D01*
X348497Y213344D01*
X348641Y213464D01*
X348650Y213475D01*
X348660Y213483D01*
X348776Y213632D01*
X348894Y213778D01*
X348900Y213790D01*
X348908Y213800D01*
X348993Y213969D01*
X349079Y214135D01*
X349083Y214148D01*
X349089Y214160D01*
X349139Y214342D01*
X349190Y214522D01*
X349192Y214536D01*
X349195Y214549D01*
X349208Y214735D01*
X349223Y214924D01*
X349222Y214937D01*
X349223Y214950D01*
X349198Y215136D01*
X349176Y215323D01*
X349172Y215336D01*
X349170Y215349D01*
X349069Y215665D01*
X348261Y217615D01*
X348261Y220535D01*
X349379Y223232D01*
X351443Y225296D01*
X354140Y226414D01*
X357060Y226414D01*
X359757Y225296D01*
X361821Y223232D01*
X362939Y220535D01*
X362939Y217615D01*
X362131Y215665D01*
X362127Y215652D01*
X362121Y215641D01*
X362069Y215460D01*
X362015Y215280D01*
X362013Y215267D01*
X362010Y215254D01*
X361994Y215065D01*
X361976Y214879D01*
X361978Y214866D01*
X361977Y214852D01*
X361999Y214666D01*
X362018Y214479D01*
X362022Y214466D01*
X362024Y214453D01*
X362082Y214275D01*
X362138Y214094D01*
X362144Y214083D01*
X362148Y214070D01*
X362241Y213906D01*
X362331Y213741D01*
X362340Y213731D01*
X362346Y213719D01*
X362469Y213577D01*
X362590Y213433D01*
X362601Y213425D01*
X362610Y213414D01*
X362758Y213300D01*
X362905Y213182D01*
X362917Y213176D01*
X362928Y213168D01*
X363095Y213084D01*
X363263Y212998D01*
X363276Y212994D01*
X363288Y212988D01*
X363471Y212939D01*
X363651Y212888D01*
X363664Y212887D01*
X363677Y212884D01*
X363834Y212871D01*
X365932Y210773D01*
X365932Y192327D01*
X363848Y190243D01*
X352463Y190243D01*
X352445Y190241D01*
X352427Y190243D01*
X352245Y190222D01*
X352062Y190203D01*
X352045Y190198D01*
X352028Y190196D01*
X351853Y190139D01*
X351677Y190085D01*
X351662Y190077D01*
X351645Y190071D01*
X351485Y189981D01*
X351323Y189893D01*
X351310Y189882D01*
X351294Y189873D01*
X351155Y189753D01*
X351014Y189636D01*
X351003Y189622D01*
X350989Y189610D01*
X350877Y189465D01*
X350762Y189322D01*
X350754Y189306D01*
X350743Y189292D01*
X350661Y189127D01*
X350576Y188965D01*
X350571Y188948D01*
X350563Y188932D01*
X350516Y188753D01*
X350465Y188578D01*
X350463Y188560D01*
X350459Y188543D01*
X350432Y188212D01*
X350432Y178764D01*
X348348Y176681D01*
X335402Y176681D01*
X334086Y177997D01*
X333966Y178095D01*
X333851Y178198D01*
X333811Y178222D01*
X333775Y178252D01*
X333638Y178324D01*
X333504Y178403D01*
X333460Y178418D01*
X333419Y178440D01*
X333270Y178484D01*
X333124Y178535D01*
X333078Y178542D01*
X333033Y178555D01*
X332878Y178569D01*
X332725Y178590D01*
X332678Y178587D01*
X332632Y178591D01*
X332478Y178575D01*
X332323Y178565D01*
X332278Y178553D01*
X332232Y178548D01*
X332084Y178501D01*
X331934Y178461D01*
X331887Y178439D01*
X331848Y178426D01*
X331772Y178385D01*
X331634Y178319D01*
X330856Y177870D01*
X330210Y177697D01*
X327374Y177697D01*
X327374Y185269D01*
X327372Y185287D01*
X327374Y185305D01*
X327353Y185487D01*
X327334Y185670D01*
X327329Y185687D01*
X327327Y185705D01*
X327270Y185879D01*
X327216Y186055D01*
X327208Y186071D01*
X327202Y186087D01*
X327112Y186248D01*
X327024Y186409D01*
X327013Y186423D01*
X327004Y186438D01*
X326884Y186577D01*
X326767Y186718D01*
X326753Y186729D01*
X326741Y186743D01*
X326596Y186855D01*
X326453Y186970D01*
X326437Y186979D01*
X326423Y186990D01*
X326258Y187072D01*
X326231Y187086D01*
X326176Y187184D01*
X326088Y187345D01*
X326077Y187359D01*
X326068Y187374D01*
X325948Y187514D01*
X325830Y187654D01*
X325817Y187666D01*
X325805Y187679D01*
X325660Y187792D01*
X325517Y187907D01*
X325501Y187915D01*
X325487Y187926D01*
X325322Y188008D01*
X325159Y188092D01*
X325142Y188097D01*
X325126Y188105D01*
X324948Y188153D01*
X324773Y188204D01*
X324755Y188205D01*
X324738Y188210D01*
X324407Y188237D01*
X317333Y188237D01*
X317334Y188248D01*
X317313Y188430D01*
X317294Y188613D01*
X317289Y188630D01*
X317287Y188647D01*
X317230Y188822D01*
X317176Y188998D01*
X317168Y189013D01*
X317162Y189030D01*
X317072Y189190D01*
X316984Y189352D01*
X316973Y189365D01*
X316964Y189381D01*
X316844Y189520D01*
X316727Y189661D01*
X316713Y189672D01*
X316701Y189686D01*
X316556Y189798D01*
X316413Y189913D01*
X316397Y189921D01*
X316383Y189932D01*
X316218Y190014D01*
X316056Y190099D01*
X316039Y190104D01*
X316023Y190112D01*
X315844Y190159D01*
X315669Y190210D01*
X315651Y190212D01*
X315634Y190216D01*
X315303Y190243D01*
X304008Y190243D01*
X303917Y190234D01*
X303826Y190235D01*
X303717Y190214D01*
X303607Y190203D01*
X303520Y190177D01*
X303430Y190160D01*
X303328Y190118D01*
X303222Y190085D01*
X303142Y190042D01*
X303058Y190007D01*
X302965Y189946D01*
X302868Y189893D01*
X302798Y189835D01*
X302722Y189785D01*
X302644Y189706D01*
X302559Y189636D01*
X302502Y189565D01*
X302437Y189500D01*
X302359Y189387D01*
X302306Y189322D01*
X302284Y189280D01*
X302248Y189228D01*
X301808Y188465D01*
X301335Y187992D01*
X300756Y187657D01*
X300110Y187484D01*
X297306Y187484D01*
X297306Y193525D01*
X297305Y193542D01*
X297306Y193560D01*
X297285Y193743D01*
X297266Y193925D01*
X297261Y193942D01*
X297259Y193960D01*
X297202Y194135D01*
X297148Y194310D01*
X297140Y194326D01*
X297134Y194343D01*
X297044Y194503D01*
X296957Y194664D01*
X296945Y194678D01*
X296936Y194693D01*
X296816Y194833D01*
X296699Y194973D01*
X296699Y194974D01*
X296698Y194974D01*
X296685Y194985D01*
X296673Y194998D01*
X296673Y194999D01*
X296528Y195111D01*
X296385Y195226D01*
X296369Y195235D01*
X296355Y195245D01*
X296190Y195327D01*
X296027Y195412D01*
X296010Y195417D01*
X295994Y195425D01*
X295816Y195473D01*
X295640Y195523D01*
X295623Y195525D01*
X295605Y195529D01*
X295275Y195556D01*
X288234Y195556D01*
X288234Y197360D01*
X288407Y198006D01*
X288491Y198150D01*
X288555Y198292D01*
X288625Y198430D01*
X288637Y198474D01*
X288657Y198517D01*
X288691Y198668D01*
X288733Y198818D01*
X288736Y198864D01*
X288747Y198909D01*
X288751Y199064D01*
X288762Y199219D01*
X288756Y199265D01*
X288758Y199312D01*
X288731Y199465D01*
X288712Y199619D01*
X288697Y199663D01*
X288689Y199709D01*
X288633Y199853D01*
X288584Y200000D01*
X288560Y200041D01*
X288544Y200084D01*
X288460Y200215D01*
X288383Y200349D01*
X288349Y200389D01*
X288327Y200423D01*
X288267Y200486D01*
X288168Y200602D01*
X287218Y201552D01*
X287218Y201768D01*
X287216Y201785D01*
X287218Y201803D01*
X287197Y201985D01*
X287178Y202168D01*
X287173Y202185D01*
X287171Y202203D01*
X287114Y202377D01*
X287060Y202553D01*
X287052Y202569D01*
X287046Y202586D01*
X286956Y202746D01*
X286868Y202907D01*
X286857Y202921D01*
X286848Y202936D01*
X286728Y203076D01*
X286611Y203216D01*
X286597Y203228D01*
X286585Y203241D01*
X286440Y203354D01*
X286297Y203469D01*
X286281Y203477D01*
X286267Y203488D01*
X286102Y203570D01*
X285940Y203654D01*
X285923Y203659D01*
X285907Y203667D01*
X285728Y203715D01*
X285553Y203766D01*
X285535Y203767D01*
X285518Y203772D01*
X285187Y203799D01*
X282703Y203799D01*
X282415Y203918D01*
X282403Y203922D01*
X282391Y203928D01*
X282209Y203980D01*
X282030Y204034D01*
X282017Y204036D01*
X282004Y204039D01*
X281815Y204055D01*
X281629Y204072D01*
X281616Y204071D01*
X281602Y204072D01*
X281416Y204050D01*
X281229Y204031D01*
X281216Y204027D01*
X281203Y204025D01*
X281024Y203967D01*
X280844Y203911D01*
X280833Y203905D01*
X280820Y203900D01*
X280656Y203808D01*
X280491Y203718D01*
X280481Y203709D01*
X280469Y203702D01*
X280327Y203580D01*
X280183Y203459D01*
X280175Y203448D01*
X280164Y203439D01*
X280050Y203291D01*
X279932Y203144D01*
X279926Y203132D01*
X279918Y203121D01*
X279834Y202953D01*
X279748Y202786D01*
X279744Y202773D01*
X279738Y202761D01*
X279689Y202579D01*
X279638Y202398D01*
X279637Y202385D01*
X279634Y202372D01*
X279607Y202041D01*
X279607Y198272D01*
X277523Y196188D01*
X273819Y196188D01*
X273810Y196187D01*
X273801Y196188D01*
X273609Y196167D01*
X273419Y196148D01*
X273410Y196146D01*
X273401Y196145D01*
X273219Y196087D01*
X273034Y196030D01*
X273026Y196026D01*
X273017Y196023D01*
X272849Y195930D01*
X272680Y195838D01*
X272673Y195833D01*
X272665Y195828D01*
X272517Y195703D01*
X272370Y195581D01*
X272365Y195574D01*
X272358Y195568D01*
X272237Y195414D01*
X272118Y195267D01*
X272114Y195259D01*
X272108Y195252D01*
X272021Y195079D01*
X271933Y194910D01*
X271930Y194901D01*
X271926Y194893D01*
X271874Y194708D01*
X271821Y194523D01*
X271820Y194514D01*
X271818Y194505D01*
X271804Y194313D01*
X271788Y194121D01*
X271789Y194113D01*
X271789Y194104D01*
X271813Y193912D01*
X271835Y193722D01*
X271838Y193713D01*
X271839Y193704D01*
X271900Y193522D01*
X271960Y193339D01*
X271964Y193331D01*
X271967Y193323D01*
X272064Y193155D01*
X272158Y192988D01*
X272164Y192981D01*
X272168Y192974D01*
X272383Y192721D01*
X273025Y192078D01*
X273876Y190024D01*
X273876Y179185D01*
X273879Y179159D01*
X273877Y179132D01*
X273899Y178958D01*
X273916Y178785D01*
X273924Y178759D01*
X273927Y178732D01*
X273983Y178567D01*
X274034Y178400D01*
X274047Y178376D01*
X274056Y178351D01*
X274143Y178199D01*
X274226Y178046D01*
X274243Y178025D01*
X274256Y178002D01*
X274471Y177749D01*
X281866Y170354D01*
X281878Y170318D01*
X281930Y170151D01*
X281942Y170127D01*
X281951Y170102D01*
X282038Y169950D01*
X282121Y169797D01*
X282138Y169776D01*
X282152Y169753D01*
X282367Y169500D01*
X291912Y159954D01*
X291912Y157008D01*
X282404Y147500D01*
X281569Y147500D01*
X281551Y147498D01*
X281533Y147499D01*
X281351Y147478D01*
X281168Y147460D01*
X281151Y147455D01*
X281134Y147453D01*
X280959Y147396D01*
X280783Y147342D01*
X280768Y147333D01*
X280751Y147328D01*
X280591Y147237D01*
X280429Y147150D01*
X280416Y147139D01*
X280400Y147130D01*
X280261Y147010D01*
X280120Y146892D01*
X280109Y146878D01*
X280095Y146867D01*
X279983Y146722D01*
X279868Y146578D01*
X279860Y146563D01*
X279849Y146549D01*
X279767Y146384D01*
X279682Y146221D01*
X279677Y146204D01*
X279669Y146188D01*
X279621Y146010D01*
X279571Y145834D01*
X279569Y145816D01*
X279565Y145799D01*
X279538Y145469D01*
X279538Y144633D01*
X270030Y135125D01*
X267483Y135125D01*
X267461Y135123D01*
X267439Y135125D01*
X267262Y135103D01*
X267083Y135086D01*
X267061Y135079D01*
X267039Y135076D01*
X266870Y135020D01*
X266698Y134967D01*
X266678Y134957D01*
X266657Y134950D01*
X266502Y134861D01*
X266344Y134776D01*
X266327Y134761D01*
X266307Y134750D01*
X266172Y134632D01*
X266035Y134518D01*
X266021Y134501D01*
X266004Y134486D01*
X265894Y134344D01*
X265782Y134204D01*
X265772Y134184D01*
X265758Y134167D01*
X265607Y133871D01*
X264984Y132368D01*
X262920Y130304D01*
X260222Y129186D01*
X257303Y129186D01*
X254605Y130304D01*
X252541Y132368D01*
X251424Y135065D01*
X251424Y135119D01*
X251421Y135145D01*
X251423Y135172D01*
X251401Y135346D01*
X251384Y135519D01*
X251376Y135545D01*
X251373Y135571D01*
X251317Y135737D01*
X251266Y135904D01*
X251253Y135928D01*
X251244Y135953D01*
X251157Y136104D01*
X251074Y136258D01*
X251057Y136279D01*
X251044Y136302D01*
X250829Y136555D01*
X250405Y136979D01*
X250391Y136990D01*
X250380Y137004D01*
X250236Y137117D01*
X250094Y137234D01*
X250078Y137242D01*
X250064Y137253D01*
X249901Y137336D01*
X249738Y137422D01*
X249721Y137427D01*
X249705Y137436D01*
X249528Y137485D01*
X249352Y137537D01*
X249334Y137539D01*
X249317Y137544D01*
X249134Y137557D01*
X248951Y137574D01*
X248933Y137572D01*
X248916Y137573D01*
X248733Y137550D01*
X248551Y137530D01*
X248534Y137525D01*
X248516Y137522D01*
X248342Y137464D01*
X248167Y137409D01*
X248151Y137400D01*
X248134Y137394D01*
X247975Y137302D01*
X247815Y137214D01*
X247801Y137202D01*
X247786Y137193D01*
X247533Y136979D01*
X247267Y136713D01*
X244320Y136713D01*
X234812Y146221D01*
X234812Y147056D01*
X234810Y147074D01*
X234812Y147092D01*
X234791Y147274D01*
X234772Y147457D01*
X234767Y147474D01*
X234765Y147491D01*
X234708Y147666D01*
X234654Y147842D01*
X234646Y147857D01*
X234640Y147874D01*
X234550Y148034D01*
X234462Y148196D01*
X234451Y148209D01*
X234442Y148225D01*
X234322Y148364D01*
X234205Y148505D01*
X234191Y148516D01*
X234179Y148530D01*
X234034Y148642D01*
X233891Y148757D01*
X233875Y148765D01*
X233861Y148776D01*
X233696Y148858D01*
X233534Y148943D01*
X233517Y148948D01*
X233501Y148956D01*
X233322Y149003D01*
X233147Y149054D01*
X233129Y149056D01*
X233112Y149060D01*
X232781Y149087D01*
X231946Y149087D01*
X224956Y156077D01*
X224949Y156083D01*
X224944Y156089D01*
X224794Y156210D01*
X224645Y156332D01*
X224637Y156336D01*
X224630Y156342D01*
X224460Y156430D01*
X224289Y156521D01*
X224280Y156523D01*
X224273Y156527D01*
X224088Y156581D01*
X223903Y156635D01*
X223894Y156636D01*
X223886Y156639D01*
X223694Y156654D01*
X223502Y156672D01*
X223493Y156671D01*
X223484Y156672D01*
X223295Y156649D01*
X223102Y156628D01*
X223093Y156626D01*
X223085Y156625D01*
X222903Y156565D01*
X222718Y156507D01*
X222710Y156503D01*
X222702Y156500D01*
X222533Y156405D01*
X222366Y156312D01*
X222359Y156306D01*
X222351Y156302D01*
X222205Y156176D01*
X222059Y156052D01*
X222053Y156045D01*
X222046Y156039D01*
X221929Y155887D01*
X221809Y155736D01*
X221805Y155728D01*
X221800Y155721D01*
X221714Y155549D01*
X221627Y155377D01*
X221624Y155368D01*
X221620Y155360D01*
X221570Y155174D01*
X221519Y154989D01*
X221518Y154980D01*
X221516Y154971D01*
X221489Y154641D01*
X221489Y135413D01*
X220638Y133359D01*
X219237Y131958D01*
X219231Y131951D01*
X219224Y131946D01*
X219104Y131796D01*
X218982Y131647D01*
X218978Y131639D01*
X218972Y131632D01*
X218884Y131462D01*
X218793Y131291D01*
X218791Y131282D01*
X218787Y131275D01*
X218733Y131090D01*
X218678Y130905D01*
X218678Y130896D01*
X218675Y130888D01*
X218660Y130697D01*
X218642Y130504D01*
X218643Y130495D01*
X218642Y130486D01*
X218665Y130297D01*
X218685Y130104D01*
X218688Y130095D01*
X218689Y130087D01*
X218749Y129905D01*
X218807Y129720D01*
X218811Y129712D01*
X218814Y129704D01*
X218908Y129537D01*
X219002Y129368D01*
X219008Y129361D01*
X219012Y129353D01*
X219137Y129208D01*
X219262Y129061D01*
X219269Y129055D01*
X219275Y129048D01*
X219426Y128931D01*
X219578Y128811D01*
X219586Y128807D01*
X219593Y128802D01*
X219751Y128723D01*
X219751Y119418D01*
X219752Y119400D01*
X219751Y119383D01*
X219772Y119200D01*
X219791Y119018D01*
X219796Y119001D01*
X219798Y118983D01*
X219855Y118808D01*
X219909Y118633D01*
X219917Y118617D01*
X219923Y118600D01*
X220013Y118440D01*
X220100Y118279D01*
X220112Y118265D01*
X220121Y118249D01*
X220241Y118110D01*
X220358Y117969D01*
X220372Y117958D01*
X220384Y117945D01*
X220529Y117832D01*
X220672Y117717D01*
X220688Y117709D01*
X220702Y117698D01*
X220867Y117616D01*
X220894Y117602D01*
X220949Y117504D01*
X221037Y117342D01*
X221048Y117329D01*
X221057Y117313D01*
X221177Y117174D01*
X221295Y117033D01*
X221308Y117022D01*
X221320Y117008D01*
X221465Y116896D01*
X221608Y116781D01*
X221624Y116773D01*
X221638Y116762D01*
X221803Y116680D01*
X221966Y116595D01*
X221983Y116590D01*
X221999Y116582D01*
X222177Y116534D01*
X222352Y116484D01*
X222370Y116482D01*
X222387Y116478D01*
X222718Y116451D01*
X229791Y116451D01*
X229791Y111615D01*
X229618Y110969D01*
X229378Y110554D01*
X229317Y110420D01*
X229250Y110291D01*
X229235Y110237D01*
X229212Y110187D01*
X229179Y110044D01*
X229139Y109904D01*
X229134Y109848D01*
X229122Y109794D01*
X229118Y109648D01*
X229106Y109502D01*
X229112Y109447D01*
X229111Y109392D01*
X229136Y109248D01*
X229153Y109103D01*
X229170Y109050D01*
X229179Y108995D01*
X229232Y108859D01*
X229278Y108720D01*
X229305Y108671D01*
X229325Y108620D01*
X229404Y108497D01*
X229475Y108369D01*
X229512Y108327D01*
X229542Y108280D01*
X229643Y108175D01*
X229739Y108064D01*
X229782Y108031D01*
X229821Y107990D01*
X229941Y107907D01*
X230057Y107818D01*
X230106Y107793D01*
X230152Y107761D01*
X230286Y107704D01*
X230417Y107638D01*
X230471Y107624D01*
X230522Y107602D01*
X230665Y107572D01*
X230806Y107534D01*
X230869Y107529D01*
X230916Y107519D01*
X230999Y107518D01*
X231137Y107507D01*
X236475Y107507D01*
X236492Y107509D01*
X236510Y107507D01*
X236692Y107528D01*
X236875Y107547D01*
X236892Y107552D01*
X236910Y107554D01*
X237084Y107611D01*
X237260Y107665D01*
X237276Y107673D01*
X237293Y107679D01*
X237453Y107769D01*
X237614Y107857D01*
X237628Y107868D01*
X237643Y107877D01*
X237783Y107997D01*
X237923Y108114D01*
X237935Y108128D01*
X237948Y108140D01*
X238061Y108285D01*
X238176Y108428D01*
X238184Y108444D01*
X238195Y108458D01*
X238277Y108623D01*
X238361Y108785D01*
X238366Y108802D01*
X238374Y108818D01*
X238422Y108997D01*
X238473Y109172D01*
X238474Y109190D01*
X238479Y109207D01*
X238506Y109538D01*
X238506Y120923D01*
X240589Y123007D01*
X248948Y123007D01*
X248974Y123009D01*
X249001Y123007D01*
X249175Y123029D01*
X249348Y123047D01*
X249374Y123054D01*
X249401Y123058D01*
X249566Y123113D01*
X249733Y123165D01*
X249757Y123178D01*
X249782Y123186D01*
X249934Y123273D01*
X250087Y123357D01*
X250108Y123374D01*
X250131Y123387D01*
X250384Y123602D01*
X251789Y125007D01*
X265736Y125007D01*
X267819Y122923D01*
X267819Y111625D01*
X267820Y111622D01*
X267820Y111621D01*
X267820Y111620D01*
X267819Y111615D01*
X267840Y111420D01*
X267859Y111225D01*
X267861Y111220D01*
X267861Y111215D01*
X267920Y111028D01*
X267977Y110840D01*
X267980Y110835D01*
X267981Y110831D01*
X268075Y110659D01*
X268169Y110486D01*
X268172Y110482D01*
X268175Y110477D01*
X268303Y110325D01*
X268427Y110177D01*
X268431Y110173D01*
X268434Y110169D01*
X268590Y110046D01*
X268741Y109924D01*
X268745Y109922D01*
X268749Y109919D01*
X268925Y109829D01*
X269098Y109739D01*
X269103Y109737D01*
X269107Y109735D01*
X269296Y109682D01*
X269485Y109627D01*
X269490Y109627D01*
X269495Y109626D01*
X269691Y109610D01*
X269886Y109594D01*
X269891Y109595D01*
X269896Y109595D01*
X270092Y109619D01*
X270286Y109641D01*
X270291Y109643D01*
X270296Y109644D01*
X270481Y109705D01*
X270669Y109766D01*
X270673Y109769D01*
X270678Y109770D01*
X270848Y109867D01*
X271019Y109964D01*
X271023Y109967D01*
X271028Y109970D01*
X271175Y110099D01*
X271324Y110227D01*
X271327Y110231D01*
X271331Y110235D01*
X271413Y110342D01*
X273655Y112584D01*
X276353Y113701D01*
X279272Y113701D01*
X281970Y112584D01*
X284034Y110520D01*
X285151Y107822D01*
X285151Y104903D01*
X284034Y102205D01*
X281970Y100141D01*
X279272Y99024D01*
X279219Y99024D01*
X279192Y99021D01*
X279166Y99023D01*
X278992Y99001D01*
X278818Y98984D01*
X278793Y98976D01*
X278766Y98973D01*
X278600Y98917D01*
X278433Y98866D01*
X278410Y98853D01*
X278384Y98844D01*
X278233Y98757D01*
X278079Y98674D01*
X278059Y98657D01*
X278036Y98644D01*
X277783Y98429D01*
X274066Y94712D01*
X272012Y93861D01*
X269545Y93861D01*
X269519Y93859D01*
X269492Y93861D01*
X269318Y93839D01*
X269145Y93821D01*
X269119Y93814D01*
X269092Y93810D01*
X268927Y93755D01*
X268760Y93703D01*
X268736Y93690D01*
X268711Y93682D01*
X268559Y93595D01*
X268406Y93511D01*
X268385Y93494D01*
X268362Y93481D01*
X268109Y93266D01*
X265736Y90893D01*
X251789Y90893D01*
X250920Y91763D01*
X250903Y91777D01*
X250888Y91794D01*
X250747Y91904D01*
X250608Y92018D01*
X250589Y92028D01*
X250571Y92042D01*
X250410Y92123D01*
X250253Y92206D01*
X250231Y92213D01*
X250211Y92223D01*
X250038Y92270D01*
X249867Y92321D01*
X249845Y92323D01*
X249823Y92329D01*
X249645Y92341D01*
X249466Y92358D01*
X249444Y92355D01*
X249421Y92357D01*
X249244Y92333D01*
X249066Y92314D01*
X249044Y92307D01*
X249022Y92305D01*
X248706Y92203D01*
X248589Y92154D01*
X248510Y92112D01*
X248428Y92079D01*
X248309Y92004D01*
X248234Y91964D01*
X248198Y91935D01*
X248147Y91903D01*
X248026Y91812D01*
X247474Y91671D01*
X247399Y91643D01*
X247201Y91579D01*
X246674Y91361D01*
X246523Y91361D01*
X246435Y91352D01*
X246346Y91354D01*
X246207Y91330D01*
X246123Y91321D01*
X246079Y91308D01*
X246062Y91305D01*
X246057Y91305D01*
X246054Y91304D01*
X246019Y91298D01*
X245873Y91260D01*
X245308Y91341D01*
X245229Y91344D01*
X245021Y91361D01*
X242338Y91361D01*
X242320Y91359D01*
X242302Y91361D01*
X242120Y91340D01*
X241937Y91321D01*
X241920Y91316D01*
X241903Y91314D01*
X241728Y91257D01*
X241552Y91203D01*
X241537Y91195D01*
X241520Y91189D01*
X241360Y91099D01*
X241198Y91011D01*
X241185Y91000D01*
X241169Y90991D01*
X241030Y90871D01*
X240889Y90754D01*
X240878Y90740D01*
X240864Y90728D01*
X240752Y90583D01*
X240637Y90440D01*
X240629Y90424D01*
X240618Y90410D01*
X240536Y90245D01*
X240451Y90083D01*
X240446Y90066D01*
X240438Y90050D01*
X240390Y89871D01*
X240340Y89696D01*
X240338Y89678D01*
X240334Y89661D01*
X240307Y89330D01*
X240307Y88477D01*
X238223Y86393D01*
X225277Y86393D01*
X223686Y87984D01*
X223673Y87995D01*
X223661Y88009D01*
X223517Y88123D01*
X223375Y88239D01*
X223359Y88247D01*
X223345Y88258D01*
X223181Y88342D01*
X223019Y88427D01*
X223002Y88432D01*
X222986Y88441D01*
X222809Y88490D01*
X222633Y88542D01*
X222615Y88544D01*
X222598Y88549D01*
X222415Y88562D01*
X222232Y88579D01*
X222214Y88577D01*
X222197Y88578D01*
X222015Y88555D01*
X221832Y88535D01*
X221815Y88530D01*
X221797Y88528D01*
X221624Y88469D01*
X221448Y88414D01*
X221432Y88405D01*
X221416Y88399D01*
X221256Y88307D01*
X221096Y88219D01*
X221082Y88207D01*
X221067Y88198D01*
X220814Y87984D01*
X219223Y86393D01*
X213215Y86393D01*
X213201Y86392D01*
X213188Y86393D01*
X213002Y86372D01*
X212814Y86353D01*
X212801Y86349D01*
X212788Y86348D01*
X212610Y86291D01*
X212429Y86235D01*
X212417Y86229D01*
X212405Y86225D01*
X212240Y86133D01*
X212075Y86043D01*
X212065Y86035D01*
X212053Y86028D01*
X211909Y85905D01*
X211766Y85786D01*
X211757Y85775D01*
X211747Y85767D01*
X211631Y85618D01*
X211514Y85472D01*
X211507Y85460D01*
X211499Y85450D01*
X211414Y85280D01*
X211328Y85115D01*
X211324Y85102D01*
X211318Y85090D01*
X211268Y84908D01*
X211217Y84728D01*
X211216Y84714D01*
X211212Y84701D01*
X211199Y84515D01*
X211184Y84326D01*
X211185Y84313D01*
X211184Y84300D01*
X211209Y84113D01*
X211231Y83927D01*
X211235Y83914D01*
X211237Y83901D01*
X211338Y83585D01*
X211964Y82074D01*
X211964Y48101D01*
X211113Y46047D01*
X197365Y32299D01*
X197360Y32292D01*
X197353Y32287D01*
X197232Y32137D01*
X197110Y31988D01*
X197106Y31980D01*
X197101Y31973D01*
X197012Y31803D01*
X196922Y31632D01*
X196919Y31623D01*
X196915Y31616D01*
X196862Y31431D01*
X196807Y31246D01*
X196806Y31237D01*
X196804Y31229D01*
X196788Y31037D01*
X196771Y30845D01*
X196772Y30836D01*
X196771Y30827D01*
X196793Y30638D01*
X196814Y30445D01*
X196817Y30436D01*
X196818Y30428D01*
X196877Y30246D01*
X196935Y30061D01*
X196940Y30053D01*
X196943Y30045D01*
X197038Y29876D01*
X197130Y29709D01*
X197136Y29702D01*
X197140Y29694D01*
X197266Y29548D01*
X197391Y29402D01*
X197398Y29396D01*
X197404Y29389D01*
X197555Y29272D01*
X197707Y29152D01*
X197715Y29148D01*
X197722Y29143D01*
X197802Y29103D01*
X200157Y26748D01*
X200157Y10802D01*
X198073Y8718D01*
X179627Y8718D01*
G37*
%LPD*%
%LPC*%
G36*
X360777Y365443D02*
X360777Y365443D01*
X358693Y367527D01*
X358693Y394473D01*
X360777Y396557D01*
X387723Y396557D01*
X389807Y394473D01*
X389807Y367527D01*
X387723Y365443D01*
X360777Y365443D01*
G37*
%LPD*%
%LPC*%
G36*
X259127Y53718D02*
X259127Y53718D01*
X256545Y56300D01*
X256524Y56317D01*
X256507Y56338D01*
X256369Y56445D01*
X256233Y56555D01*
X256210Y56568D01*
X256188Y56584D01*
X256032Y56662D01*
X255878Y56744D01*
X255852Y56752D01*
X255828Y56764D01*
X255659Y56809D01*
X255492Y56859D01*
X255465Y56861D01*
X255439Y56868D01*
X255108Y56895D01*
X254461Y56895D01*
X254430Y56892D01*
X254399Y56894D01*
X254229Y56872D01*
X254060Y56855D01*
X254030Y56846D01*
X253999Y56842D01*
X253683Y56741D01*
X252285Y56161D01*
X249365Y56161D01*
X246668Y57279D01*
X244604Y59343D01*
X243486Y62040D01*
X243486Y64960D01*
X244604Y67657D01*
X246668Y69721D01*
X249365Y70839D01*
X252285Y70839D01*
X253683Y70259D01*
X253713Y70250D01*
X253741Y70236D01*
X253906Y70192D01*
X254069Y70143D01*
X254100Y70140D01*
X254130Y70132D01*
X254461Y70105D01*
X255012Y70105D01*
X255030Y70107D01*
X255048Y70105D01*
X255230Y70126D01*
X255413Y70145D01*
X255430Y70150D01*
X255447Y70152D01*
X255622Y70209D01*
X255798Y70263D01*
X255813Y70271D01*
X255830Y70277D01*
X255990Y70367D01*
X256152Y70455D01*
X256165Y70466D01*
X256181Y70475D01*
X256320Y70595D01*
X256461Y70712D01*
X256472Y70726D01*
X256486Y70738D01*
X256598Y70883D01*
X256713Y71026D01*
X256721Y71042D01*
X256732Y71056D01*
X256814Y71221D01*
X256899Y71383D01*
X256904Y71400D01*
X256912Y71416D01*
X256959Y71595D01*
X256988Y71693D01*
X259127Y73832D01*
X277573Y73832D01*
X279657Y71748D01*
X279657Y55802D01*
X277573Y53718D01*
X259127Y53718D01*
G37*
%LPD*%
%LPC*%
G36*
X96837Y49806D02*
X96837Y49806D01*
X89797Y49806D01*
X89797Y51687D01*
X89795Y51705D01*
X89796Y51723D01*
X89775Y51905D01*
X89757Y52088D01*
X89752Y52105D01*
X89750Y52122D01*
X89693Y52297D01*
X89639Y52473D01*
X89630Y52488D01*
X89625Y52505D01*
X89534Y52665D01*
X89447Y52827D01*
X89436Y52840D01*
X89427Y52856D01*
X89307Y52995D01*
X89189Y53136D01*
X89175Y53147D01*
X89164Y53161D01*
X89019Y53273D01*
X88875Y53388D01*
X88860Y53396D01*
X88846Y53407D01*
X88681Y53489D01*
X88518Y53574D01*
X88501Y53579D01*
X88485Y53587D01*
X88307Y53634D01*
X88131Y53685D01*
X88113Y53687D01*
X88096Y53691D01*
X87766Y53718D01*
X87677Y53718D01*
X85593Y55802D01*
X85593Y71748D01*
X87677Y73832D01*
X106123Y73832D01*
X108207Y71748D01*
X108207Y55802D01*
X106123Y53718D01*
X105909Y53718D01*
X105892Y53716D01*
X105874Y53718D01*
X105692Y53697D01*
X105509Y53678D01*
X105492Y53673D01*
X105474Y53671D01*
X105300Y53614D01*
X105124Y53560D01*
X105108Y53552D01*
X105091Y53546D01*
X104931Y53456D01*
X104770Y53368D01*
X104756Y53357D01*
X104741Y53348D01*
X104601Y53228D01*
X104461Y53111D01*
X104449Y53097D01*
X104436Y53085D01*
X104323Y52940D01*
X104208Y52797D01*
X104200Y52781D01*
X104189Y52767D01*
X104107Y52602D01*
X104023Y52440D01*
X104018Y52423D01*
X104010Y52407D01*
X103962Y52228D01*
X103911Y52053D01*
X103910Y52035D01*
X103905Y52018D01*
X103878Y51687D01*
X103878Y49806D01*
X96838Y49806D01*
X96837Y49806D01*
G37*
%LPD*%
%LPC*%
G36*
X176759Y288974D02*
X176759Y288974D01*
X176759Y292310D01*
X176932Y292956D01*
X177267Y293535D01*
X177740Y294008D01*
X178319Y294343D01*
X178965Y294516D01*
X191301Y294516D01*
X191301Y288974D01*
X176759Y288974D01*
G37*
%LPD*%
%LPC*%
G36*
X321499Y66449D02*
X321499Y66449D01*
X321499Y77991D01*
X325835Y77991D01*
X326481Y77818D01*
X327060Y77483D01*
X327533Y77010D01*
X327868Y76431D01*
X328041Y75785D01*
X328041Y66449D01*
X321499Y66449D01*
G37*
%LPD*%
%LPC*%
G36*
X372299Y66449D02*
X372299Y66449D01*
X372299Y77991D01*
X376635Y77991D01*
X377281Y77818D01*
X377860Y77483D01*
X378333Y77010D01*
X378668Y76431D01*
X378841Y75785D01*
X378841Y66449D01*
X372299Y66449D01*
G37*
%LPD*%
%LPC*%
G36*
X357759Y66449D02*
X357759Y66449D01*
X357759Y75785D01*
X357932Y76431D01*
X358267Y77010D01*
X358740Y77483D01*
X359319Y77818D01*
X359965Y77991D01*
X364301Y77991D01*
X364301Y66449D01*
X357759Y66449D01*
G37*
%LPD*%
%LPC*%
G36*
X306959Y66449D02*
X306959Y66449D01*
X306959Y75785D01*
X307132Y76431D01*
X307467Y77010D01*
X307940Y77483D01*
X308519Y77818D01*
X309165Y77991D01*
X313501Y77991D01*
X313501Y66449D01*
X306959Y66449D01*
G37*
%LPD*%
G36*
X234968Y275746D02*
X234968Y275746D01*
X234985Y275744D01*
X234986Y275744D01*
X235168Y275766D01*
X235351Y275784D01*
X235368Y275789D01*
X235386Y275791D01*
X235560Y275848D01*
X235736Y275902D01*
X235751Y275911D01*
X235768Y275916D01*
X235929Y276007D01*
X236090Y276094D01*
X236103Y276105D01*
X236119Y276114D01*
X236258Y276234D01*
X236399Y276352D01*
X236410Y276366D01*
X236424Y276377D01*
X236536Y276522D01*
X236651Y276665D01*
X236660Y276681D01*
X236670Y276695D01*
X236752Y276860D01*
X236837Y277023D01*
X236842Y277040D01*
X236850Y277056D01*
X236898Y277234D01*
X236948Y277410D01*
X236950Y277427D01*
X236954Y277445D01*
X236981Y277775D01*
X236981Y291553D01*
X236980Y291571D01*
X236981Y291589D01*
X236960Y291771D01*
X236941Y291954D01*
X236936Y291971D01*
X236934Y291988D01*
X236877Y292163D01*
X236823Y292339D01*
X236815Y292354D01*
X236809Y292371D01*
X236719Y292531D01*
X236632Y292693D01*
X236620Y292706D01*
X236611Y292722D01*
X236491Y292861D01*
X236374Y293002D01*
X236360Y293013D01*
X236348Y293027D01*
X236203Y293139D01*
X236060Y293254D01*
X236044Y293262D01*
X236030Y293273D01*
X235865Y293355D01*
X235703Y293440D01*
X235686Y293445D01*
X235670Y293453D01*
X235492Y293500D01*
X235316Y293551D01*
X235298Y293553D01*
X235281Y293557D01*
X234950Y293584D01*
X234932Y293583D01*
X234915Y293584D01*
X234914Y293584D01*
X234732Y293563D01*
X234549Y293544D01*
X234532Y293539D01*
X234514Y293537D01*
X234340Y293480D01*
X234164Y293426D01*
X234149Y293418D01*
X234132Y293412D01*
X233971Y293322D01*
X233810Y293234D01*
X233797Y293223D01*
X233781Y293214D01*
X233642Y293094D01*
X233501Y292977D01*
X233490Y292963D01*
X233476Y292951D01*
X233364Y292806D01*
X233249Y292663D01*
X233240Y292647D01*
X233230Y292633D01*
X233148Y292468D01*
X233063Y292306D01*
X233058Y292289D01*
X233050Y292273D01*
X233002Y292094D01*
X232952Y291919D01*
X232950Y291901D01*
X232946Y291884D01*
X232919Y291553D01*
X232919Y277775D01*
X232920Y277758D01*
X232919Y277740D01*
X232940Y277557D01*
X232958Y277375D01*
X232964Y277358D01*
X232966Y277340D01*
X233023Y277165D01*
X233077Y276990D01*
X233085Y276974D01*
X233091Y276957D01*
X233181Y276797D01*
X233268Y276636D01*
X233280Y276622D01*
X233289Y276607D01*
X233409Y276467D01*
X233526Y276327D01*
X233540Y276315D01*
X233552Y276302D01*
X233697Y276189D01*
X233840Y276074D01*
X233856Y276066D01*
X233870Y276055D01*
X234035Y275973D01*
X234197Y275889D01*
X234214Y275884D01*
X234230Y275876D01*
X234408Y275828D01*
X234584Y275777D01*
X234602Y275776D01*
X234619Y275771D01*
X234950Y275744D01*
X234968Y275746D01*
G37*
%LPC*%
G36*
X208914Y327661D02*
X208914Y327661D01*
X218060Y327661D01*
X218020Y327404D01*
X217439Y325617D01*
X216586Y323943D01*
X215481Y322422D01*
X214153Y321094D01*
X212632Y319989D01*
X210958Y319136D01*
X209171Y318555D01*
X208914Y318515D01*
X208914Y327661D01*
G37*
%LPD*%
%LPC*%
G36*
X203579Y318555D02*
X203579Y318555D01*
X201792Y319136D01*
X200118Y319989D01*
X198597Y321094D01*
X197269Y322422D01*
X196164Y323943D01*
X195311Y325617D01*
X194730Y327404D01*
X194690Y327661D01*
X203836Y327661D01*
X203836Y318515D01*
X203579Y318555D01*
G37*
%LPD*%
%LPC*%
G36*
X245092Y329071D02*
X245092Y329071D01*
X243457Y329603D01*
X241925Y330383D01*
X240534Y331394D01*
X239319Y332609D01*
X238308Y334000D01*
X237528Y335532D01*
X236996Y337167D01*
X236987Y337226D01*
X245151Y337226D01*
X245151Y329062D01*
X245092Y329071D01*
G37*
%LPD*%
%LPC*%
G36*
X224749Y121449D02*
X224749Y121449D01*
X224749Y128491D01*
X227585Y128491D01*
X228231Y128318D01*
X228810Y127983D01*
X229283Y127510D01*
X229618Y126931D01*
X229791Y126285D01*
X229791Y121449D01*
X224749Y121449D01*
G37*
%LPD*%
%LPC*%
G36*
X223672Y304124D02*
X223672Y304124D01*
X223672Y307460D01*
X223845Y308106D01*
X224179Y308685D01*
X224652Y309158D01*
X225232Y309493D01*
X225878Y309666D01*
X228713Y309666D01*
X228713Y304124D01*
X223672Y304124D01*
G37*
%LPD*%
%LPC*%
G36*
X319540Y177697D02*
X319540Y177697D01*
X318894Y177870D01*
X318315Y178204D01*
X317842Y178677D01*
X317507Y179257D01*
X317334Y179903D01*
X317334Y183238D01*
X322376Y183238D01*
X322376Y177697D01*
X319540Y177697D01*
G37*
%LPD*%
%LPC*%
G36*
X167203Y25234D02*
X167203Y25234D01*
X166557Y25407D01*
X165977Y25742D01*
X165504Y26215D01*
X165170Y26794D01*
X164997Y27440D01*
X164997Y30276D01*
X170538Y30276D01*
X170538Y25234D01*
X167203Y25234D01*
G37*
%LPD*%
%LPC*%
G36*
X189174Y310599D02*
X189174Y310599D01*
X189174Y315916D01*
X192135Y315916D01*
X192781Y315743D01*
X193360Y315408D01*
X193833Y314935D01*
X194168Y314356D01*
X194341Y313710D01*
X194341Y310599D01*
X189174Y310599D01*
G37*
%LPD*%
%LPC*%
G36*
X189174Y300034D02*
X189174Y300034D01*
X189174Y305351D01*
X194341Y305351D01*
X194341Y302240D01*
X194168Y301594D01*
X193833Y301015D01*
X193360Y300542D01*
X192781Y300207D01*
X192135Y300034D01*
X189174Y300034D01*
G37*
%LPD*%
%LPC*%
G36*
X286194Y33931D02*
X286194Y33931D01*
X286194Y37941D01*
X288997Y37941D01*
X289643Y37768D01*
X290223Y37433D01*
X290696Y36960D01*
X291030Y36381D01*
X291203Y35735D01*
X291203Y33931D01*
X286194Y33931D01*
G37*
%LPD*%
%LPC*%
G36*
X277122Y33931D02*
X277122Y33931D01*
X277122Y35735D01*
X277295Y36381D01*
X277629Y36960D01*
X278102Y37433D01*
X278682Y37768D01*
X279328Y37941D01*
X282131Y37941D01*
X282131Y33931D01*
X277122Y33931D01*
G37*
%LPD*%
%LPC*%
G36*
X290440Y187484D02*
X290440Y187484D01*
X289794Y187657D01*
X289215Y187992D01*
X288742Y188465D01*
X288407Y189044D01*
X288234Y189690D01*
X288234Y191494D01*
X293244Y191494D01*
X293244Y187484D01*
X290440Y187484D01*
G37*
%LPD*%
D10*
X247650Y211175D03*
X247650Y277775D03*
X234950Y211175D03*
X260350Y211175D03*
X273050Y211175D03*
X234950Y277775D03*
X260350Y277775D03*
X273050Y277775D03*
D11*
X194300Y285975D03*
X194300Y265975D03*
X194300Y245975D03*
X194300Y225975D03*
X194300Y205975D03*
X194300Y185975D03*
X194300Y165975D03*
X194300Y145975D03*
X34300Y285975D03*
X34300Y265975D03*
X34300Y245975D03*
X34300Y225975D03*
X34300Y205975D03*
X34300Y185975D03*
X34300Y165975D03*
X34300Y145975D03*
D12*
G36*
X240739Y181702D02*
X249223Y173218D01*
X241445Y165440D01*
X232961Y173924D01*
X240739Y181702D01*
G37*
G36*
X258062Y148823D02*
X249578Y157307D01*
X257356Y165085D01*
X265840Y156601D01*
X258062Y148823D01*
G37*
G36*
X270436Y161198D02*
X261952Y169682D01*
X269730Y177460D01*
X278214Y168976D01*
X270436Y161198D01*
G37*
G36*
X253113Y194077D02*
X261597Y185593D01*
X253819Y177815D01*
X245335Y186299D01*
X253113Y194077D01*
G37*
D13*
G36*
X246006Y155330D02*
X253430Y147906D01*
X245794Y140270D01*
X238370Y147694D01*
X246006Y155330D01*
G37*
G36*
X233631Y167705D02*
X241055Y160281D01*
X233419Y152645D01*
X225995Y160069D01*
X233631Y167705D01*
G37*
G36*
X275980Y146107D02*
X268556Y138683D01*
X260920Y146319D01*
X268344Y153743D01*
X275980Y146107D01*
G37*
G36*
X288355Y158481D02*
X280931Y151057D01*
X273295Y158693D01*
X280719Y166117D01*
X288355Y158481D01*
G37*
D14*
X316025Y314325D03*
X338025Y323825D03*
X338025Y304825D03*
D15*
X381000Y279125D03*
X381000Y324125D03*
D16*
X381000Y315845D03*
X381000Y287405D03*
D17*
X75800Y381000D03*
D18*
X25800Y381000D03*
D17*
X374250Y381000D03*
D18*
X324250Y381000D03*
D19*
X310875Y281050D03*
X310875Y201550D03*
X355875Y281050D03*
X355875Y201550D03*
D20*
X268350Y63775D03*
X188850Y63775D03*
X268350Y18775D03*
X188850Y18775D03*
D21*
X273050Y365125D03*
X247650Y365125D03*
X247650Y339725D03*
D22*
X273050Y339725D03*
D21*
X273050Y390525D03*
X247650Y390525D03*
D23*
X284163Y18900D03*
X284163Y31900D03*
X295275Y206525D03*
X295275Y193525D03*
D24*
X219075Y283388D03*
X219075Y265888D03*
D25*
X248213Y301625D03*
X231213Y301625D03*
X272488Y301625D03*
X289488Y301625D03*
D26*
X206375Y330200D03*
X206375Y355600D03*
X206375Y381000D03*
X206375Y406400D03*
D27*
X317500Y62450D03*
X317500Y26450D03*
X368300Y62450D03*
X368300Y26450D03*
D28*
X188913Y33775D03*
X188913Y48775D03*
X325875Y201613D03*
X340875Y201613D03*
X246063Y115450D03*
X246063Y100450D03*
D29*
X258763Y116450D03*
X258763Y99450D03*
D25*
X341875Y185738D03*
X324875Y185738D03*
D30*
X222250Y118950D03*
X231750Y96950D03*
X212750Y96950D03*
D29*
X173038Y49775D03*
X173038Y32775D03*
D13*
X169050Y307975D03*
X186550Y307975D03*
D23*
X8731Y282725D03*
X8731Y269725D03*
X8731Y237975D03*
X8731Y250975D03*
D20*
X17400Y18775D03*
X96900Y18775D03*
X17400Y63775D03*
X96900Y63775D03*
D23*
X96838Y47775D03*
X96838Y34775D03*
D31*
X17675Y63500D02*
X17400Y63775D01*
X17675Y63500D02*
X31750Y63500D01*
D32*
X31750Y63500D03*
D31*
X268075Y63500D02*
X268350Y63775D01*
X268075Y63500D02*
X250825Y63500D01*
D32*
X250825Y63500D03*
D33*
X342900Y26450D02*
X368300Y26450D01*
X342900Y26450D02*
X317500Y26450D01*
X342900Y26450D02*
X342900Y17463D01*
D32*
X342900Y17463D03*
D31*
X355875Y201550D02*
X355600Y201825D01*
D34*
X355600Y219075D01*
D32*
X355600Y219075D03*
X215900Y254000D03*
D31*
X219075Y257175D02*
X219075Y265888D01*
X219075Y257175D02*
X215900Y254000D01*
D34*
X169050Y307975D02*
X164288Y307975D01*
X148413Y292100D01*
X147638Y292100D01*
D32*
X147638Y292100D03*
D34*
X258763Y99450D02*
X270900Y99450D01*
X277813Y106363D01*
D32*
X277813Y106363D03*
D34*
X34300Y285975D02*
X22450Y285975D01*
D35*
X31050Y282725D02*
X8731Y282725D01*
X31050Y282725D02*
X34300Y285975D01*
D36*
X47400Y285975D01*
X58738Y274638D02*
X58738Y263525D01*
X58738Y274638D02*
X47400Y285975D01*
D32*
X58738Y263525D03*
D34*
X273050Y211175D02*
X284163Y211138D01*
D32*
X284163Y211138D03*
D34*
X246225Y147800D02*
X245900Y147800D01*
X247487Y147800D01*
X258763Y136525D01*
D32*
X258763Y136525D03*
D34*
X268450Y146213D01*
X255054Y156954D02*
X245900Y147800D01*
X255054Y156954D02*
X257709Y156954D01*
X268450Y146213D01*
X257709Y156954D02*
X255054Y159609D01*
X255054Y184358D02*
X253466Y185946D01*
X255054Y184358D02*
X255054Y159609D01*
D33*
X342900Y17463D02*
X342900Y9525D01*
D32*
X342900Y9525D03*
D34*
X273050Y387350D02*
X273050Y390525D01*
D35*
X299763Y292163D02*
X310875Y281050D01*
D34*
X234950Y222250D02*
X234950Y211175D01*
X234950Y222250D02*
X244475Y231775D01*
X280650Y231775D01*
D35*
X288925Y360363D02*
X288925Y368300D01*
X273050Y384175D02*
X273050Y390525D01*
X273050Y384175D02*
X288925Y368300D01*
X288925Y360363D02*
X299763Y349525D01*
D34*
X305900Y206525D02*
X310875Y201550D01*
X305900Y206525D02*
X295275Y206525D01*
X295275Y217150D02*
X280650Y231775D01*
X295275Y217150D02*
X295275Y206525D01*
X310875Y201550D02*
X325813Y201550D01*
X325875Y201613D01*
D35*
X299763Y292163D02*
X299763Y349525D01*
D34*
X268609Y19034D02*
X268350Y18775D01*
X271462Y19010D02*
X284163Y18900D01*
X271462Y19010D02*
X268609Y19034D01*
X188913Y31750D02*
X188913Y33775D01*
X188913Y31750D02*
X188913Y18838D01*
X188850Y18775D01*
X206375Y80963D02*
X194300Y93038D01*
X206375Y80963D02*
X206375Y49213D01*
X188913Y31750D01*
X194300Y93038D02*
X194300Y145975D01*
X260350Y196850D02*
X268288Y188913D01*
X268288Y171397D01*
X260350Y196850D02*
X260350Y211175D01*
X270276Y169136D02*
X280825Y158587D01*
X239969Y173379D02*
X235207Y178141D01*
X235207Y184407D01*
X247650Y196850D01*
X247650Y211175D01*
X233525Y166005D02*
X233525Y160175D01*
X233525Y166005D02*
X241092Y173571D01*
X381000Y315845D02*
X381000Y324125D01*
D31*
X377825Y319020D02*
X381000Y315845D01*
X377825Y319020D02*
X377825Y320675D01*
X324250Y374250D02*
X324250Y381000D01*
X324250Y374250D02*
X377825Y320675D01*
D34*
X381000Y287405D02*
X381000Y279125D01*
D31*
X342925Y323825D02*
X338025Y323825D01*
X342925Y323825D02*
X381000Y285750D01*
X381000Y279125D01*
D35*
X260350Y352425D02*
X247650Y365125D01*
X260350Y352425D02*
X260350Y327025D01*
X248213Y314888D01*
X248213Y301625D01*
D34*
X247650Y301063D01*
X247650Y277775D01*
X226925Y245975D02*
X194300Y245975D01*
X247650Y266700D02*
X247650Y277775D01*
X247650Y266700D02*
X226925Y245975D01*
D35*
X260350Y277775D02*
X260350Y314325D01*
X273050Y327025D01*
X273050Y339725D01*
D32*
X327025Y333375D03*
D35*
X327025Y315825D01*
X338025Y304825D01*
D34*
X273050Y301063D02*
X273050Y277775D01*
X273050Y301063D02*
X272488Y301625D01*
D35*
X272488Y310588D01*
X292100Y330200D01*
X292100Y346075D01*
X273050Y365125D01*
D34*
X273050Y277775D02*
X273050Y263525D01*
X238125Y241300D02*
X222800Y225975D01*
X238125Y241300D02*
X250825Y241300D01*
X273050Y263525D01*
X222800Y225975D02*
X194300Y225975D01*
D33*
X195300Y284975D02*
X194300Y285975D01*
D31*
X230925Y281800D02*
X234950Y277775D01*
D35*
X101629Y47775D02*
X142292Y7112D01*
X101629Y47775D02*
X96838Y47775D01*
D36*
X316025Y303100D02*
X316025Y314325D01*
X316025Y303100D02*
X327025Y292100D01*
D32*
X114300Y238125D03*
X142875Y238125D03*
X295275Y66675D03*
X295275Y76200D03*
D37*
X12056Y237975D02*
X8731Y237975D01*
X12056Y237975D02*
X14288Y235744D01*
X111919Y235744D02*
X114300Y238125D01*
X111919Y235744D02*
X14288Y235744D01*
D36*
X219075Y283388D02*
X234950Y283388D01*
X234950Y277775D01*
D32*
X295275Y85725D03*
D34*
X234950Y297888D02*
X231213Y301625D01*
X234950Y297888D02*
X234950Y283388D01*
X206375Y355600D02*
X192088Y355600D01*
X133350Y296863D01*
X49138Y145975D02*
X34300Y145975D01*
X133350Y230188D02*
X133350Y296863D01*
X133350Y230188D02*
X49138Y145975D01*
X58025Y165975D02*
X34300Y165975D01*
X125413Y233363D02*
X125413Y300038D01*
X206375Y381000D01*
X125413Y233363D02*
X58025Y165975D01*
X194300Y205975D02*
X206775Y205975D01*
X215900Y196850D01*
X215900Y136525D01*
X206375Y127000D02*
X206375Y103325D01*
X212750Y96950D01*
X206375Y127000D02*
X215900Y136525D01*
X231750Y96950D02*
X245563Y96950D01*
X246063Y100450D01*
X246063Y115450D02*
X248063Y116450D01*
X258763Y116450D01*
D35*
X30550Y269725D02*
X8731Y269725D01*
X30550Y269725D02*
X34300Y265975D01*
D34*
X34300Y245975D02*
X35800Y244475D01*
D35*
X15725Y250975D02*
X8731Y250975D01*
X20725Y245975D02*
X34300Y245975D01*
X20725Y245975D02*
X15725Y250975D01*
D34*
X34300Y225975D02*
X33750Y225425D01*
X21082Y225425D01*
X76350Y34775D02*
X96838Y34775D01*
X96900Y34713D02*
X96900Y18775D01*
X96900Y34713D02*
X96838Y34775D01*
X8700Y213043D02*
X21082Y225425D01*
X8700Y213043D02*
X8700Y102426D01*
X76350Y34775D01*
X173038Y49775D02*
X187913Y49775D01*
X188913Y48775D01*
X340875Y201613D02*
X339875Y202613D01*
X340875Y201613D02*
X341875Y200613D01*
X341875Y185738D01*
M02*
