M48
;GenerationSoftware,Autodesk,EAGLE,9.4.1*%
;CreationDate,2019-06-30T19:23:07Z*%
FMAT,2
ICI,OFF
METRIC,TZ,000.000
T4C0.350
T3C1.000
T2C1.016
T1C1.300
%
G90
M71
T1
X7580Y38100
X2580Y38100
X37425Y38100
X32425Y38100
T2
X20638Y33020
X20638Y35560
X20638Y38100
X20638Y40640
T3
X27305Y36513
X24765Y36513
X24765Y33973
X27305Y33973
X27305Y39053
X24765Y39053
T4
X3175Y6350
X25082Y6350
X34290Y1746
X35560Y21907
X21590Y25400
X14764Y29210
X27781Y10636
X5874Y26352
X28416Y21114
X25876Y13652
X34290Y952
X32702Y33338
X11430Y23812
X14287Y23812
X29527Y6667
X29527Y7620
X29527Y8573
M30