G04 EAGLE Gerber X2 export*
%TF.Part,Single*%
%TF.FileFunction,Profile,NP*%
%TF.FilePolarity,Positive*%
%TF.GenerationSoftware,Autodesk,EAGLE,9.4.1*%
%TF.CreationDate,2019-06-30T19:23:07Z*%
G75*
%MOMM*%
%FSLAX34Y34*%
%LPD*%
%IN*%
%AMOC8*
5,1,8,0,0,1.08239X$1,22.5*%
G01*
%ADD10C,0.254000*%


D10*
X0Y0D02*
X400000Y0D01*
X400000Y425000D01*
X0Y425000D01*
X0Y0D01*
X44450Y361950D02*
X79375Y327025D01*
X79375Y295275D01*
X79399Y294722D01*
X79471Y294172D01*
X79591Y293632D01*
X79758Y293103D01*
X79970Y292591D01*
X80226Y292100D01*
X80523Y291633D01*
X80861Y291193D01*
X81235Y290785D01*
X81643Y290411D01*
X82083Y290073D01*
X82550Y289776D01*
X83041Y289520D01*
X83553Y289308D01*
X84082Y289141D01*
X84622Y289021D01*
X85172Y288949D01*
X85725Y288925D01*
X86278Y288949D01*
X86828Y289021D01*
X87369Y289141D01*
X87897Y289308D01*
X88409Y289520D01*
X88900Y289776D01*
X89367Y290073D01*
X89807Y290411D01*
X90215Y290785D01*
X90589Y291193D01*
X90927Y291633D01*
X91224Y292100D01*
X91480Y292591D01*
X91692Y293103D01*
X91859Y293632D01*
X91979Y294172D01*
X92051Y294722D01*
X92075Y295275D01*
X92075Y330200D01*
X57150Y365125D01*
X57150Y400050D01*
X57126Y400603D01*
X57054Y401153D01*
X56934Y401694D01*
X56767Y402222D01*
X56555Y402734D01*
X56299Y403225D01*
X56002Y403692D01*
X55664Y404132D01*
X55290Y404540D01*
X54882Y404914D01*
X54442Y405252D01*
X53975Y405549D01*
X53484Y405805D01*
X52972Y406017D01*
X52444Y406184D01*
X51903Y406304D01*
X51353Y406376D01*
X50800Y406400D01*
X50247Y406376D01*
X49697Y406304D01*
X49157Y406184D01*
X48628Y406017D01*
X48116Y405805D01*
X47625Y405549D01*
X47158Y405252D01*
X46718Y404914D01*
X46310Y404540D01*
X45936Y404132D01*
X45598Y403692D01*
X45301Y403225D01*
X45045Y402734D01*
X44833Y402222D01*
X44666Y401694D01*
X44546Y401153D01*
X44474Y400603D01*
X44450Y400050D01*
X44450Y361950D01*
M02*
