G04 EAGLE Gerber X2 export*
%TF.Part,Single*%
%TF.FileFunction,Legend,Bot,1*%
%TF.FilePolarity,Positive*%
%TF.GenerationSoftware,Autodesk,EAGLE,9.4.1*%
%TF.CreationDate,2019-06-30T19:23:07Z*%
G75*
%MOMM*%
%FSLAX34Y34*%
%LPD*%
%INSilkscreen Bottom*%
%AMOC8*
5,1,8,0,0,1.08239X$1,22.5*%
G01*
%ADD10C,0.203200*%


D10*
X15000Y55000D02*
X385000Y55000D01*
X385000Y295000D01*
X15000Y295000D01*
X15000Y55000D01*
X346760Y274638D02*
X346762Y274834D01*
X346770Y275029D01*
X346781Y275225D01*
X346798Y275420D01*
X346820Y275614D01*
X346846Y275808D01*
X346876Y276001D01*
X346912Y276194D01*
X346952Y276385D01*
X346997Y276576D01*
X347047Y276765D01*
X347101Y276953D01*
X347159Y277140D01*
X347223Y277325D01*
X347290Y277509D01*
X347362Y277691D01*
X347439Y277871D01*
X347520Y278049D01*
X347605Y278225D01*
X347695Y278399D01*
X347788Y278571D01*
X347886Y278740D01*
X347988Y278907D01*
X348094Y279072D01*
X348204Y279234D01*
X348318Y279393D01*
X348436Y279549D01*
X348557Y279703D01*
X348682Y279853D01*
X348811Y280001D01*
X348943Y280145D01*
X349079Y280286D01*
X349218Y280423D01*
X349361Y280557D01*
X349507Y280688D01*
X349656Y280815D01*
X349808Y280938D01*
X349962Y281058D01*
X350120Y281174D01*
X350281Y281286D01*
X350444Y281393D01*
X350610Y281497D01*
X350778Y281597D01*
X350949Y281693D01*
X351122Y281785D01*
X351297Y281872D01*
X351474Y281955D01*
X351653Y282034D01*
X351834Y282108D01*
X352017Y282178D01*
X352201Y282244D01*
X352387Y282305D01*
X352575Y282361D01*
X352763Y282413D01*
X352953Y282460D01*
X353144Y282502D01*
X353336Y282540D01*
X353529Y282574D01*
X353723Y282602D01*
X353917Y282626D01*
X354112Y282645D01*
X354307Y282659D01*
X354503Y282669D01*
X354698Y282673D01*
X354894Y282673D01*
X355089Y282669D01*
X355285Y282659D01*
X355480Y282645D01*
X355675Y282626D01*
X355869Y282602D01*
X356063Y282574D01*
X356256Y282540D01*
X356448Y282502D01*
X356639Y282460D01*
X356829Y282413D01*
X357017Y282361D01*
X357205Y282305D01*
X357391Y282244D01*
X357575Y282178D01*
X357758Y282108D01*
X357939Y282034D01*
X358118Y281955D01*
X358295Y281872D01*
X358470Y281785D01*
X358643Y281693D01*
X358814Y281597D01*
X358982Y281497D01*
X359148Y281393D01*
X359311Y281286D01*
X359472Y281174D01*
X359630Y281058D01*
X359784Y280938D01*
X359936Y280815D01*
X360085Y280688D01*
X360231Y280557D01*
X360374Y280423D01*
X360513Y280286D01*
X360649Y280145D01*
X360781Y280001D01*
X360910Y279853D01*
X361035Y279703D01*
X361156Y279549D01*
X361274Y279393D01*
X361388Y279234D01*
X361498Y279072D01*
X361604Y278907D01*
X361706Y278740D01*
X361804Y278571D01*
X361897Y278399D01*
X361987Y278225D01*
X362072Y278049D01*
X362153Y277871D01*
X362230Y277691D01*
X362302Y277509D01*
X362369Y277325D01*
X362433Y277140D01*
X362491Y276953D01*
X362545Y276765D01*
X362595Y276576D01*
X362640Y276385D01*
X362680Y276194D01*
X362716Y276001D01*
X362746Y275808D01*
X362772Y275614D01*
X362794Y275420D01*
X362811Y275225D01*
X362822Y275029D01*
X362830Y274834D01*
X362832Y274638D01*
X362830Y274442D01*
X362822Y274247D01*
X362811Y274051D01*
X362794Y273856D01*
X362772Y273662D01*
X362746Y273468D01*
X362716Y273275D01*
X362680Y273082D01*
X362640Y272891D01*
X362595Y272700D01*
X362545Y272511D01*
X362491Y272323D01*
X362433Y272136D01*
X362369Y271951D01*
X362302Y271767D01*
X362230Y271585D01*
X362153Y271405D01*
X362072Y271227D01*
X361987Y271051D01*
X361897Y270877D01*
X361804Y270705D01*
X361706Y270536D01*
X361604Y270369D01*
X361498Y270204D01*
X361388Y270042D01*
X361274Y269883D01*
X361156Y269727D01*
X361035Y269573D01*
X360910Y269423D01*
X360781Y269275D01*
X360649Y269131D01*
X360513Y268990D01*
X360374Y268853D01*
X360231Y268719D01*
X360085Y268588D01*
X359936Y268461D01*
X359784Y268338D01*
X359630Y268218D01*
X359472Y268102D01*
X359311Y267990D01*
X359148Y267883D01*
X358982Y267779D01*
X358814Y267679D01*
X358643Y267583D01*
X358470Y267491D01*
X358295Y267404D01*
X358118Y267321D01*
X357939Y267242D01*
X357758Y267168D01*
X357575Y267098D01*
X357391Y267032D01*
X357205Y266971D01*
X357017Y266915D01*
X356829Y266863D01*
X356639Y266816D01*
X356448Y266774D01*
X356256Y266736D01*
X356063Y266702D01*
X355869Y266674D01*
X355675Y266650D01*
X355480Y266631D01*
X355285Y266617D01*
X355089Y266607D01*
X354894Y266603D01*
X354698Y266603D01*
X354503Y266607D01*
X354307Y266617D01*
X354112Y266631D01*
X353917Y266650D01*
X353723Y266674D01*
X353529Y266702D01*
X353336Y266736D01*
X353144Y266774D01*
X352953Y266816D01*
X352763Y266863D01*
X352575Y266915D01*
X352387Y266971D01*
X352201Y267032D01*
X352017Y267098D01*
X351834Y267168D01*
X351653Y267242D01*
X351474Y267321D01*
X351297Y267404D01*
X351122Y267491D01*
X350949Y267583D01*
X350778Y267679D01*
X350610Y267779D01*
X350444Y267883D01*
X350281Y267990D01*
X350120Y268102D01*
X349962Y268218D01*
X349808Y268338D01*
X349656Y268461D01*
X349507Y268588D01*
X349361Y268719D01*
X349218Y268853D01*
X349079Y268990D01*
X348943Y269131D01*
X348811Y269275D01*
X348682Y269423D01*
X348557Y269573D01*
X348436Y269727D01*
X348318Y269883D01*
X348204Y270042D01*
X348094Y270204D01*
X347988Y270369D01*
X347886Y270536D01*
X347788Y270705D01*
X347695Y270877D01*
X347605Y271051D01*
X347520Y271227D01*
X347439Y271405D01*
X347362Y271585D01*
X347290Y271767D01*
X347223Y271951D01*
X347159Y272136D01*
X347101Y272323D01*
X347047Y272511D01*
X346997Y272700D01*
X346952Y272891D01*
X346912Y273082D01*
X346876Y273275D01*
X346846Y273468D01*
X346820Y273662D01*
X346798Y273856D01*
X346781Y274051D01*
X346770Y274247D01*
X346762Y274442D01*
X346760Y274638D01*
X352905Y270856D02*
X355269Y270856D01*
X355354Y270858D01*
X355439Y270864D01*
X355523Y270873D01*
X355607Y270886D01*
X355690Y270903D01*
X355772Y270924D01*
X355853Y270949D01*
X355933Y270977D01*
X356012Y271008D01*
X356089Y271043D01*
X356165Y271082D01*
X356239Y271124D01*
X356311Y271169D01*
X356381Y271217D01*
X356448Y271269D01*
X356513Y271323D01*
X356576Y271380D01*
X356636Y271440D01*
X356693Y271503D01*
X356747Y271568D01*
X356799Y271635D01*
X356847Y271705D01*
X356892Y271777D01*
X356934Y271851D01*
X356973Y271927D01*
X357008Y272004D01*
X357039Y272083D01*
X357067Y272163D01*
X357092Y272244D01*
X357113Y272326D01*
X357130Y272409D01*
X357143Y272493D01*
X357152Y272577D01*
X357158Y272662D01*
X357160Y272747D01*
X357160Y276528D01*
X357158Y276613D01*
X357152Y276698D01*
X357143Y276782D01*
X357130Y276866D01*
X357113Y276949D01*
X357092Y277031D01*
X357067Y277112D01*
X357039Y277192D01*
X357008Y277271D01*
X356973Y277348D01*
X356934Y277424D01*
X356892Y277498D01*
X356847Y277570D01*
X356799Y277640D01*
X356747Y277707D01*
X356693Y277772D01*
X356636Y277835D01*
X356576Y277895D01*
X356513Y277952D01*
X356448Y278006D01*
X356381Y278058D01*
X356311Y278106D01*
X356239Y278151D01*
X356165Y278193D01*
X356089Y278232D01*
X356012Y278267D01*
X355933Y278298D01*
X355853Y278326D01*
X355772Y278351D01*
X355690Y278372D01*
X355607Y278389D01*
X355523Y278402D01*
X355439Y278411D01*
X355354Y278417D01*
X355269Y278419D01*
X352905Y278419D01*
X325609Y283147D02*
X325480Y283145D01*
X325352Y283139D01*
X325224Y283130D01*
X325096Y283116D01*
X324969Y283099D01*
X324842Y283077D01*
X324716Y283052D01*
X324591Y283023D01*
X324466Y282991D01*
X324343Y282954D01*
X324221Y282914D01*
X324100Y282870D01*
X323981Y282823D01*
X323863Y282772D01*
X323746Y282718D01*
X323632Y282660D01*
X323519Y282598D01*
X323408Y282533D01*
X323299Y282465D01*
X323192Y282394D01*
X323087Y282319D01*
X322985Y282241D01*
X322885Y282161D01*
X322787Y282077D01*
X322693Y281990D01*
X322600Y281901D01*
X322511Y281808D01*
X322424Y281714D01*
X322340Y281616D01*
X322260Y281516D01*
X322182Y281414D01*
X322107Y281309D01*
X322036Y281202D01*
X321968Y281093D01*
X321903Y280982D01*
X321841Y280869D01*
X321783Y280755D01*
X321729Y280638D01*
X321678Y280520D01*
X321631Y280401D01*
X321587Y280280D01*
X321547Y280158D01*
X321510Y280035D01*
X321478Y279910D01*
X321449Y279785D01*
X321424Y279659D01*
X321402Y279532D01*
X321385Y279405D01*
X321371Y279277D01*
X321362Y279149D01*
X321356Y279021D01*
X321354Y278892D01*
X325609Y283147D02*
X325755Y283145D01*
X325901Y283139D01*
X326047Y283129D01*
X326193Y283116D01*
X326338Y283098D01*
X326483Y283077D01*
X326627Y283051D01*
X326770Y283022D01*
X326913Y282989D01*
X327054Y282952D01*
X327195Y282912D01*
X327334Y282868D01*
X327472Y282820D01*
X327609Y282768D01*
X327744Y282713D01*
X327878Y282654D01*
X328010Y282591D01*
X328141Y282525D01*
X328270Y282456D01*
X328396Y282383D01*
X328521Y282307D01*
X328644Y282227D01*
X328765Y282144D01*
X328883Y282058D01*
X328999Y281969D01*
X329112Y281877D01*
X329223Y281782D01*
X329332Y281683D01*
X329437Y281582D01*
X329540Y281479D01*
X329641Y281372D01*
X329738Y281263D01*
X329832Y281151D01*
X329924Y281037D01*
X330012Y280920D01*
X330097Y280801D01*
X330179Y280680D01*
X330257Y280557D01*
X330333Y280431D01*
X330405Y280304D01*
X330473Y280175D01*
X330538Y280044D01*
X330599Y279911D01*
X330657Y279777D01*
X330712Y279641D01*
X330762Y279504D01*
X330809Y279365D01*
X322772Y275583D02*
X322678Y275675D01*
X322586Y275770D01*
X322497Y275868D01*
X322411Y275969D01*
X322328Y276071D01*
X322248Y276177D01*
X322171Y276284D01*
X322097Y276394D01*
X322027Y276505D01*
X321959Y276619D01*
X321895Y276735D01*
X321835Y276852D01*
X321777Y276971D01*
X321724Y277092D01*
X321673Y277214D01*
X321626Y277338D01*
X321583Y277463D01*
X321544Y277589D01*
X321508Y277716D01*
X321476Y277844D01*
X321447Y277973D01*
X321423Y278103D01*
X321402Y278233D01*
X321385Y278365D01*
X321371Y278496D01*
X321362Y278628D01*
X321356Y278760D01*
X321354Y278892D01*
X322772Y275583D02*
X330809Y266129D01*
X321354Y266129D01*
X314242Y274638D02*
X314238Y274973D01*
X314226Y275307D01*
X314206Y275642D01*
X314178Y275975D01*
X314142Y276308D01*
X314098Y276640D01*
X314047Y276971D01*
X313987Y277300D01*
X313920Y277628D01*
X313844Y277954D01*
X313761Y278279D01*
X313670Y278601D01*
X313572Y278921D01*
X313466Y279238D01*
X313352Y279553D01*
X313231Y279865D01*
X313103Y280175D01*
X312967Y280481D01*
X312824Y280783D01*
X312824Y280782D02*
X312784Y280893D01*
X312740Y281002D01*
X312693Y281109D01*
X312643Y281215D01*
X312588Y281319D01*
X312531Y281421D01*
X312469Y281521D01*
X312405Y281619D01*
X312337Y281715D01*
X312266Y281808D01*
X312192Y281899D01*
X312115Y281988D01*
X312036Y282073D01*
X311953Y282157D01*
X311867Y282237D01*
X311779Y282314D01*
X311689Y282389D01*
X311596Y282460D01*
X311500Y282528D01*
X311403Y282593D01*
X311303Y282655D01*
X311201Y282713D01*
X311097Y282768D01*
X310992Y282819D01*
X310885Y282867D01*
X310776Y282911D01*
X310666Y282951D01*
X310555Y282988D01*
X310442Y283021D01*
X310328Y283050D01*
X310214Y283075D01*
X310099Y283097D01*
X309983Y283115D01*
X309866Y283128D01*
X309749Y283138D01*
X309632Y283144D01*
X309515Y283146D01*
X309398Y283144D01*
X309281Y283138D01*
X309164Y283128D01*
X309047Y283115D01*
X308931Y283097D01*
X308816Y283075D01*
X308702Y283050D01*
X308588Y283021D01*
X308475Y282988D01*
X308364Y282951D01*
X308254Y282911D01*
X308145Y282867D01*
X308038Y282819D01*
X307933Y282768D01*
X307829Y282713D01*
X307727Y282655D01*
X307627Y282593D01*
X307530Y282528D01*
X307434Y282460D01*
X307341Y282389D01*
X307251Y282314D01*
X307163Y282237D01*
X307077Y282157D01*
X306994Y282073D01*
X306914Y281988D01*
X306838Y281899D01*
X306764Y281808D01*
X306693Y281715D01*
X306625Y281619D01*
X306561Y281521D01*
X306499Y281421D01*
X306442Y281319D01*
X306387Y281215D01*
X306337Y281109D01*
X306290Y281002D01*
X306246Y280893D01*
X306206Y280782D01*
X306206Y280783D02*
X306063Y280481D01*
X305927Y280175D01*
X305799Y279866D01*
X305678Y279553D01*
X305564Y279239D01*
X305458Y278921D01*
X305360Y278601D01*
X305269Y278279D01*
X305186Y277954D01*
X305110Y277628D01*
X305043Y277300D01*
X304983Y276971D01*
X304932Y276640D01*
X304888Y276308D01*
X304852Y275975D01*
X304824Y275642D01*
X304804Y275307D01*
X304792Y274973D01*
X304788Y274638D01*
X314242Y274638D02*
X314238Y274303D01*
X314226Y273969D01*
X314206Y273634D01*
X314178Y273301D01*
X314142Y272968D01*
X314098Y272636D01*
X314047Y272305D01*
X313987Y271976D01*
X313920Y271648D01*
X313844Y271322D01*
X313761Y270997D01*
X313670Y270675D01*
X313572Y270355D01*
X313466Y270038D01*
X313352Y269723D01*
X313231Y269411D01*
X313103Y269101D01*
X312967Y268795D01*
X312824Y268493D01*
X312824Y268492D02*
X312784Y268382D01*
X312740Y268273D01*
X312693Y268166D01*
X312643Y268060D01*
X312588Y267956D01*
X312531Y267854D01*
X312469Y267754D01*
X312405Y267656D01*
X312337Y267560D01*
X312266Y267467D01*
X312192Y267376D01*
X312115Y267287D01*
X312036Y267202D01*
X311953Y267118D01*
X311867Y267038D01*
X311779Y266961D01*
X311689Y266886D01*
X311596Y266815D01*
X311500Y266747D01*
X311403Y266682D01*
X311303Y266620D01*
X311201Y266562D01*
X311097Y266507D01*
X310992Y266456D01*
X310885Y266408D01*
X310776Y266364D01*
X310666Y266324D01*
X310555Y266287D01*
X310442Y266254D01*
X310328Y266225D01*
X310214Y266200D01*
X310099Y266178D01*
X309983Y266160D01*
X309866Y266147D01*
X309749Y266137D01*
X309632Y266131D01*
X309515Y266129D01*
X306206Y268493D02*
X306063Y268795D01*
X305927Y269101D01*
X305799Y269410D01*
X305678Y269723D01*
X305564Y270038D01*
X305458Y270355D01*
X305360Y270675D01*
X305269Y270997D01*
X305186Y271322D01*
X305110Y271648D01*
X305043Y271976D01*
X304983Y272305D01*
X304932Y272636D01*
X304888Y272968D01*
X304852Y273301D01*
X304824Y273634D01*
X304804Y273969D01*
X304792Y274303D01*
X304788Y274638D01*
X306206Y268493D02*
X306246Y268382D01*
X306290Y268273D01*
X306337Y268166D01*
X306387Y268060D01*
X306442Y267956D01*
X306499Y267854D01*
X306561Y267754D01*
X306625Y267656D01*
X306693Y267560D01*
X306764Y267467D01*
X306838Y267376D01*
X306915Y267287D01*
X306994Y267202D01*
X307077Y267118D01*
X307163Y267038D01*
X307251Y266961D01*
X307341Y266886D01*
X307434Y266815D01*
X307530Y266747D01*
X307627Y266682D01*
X307727Y266620D01*
X307829Y266562D01*
X307933Y266507D01*
X308038Y266456D01*
X308145Y266408D01*
X308254Y266364D01*
X308364Y266324D01*
X308475Y266287D01*
X308588Y266254D01*
X308702Y266225D01*
X308816Y266200D01*
X308931Y266178D01*
X309047Y266160D01*
X309164Y266147D01*
X309281Y266137D01*
X309398Y266131D01*
X309515Y266129D01*
X313297Y269910D02*
X305733Y279365D01*
X297676Y279365D02*
X292949Y283147D01*
X292949Y266129D01*
X297676Y266129D02*
X288222Y266129D01*
X277328Y273692D02*
X271655Y273692D01*
X277328Y273692D02*
X277449Y273694D01*
X277570Y273700D01*
X277691Y273709D01*
X277812Y273723D01*
X277932Y273740D01*
X278051Y273762D01*
X278170Y273787D01*
X278287Y273816D01*
X278404Y273848D01*
X278520Y273885D01*
X278634Y273925D01*
X278747Y273968D01*
X278859Y274016D01*
X278969Y274067D01*
X279077Y274121D01*
X279184Y274179D01*
X279289Y274240D01*
X279391Y274304D01*
X279492Y274372D01*
X279590Y274443D01*
X279686Y274517D01*
X279780Y274594D01*
X279871Y274674D01*
X279959Y274757D01*
X280045Y274843D01*
X280128Y274931D01*
X280208Y275022D01*
X280285Y275116D01*
X280359Y275212D01*
X280430Y275310D01*
X280498Y275411D01*
X280562Y275513D01*
X280623Y275618D01*
X280681Y275725D01*
X280735Y275833D01*
X280786Y275943D01*
X280834Y276055D01*
X280877Y276168D01*
X280917Y276282D01*
X280954Y276398D01*
X280986Y276515D01*
X281015Y276632D01*
X281040Y276751D01*
X281062Y276870D01*
X281079Y276990D01*
X281093Y277111D01*
X281102Y277232D01*
X281108Y277353D01*
X281110Y277474D01*
X281110Y278419D01*
X281109Y278419D02*
X281107Y278555D01*
X281101Y278691D01*
X281091Y278827D01*
X281078Y278963D01*
X281060Y279098D01*
X281038Y279232D01*
X281013Y279366D01*
X280984Y279499D01*
X280951Y279631D01*
X280914Y279763D01*
X280873Y279893D01*
X280829Y280021D01*
X280781Y280149D01*
X280729Y280275D01*
X280674Y280400D01*
X280615Y280522D01*
X280553Y280644D01*
X280487Y280763D01*
X280418Y280880D01*
X280345Y280995D01*
X280269Y281109D01*
X280190Y281219D01*
X280108Y281328D01*
X280022Y281434D01*
X279934Y281538D01*
X279843Y281639D01*
X279748Y281737D01*
X279651Y281833D01*
X279552Y281926D01*
X279449Y282016D01*
X279344Y282103D01*
X279237Y282186D01*
X279127Y282267D01*
X279015Y282345D01*
X278901Y282419D01*
X278785Y282490D01*
X278666Y282557D01*
X278546Y282621D01*
X278424Y282682D01*
X278300Y282739D01*
X278175Y282793D01*
X278048Y282843D01*
X277920Y282889D01*
X277791Y282931D01*
X277660Y282970D01*
X277529Y283005D01*
X277396Y283036D01*
X277262Y283063D01*
X277128Y283087D01*
X276993Y283106D01*
X276858Y283122D01*
X276722Y283134D01*
X276586Y283142D01*
X276450Y283146D01*
X276314Y283146D01*
X276178Y283142D01*
X276042Y283134D01*
X275906Y283122D01*
X275771Y283106D01*
X275636Y283087D01*
X275502Y283063D01*
X275368Y283036D01*
X275235Y283005D01*
X275104Y282970D01*
X274973Y282931D01*
X274844Y282889D01*
X274716Y282843D01*
X274589Y282793D01*
X274464Y282739D01*
X274340Y282682D01*
X274218Y282621D01*
X274098Y282557D01*
X273979Y282490D01*
X273863Y282419D01*
X273749Y282345D01*
X273637Y282267D01*
X273527Y282186D01*
X273420Y282103D01*
X273315Y282016D01*
X273212Y281926D01*
X273113Y281833D01*
X273016Y281737D01*
X272921Y281639D01*
X272830Y281538D01*
X272742Y281434D01*
X272656Y281328D01*
X272574Y281219D01*
X272495Y281109D01*
X272419Y280995D01*
X272346Y280880D01*
X272277Y280763D01*
X272211Y280644D01*
X272149Y280522D01*
X272090Y280400D01*
X272035Y280275D01*
X271983Y280149D01*
X271935Y280021D01*
X271891Y279893D01*
X271850Y279763D01*
X271813Y279631D01*
X271780Y279499D01*
X271751Y279366D01*
X271726Y279232D01*
X271704Y279098D01*
X271686Y278963D01*
X271673Y278827D01*
X271663Y278691D01*
X271657Y278555D01*
X271655Y278419D01*
X271655Y273692D01*
X271657Y273509D01*
X271664Y273327D01*
X271675Y273144D01*
X271690Y272962D01*
X271710Y272780D01*
X271734Y272599D01*
X271763Y272419D01*
X271796Y272239D01*
X271833Y272060D01*
X271875Y271882D01*
X271921Y271705D01*
X271971Y271529D01*
X272025Y271355D01*
X272084Y271181D01*
X272147Y271010D01*
X272213Y270840D01*
X272284Y270671D01*
X272359Y270505D01*
X272438Y270340D01*
X272521Y270177D01*
X272608Y270016D01*
X272699Y269857D01*
X272794Y269701D01*
X272892Y269547D01*
X272994Y269395D01*
X273100Y269246D01*
X273209Y269099D01*
X273322Y268956D01*
X273438Y268814D01*
X273557Y268676D01*
X273680Y268541D01*
X273806Y268408D01*
X273935Y268279D01*
X274068Y268153D01*
X274203Y268030D01*
X274341Y267911D01*
X274483Y267795D01*
X274626Y267682D01*
X274773Y267573D01*
X274922Y267467D01*
X275074Y267365D01*
X275228Y267267D01*
X275384Y267172D01*
X275543Y267081D01*
X275704Y266994D01*
X275867Y266911D01*
X276032Y266832D01*
X276198Y266757D01*
X276367Y266686D01*
X276537Y266620D01*
X276708Y266557D01*
X276882Y266498D01*
X277056Y266444D01*
X277232Y266394D01*
X277409Y266348D01*
X277587Y266306D01*
X277766Y266269D01*
X277946Y266236D01*
X278126Y266207D01*
X278307Y266183D01*
X278489Y266163D01*
X278671Y266148D01*
X278854Y266137D01*
X279036Y266130D01*
X279219Y266128D01*
X254913Y266129D02*
X254913Y283147D01*
X245459Y283147D02*
X254913Y272747D01*
X251131Y276528D02*
X245459Y266129D01*
X238650Y266129D02*
X238650Y277474D01*
X232977Y277474D01*
X232977Y275583D01*
X228256Y277474D02*
X220693Y277474D01*
X228256Y266129D01*
X220693Y266129D01*
X215003Y260456D02*
X213113Y260456D01*
X207440Y277474D01*
X215003Y277474D02*
X211222Y266129D01*
X199780Y272747D02*
X195053Y270856D01*
X199780Y272747D02*
X199871Y272786D01*
X199960Y272828D01*
X200048Y272873D01*
X200133Y272923D01*
X200217Y272975D01*
X200298Y273031D01*
X200377Y273090D01*
X200453Y273152D01*
X200527Y273217D01*
X200598Y273285D01*
X200667Y273356D01*
X200733Y273430D01*
X200795Y273506D01*
X200855Y273585D01*
X200911Y273666D01*
X200964Y273749D01*
X201013Y273834D01*
X201059Y273921D01*
X201102Y274010D01*
X201141Y274101D01*
X201176Y274193D01*
X201208Y274286D01*
X201235Y274381D01*
X201259Y274476D01*
X201279Y274573D01*
X201295Y274670D01*
X201308Y274768D01*
X201316Y274866D01*
X201320Y274965D01*
X201321Y275063D01*
X201317Y275162D01*
X201310Y275260D01*
X201298Y275358D01*
X201283Y275455D01*
X201263Y275552D01*
X201240Y275648D01*
X201213Y275743D01*
X201182Y275836D01*
X201148Y275928D01*
X201109Y276019D01*
X201067Y276109D01*
X201022Y276196D01*
X200973Y276282D01*
X200921Y276365D01*
X200865Y276447D01*
X200806Y276526D01*
X200744Y276602D01*
X200679Y276676D01*
X200611Y276748D01*
X200541Y276816D01*
X200467Y276882D01*
X200391Y276945D01*
X200313Y277005D01*
X200232Y277061D01*
X200149Y277114D01*
X200064Y277164D01*
X199976Y277210D01*
X199888Y277253D01*
X199797Y277292D01*
X199705Y277327D01*
X199612Y277359D01*
X199517Y277387D01*
X199422Y277411D01*
X199325Y277431D01*
X199228Y277448D01*
X199130Y277460D01*
X199032Y277469D01*
X198934Y277473D01*
X198835Y277474D01*
X198576Y277467D01*
X198319Y277454D01*
X198061Y277435D01*
X197804Y277410D01*
X197548Y277378D01*
X197293Y277340D01*
X197038Y277296D01*
X196785Y277247D01*
X196533Y277191D01*
X196282Y277129D01*
X196033Y277060D01*
X195786Y276986D01*
X195541Y276907D01*
X195297Y276821D01*
X195056Y276729D01*
X194817Y276632D01*
X194580Y276528D01*
X195053Y270856D02*
X194962Y270817D01*
X194873Y270775D01*
X194785Y270730D01*
X194700Y270680D01*
X194616Y270628D01*
X194535Y270572D01*
X194456Y270513D01*
X194380Y270451D01*
X194306Y270386D01*
X194235Y270318D01*
X194166Y270247D01*
X194100Y270173D01*
X194038Y270097D01*
X193978Y270018D01*
X193922Y269937D01*
X193869Y269854D01*
X193820Y269769D01*
X193774Y269682D01*
X193731Y269593D01*
X193692Y269502D01*
X193657Y269410D01*
X193625Y269317D01*
X193598Y269222D01*
X193574Y269127D01*
X193554Y269030D01*
X193538Y268933D01*
X193525Y268835D01*
X193517Y268737D01*
X193513Y268638D01*
X193512Y268540D01*
X193516Y268441D01*
X193523Y268343D01*
X193535Y268245D01*
X193550Y268148D01*
X193570Y268051D01*
X193593Y267955D01*
X193620Y267860D01*
X193651Y267767D01*
X193685Y267675D01*
X193724Y267584D01*
X193766Y267494D01*
X193811Y267407D01*
X193860Y267321D01*
X193912Y267238D01*
X193968Y267156D01*
X194027Y267077D01*
X194089Y267001D01*
X194154Y266927D01*
X194222Y266855D01*
X194292Y266787D01*
X194366Y266721D01*
X194442Y266658D01*
X194520Y266598D01*
X194601Y266542D01*
X194684Y266489D01*
X194769Y266439D01*
X194856Y266393D01*
X194945Y266350D01*
X195036Y266311D01*
X195128Y266276D01*
X195221Y266244D01*
X195316Y266216D01*
X195411Y266192D01*
X195508Y266172D01*
X195605Y266155D01*
X195703Y266143D01*
X195801Y266134D01*
X195899Y266130D01*
X195998Y266129D01*
X196377Y266139D01*
X196756Y266157D01*
X197134Y266185D01*
X197511Y266222D01*
X197888Y266268D01*
X198263Y266322D01*
X198637Y266386D01*
X199009Y266458D01*
X199380Y266539D01*
X199748Y266629D01*
X200114Y266727D01*
X200478Y266834D01*
X200839Y266950D01*
X201198Y267074D01*
X187393Y277474D02*
X179829Y277474D01*
X187393Y266129D01*
X179829Y266129D01*
X174985Y277474D02*
X169313Y277474D01*
X173095Y283147D02*
X173095Y268965D01*
X173094Y268965D02*
X173092Y268861D01*
X173086Y268758D01*
X173077Y268655D01*
X173064Y268552D01*
X173047Y268450D01*
X173026Y268348D01*
X173002Y268248D01*
X172974Y268148D01*
X172942Y268049D01*
X172907Y267952D01*
X172868Y267856D01*
X172826Y267761D01*
X172780Y267668D01*
X172731Y267577D01*
X172679Y267488D01*
X172623Y267400D01*
X172564Y267315D01*
X172503Y267232D01*
X172438Y267151D01*
X172370Y267072D01*
X172300Y266997D01*
X172226Y266923D01*
X172151Y266853D01*
X172072Y266785D01*
X171991Y266720D01*
X171908Y266659D01*
X171823Y266600D01*
X171735Y266544D01*
X171646Y266492D01*
X171555Y266443D01*
X171462Y266397D01*
X171367Y266355D01*
X171271Y266316D01*
X171174Y266281D01*
X171075Y266249D01*
X170975Y266221D01*
X170875Y266197D01*
X170773Y266176D01*
X170671Y266159D01*
X170568Y266146D01*
X170465Y266137D01*
X170362Y266131D01*
X170258Y266129D01*
X169313Y266129D01*
X163096Y269910D02*
X163096Y273692D01*
X163094Y273813D01*
X163088Y273934D01*
X163079Y274055D01*
X163065Y274176D01*
X163048Y274296D01*
X163026Y274415D01*
X163001Y274534D01*
X162972Y274651D01*
X162940Y274768D01*
X162903Y274884D01*
X162863Y274998D01*
X162820Y275111D01*
X162772Y275223D01*
X162721Y275333D01*
X162667Y275441D01*
X162609Y275548D01*
X162548Y275653D01*
X162484Y275755D01*
X162416Y275856D01*
X162345Y275954D01*
X162271Y276050D01*
X162194Y276144D01*
X162114Y276235D01*
X162031Y276323D01*
X161945Y276409D01*
X161857Y276492D01*
X161766Y276572D01*
X161672Y276649D01*
X161576Y276723D01*
X161478Y276794D01*
X161377Y276862D01*
X161275Y276926D01*
X161170Y276987D01*
X161063Y277045D01*
X160955Y277099D01*
X160845Y277150D01*
X160733Y277198D01*
X160620Y277241D01*
X160506Y277281D01*
X160390Y277318D01*
X160273Y277350D01*
X160156Y277379D01*
X160037Y277404D01*
X159918Y277426D01*
X159798Y277443D01*
X159677Y277457D01*
X159556Y277466D01*
X159435Y277472D01*
X159314Y277474D01*
X159193Y277472D01*
X159072Y277466D01*
X158951Y277457D01*
X158830Y277443D01*
X158710Y277426D01*
X158591Y277404D01*
X158472Y277379D01*
X158355Y277350D01*
X158238Y277318D01*
X158122Y277281D01*
X158008Y277241D01*
X157895Y277198D01*
X157783Y277150D01*
X157673Y277099D01*
X157565Y277045D01*
X157458Y276987D01*
X157353Y276926D01*
X157251Y276862D01*
X157150Y276794D01*
X157052Y276723D01*
X156956Y276649D01*
X156862Y276572D01*
X156771Y276492D01*
X156683Y276409D01*
X156597Y276323D01*
X156514Y276235D01*
X156434Y276144D01*
X156357Y276050D01*
X156283Y275954D01*
X156212Y275856D01*
X156144Y275755D01*
X156080Y275653D01*
X156019Y275548D01*
X155961Y275441D01*
X155907Y275333D01*
X155856Y275223D01*
X155808Y275111D01*
X155765Y274998D01*
X155725Y274884D01*
X155688Y274768D01*
X155656Y274651D01*
X155627Y274534D01*
X155602Y274415D01*
X155580Y274296D01*
X155563Y274176D01*
X155549Y274055D01*
X155540Y273934D01*
X155534Y273813D01*
X155532Y273692D01*
X155532Y269910D01*
X155534Y269789D01*
X155540Y269668D01*
X155549Y269547D01*
X155563Y269426D01*
X155580Y269306D01*
X155602Y269187D01*
X155627Y269068D01*
X155656Y268951D01*
X155688Y268834D01*
X155725Y268718D01*
X155765Y268604D01*
X155808Y268491D01*
X155856Y268379D01*
X155907Y268269D01*
X155961Y268161D01*
X156019Y268054D01*
X156080Y267949D01*
X156144Y267847D01*
X156212Y267746D01*
X156283Y267648D01*
X156357Y267552D01*
X156434Y267458D01*
X156514Y267367D01*
X156597Y267279D01*
X156683Y267193D01*
X156771Y267110D01*
X156862Y267030D01*
X156956Y266953D01*
X157052Y266879D01*
X157150Y266808D01*
X157251Y266740D01*
X157353Y266676D01*
X157458Y266615D01*
X157565Y266557D01*
X157673Y266503D01*
X157783Y266452D01*
X157895Y266404D01*
X158008Y266361D01*
X158122Y266321D01*
X158238Y266284D01*
X158355Y266252D01*
X158472Y266223D01*
X158591Y266198D01*
X158710Y266176D01*
X158830Y266159D01*
X158951Y266145D01*
X159072Y266136D01*
X159193Y266130D01*
X159314Y266128D01*
X159435Y266130D01*
X159556Y266136D01*
X159677Y266145D01*
X159798Y266159D01*
X159918Y266176D01*
X160037Y266198D01*
X160156Y266223D01*
X160273Y266252D01*
X160390Y266284D01*
X160506Y266321D01*
X160620Y266361D01*
X160733Y266404D01*
X160845Y266452D01*
X160955Y266503D01*
X161063Y266557D01*
X161170Y266615D01*
X161275Y266676D01*
X161377Y266740D01*
X161478Y266808D01*
X161576Y266879D01*
X161672Y266953D01*
X161766Y267030D01*
X161857Y267110D01*
X161945Y267193D01*
X162031Y267279D01*
X162114Y267367D01*
X162194Y267458D01*
X162271Y267552D01*
X162345Y267648D01*
X162416Y267746D01*
X162484Y267847D01*
X162548Y267949D01*
X162609Y268054D01*
X162667Y268161D01*
X162721Y268269D01*
X162772Y268379D01*
X162820Y268491D01*
X162863Y268604D01*
X162903Y268718D01*
X162940Y268834D01*
X162972Y268951D01*
X163001Y269068D01*
X163026Y269187D01*
X163048Y269306D01*
X163065Y269426D01*
X163079Y269547D01*
X163088Y269668D01*
X163094Y269789D01*
X163096Y269910D01*
X147803Y266129D02*
X147803Y280310D01*
X147801Y280414D01*
X147795Y280517D01*
X147786Y280620D01*
X147773Y280723D01*
X147756Y280825D01*
X147735Y280927D01*
X147711Y281027D01*
X147683Y281127D01*
X147651Y281226D01*
X147616Y281323D01*
X147577Y281419D01*
X147535Y281514D01*
X147489Y281607D01*
X147440Y281698D01*
X147388Y281787D01*
X147332Y281875D01*
X147273Y281960D01*
X147212Y282043D01*
X147147Y282124D01*
X147079Y282203D01*
X147009Y282278D01*
X146935Y282352D01*
X146860Y282422D01*
X146781Y282490D01*
X146700Y282555D01*
X146617Y282616D01*
X146532Y282675D01*
X146444Y282731D01*
X146355Y282783D01*
X146264Y282832D01*
X146171Y282878D01*
X146076Y282920D01*
X145980Y282959D01*
X145883Y282994D01*
X145784Y283026D01*
X145684Y283054D01*
X145584Y283078D01*
X145482Y283099D01*
X145380Y283116D01*
X145277Y283129D01*
X145174Y283138D01*
X145071Y283144D01*
X144967Y283146D01*
X144967Y283147D02*
X144021Y283147D01*
X144021Y277474D02*
X149694Y277474D01*
X130909Y283147D02*
X121454Y283147D01*
X130909Y266129D01*
X121454Y266129D01*
X107574Y266129D02*
X107574Y283147D01*
X107574Y266129D02*
X112301Y266129D01*
X112405Y266131D01*
X112508Y266137D01*
X112611Y266146D01*
X112714Y266159D01*
X112816Y266176D01*
X112918Y266197D01*
X113018Y266221D01*
X113118Y266249D01*
X113217Y266281D01*
X113314Y266316D01*
X113410Y266355D01*
X113505Y266397D01*
X113598Y266443D01*
X113689Y266492D01*
X113778Y266544D01*
X113866Y266600D01*
X113951Y266659D01*
X114034Y266720D01*
X114115Y266785D01*
X114194Y266853D01*
X114269Y266923D01*
X114343Y266997D01*
X114413Y267072D01*
X114481Y267151D01*
X114546Y267232D01*
X114607Y267315D01*
X114666Y267400D01*
X114722Y267488D01*
X114774Y267577D01*
X114823Y267668D01*
X114869Y267761D01*
X114911Y267856D01*
X114950Y267952D01*
X114985Y268049D01*
X115017Y268148D01*
X115045Y268248D01*
X115069Y268348D01*
X115090Y268450D01*
X115107Y268552D01*
X115120Y268655D01*
X115129Y268758D01*
X115135Y268861D01*
X115137Y268965D01*
X115138Y268965D02*
X115138Y274638D01*
X115137Y274638D02*
X115135Y274742D01*
X115129Y274845D01*
X115120Y274948D01*
X115107Y275051D01*
X115090Y275153D01*
X115069Y275255D01*
X115045Y275355D01*
X115017Y275455D01*
X114985Y275554D01*
X114950Y275651D01*
X114911Y275747D01*
X114869Y275842D01*
X114823Y275935D01*
X114774Y276026D01*
X114722Y276115D01*
X114666Y276203D01*
X114607Y276288D01*
X114546Y276371D01*
X114481Y276452D01*
X114413Y276531D01*
X114343Y276606D01*
X114269Y276680D01*
X114194Y276750D01*
X114115Y276818D01*
X114034Y276883D01*
X113951Y276944D01*
X113866Y277003D01*
X113778Y277059D01*
X113689Y277111D01*
X113598Y277160D01*
X113505Y277206D01*
X113410Y277248D01*
X113314Y277287D01*
X113217Y277322D01*
X113118Y277354D01*
X113018Y277382D01*
X112918Y277406D01*
X112816Y277427D01*
X112714Y277444D01*
X112611Y277457D01*
X112508Y277466D01*
X112405Y277472D01*
X112301Y277474D01*
X107574Y277474D01*
X99591Y277474D02*
X99591Y268965D01*
X99589Y268861D01*
X99583Y268758D01*
X99574Y268655D01*
X99561Y268552D01*
X99544Y268450D01*
X99523Y268348D01*
X99499Y268248D01*
X99471Y268148D01*
X99439Y268049D01*
X99404Y267952D01*
X99365Y267856D01*
X99323Y267761D01*
X99277Y267668D01*
X99228Y267577D01*
X99176Y267488D01*
X99120Y267400D01*
X99061Y267315D01*
X99000Y267232D01*
X98935Y267151D01*
X98867Y267072D01*
X98797Y266997D01*
X98723Y266923D01*
X98648Y266853D01*
X98569Y266785D01*
X98488Y266720D01*
X98405Y266659D01*
X98320Y266600D01*
X98232Y266544D01*
X98143Y266492D01*
X98052Y266443D01*
X97959Y266397D01*
X97864Y266355D01*
X97768Y266316D01*
X97671Y266281D01*
X97572Y266249D01*
X97472Y266221D01*
X97372Y266197D01*
X97270Y266176D01*
X97168Y266159D01*
X97065Y266146D01*
X96962Y266137D01*
X96859Y266131D01*
X96755Y266129D01*
X92028Y266129D01*
X92028Y277474D01*
X84454Y283147D02*
X84454Y268965D01*
X84452Y268861D01*
X84446Y268758D01*
X84437Y268655D01*
X84424Y268552D01*
X84407Y268450D01*
X84386Y268348D01*
X84362Y268248D01*
X84334Y268148D01*
X84302Y268049D01*
X84267Y267952D01*
X84228Y267856D01*
X84186Y267761D01*
X84140Y267668D01*
X84091Y267577D01*
X84039Y267488D01*
X83983Y267400D01*
X83924Y267315D01*
X83863Y267232D01*
X83798Y267151D01*
X83730Y267072D01*
X83660Y266997D01*
X83586Y266923D01*
X83511Y266853D01*
X83432Y266785D01*
X83351Y266720D01*
X83268Y266659D01*
X83183Y266600D01*
X83095Y266544D01*
X83006Y266492D01*
X82915Y266443D01*
X82822Y266397D01*
X82727Y266355D01*
X82631Y266316D01*
X82534Y266281D01*
X82435Y266249D01*
X82335Y266221D01*
X82235Y266197D01*
X82133Y266176D01*
X82031Y266159D01*
X81928Y266146D01*
X81825Y266137D01*
X81722Y266131D01*
X81618Y266129D01*
X74428Y272747D02*
X69701Y270856D01*
X74428Y272747D02*
X74519Y272786D01*
X74608Y272828D01*
X74696Y272873D01*
X74781Y272923D01*
X74865Y272975D01*
X74946Y273031D01*
X75025Y273090D01*
X75101Y273152D01*
X75175Y273217D01*
X75246Y273285D01*
X75315Y273356D01*
X75381Y273430D01*
X75443Y273506D01*
X75503Y273585D01*
X75559Y273666D01*
X75612Y273749D01*
X75661Y273834D01*
X75707Y273921D01*
X75750Y274010D01*
X75789Y274101D01*
X75824Y274193D01*
X75856Y274286D01*
X75883Y274381D01*
X75907Y274476D01*
X75927Y274573D01*
X75943Y274670D01*
X75956Y274768D01*
X75964Y274866D01*
X75968Y274965D01*
X75969Y275063D01*
X75965Y275162D01*
X75958Y275260D01*
X75946Y275358D01*
X75931Y275455D01*
X75911Y275552D01*
X75888Y275648D01*
X75861Y275743D01*
X75830Y275836D01*
X75796Y275928D01*
X75757Y276019D01*
X75715Y276109D01*
X75670Y276196D01*
X75621Y276282D01*
X75569Y276365D01*
X75513Y276447D01*
X75454Y276526D01*
X75392Y276602D01*
X75327Y276676D01*
X75259Y276748D01*
X75189Y276816D01*
X75115Y276882D01*
X75039Y276945D01*
X74961Y277005D01*
X74880Y277061D01*
X74797Y277114D01*
X74712Y277164D01*
X74624Y277210D01*
X74536Y277253D01*
X74445Y277292D01*
X74353Y277327D01*
X74260Y277359D01*
X74165Y277387D01*
X74070Y277411D01*
X73973Y277431D01*
X73876Y277448D01*
X73778Y277460D01*
X73680Y277469D01*
X73582Y277473D01*
X73483Y277474D01*
X73224Y277467D01*
X72967Y277454D01*
X72709Y277435D01*
X72452Y277410D01*
X72196Y277378D01*
X71941Y277340D01*
X71686Y277296D01*
X71433Y277247D01*
X71181Y277191D01*
X70930Y277129D01*
X70681Y277060D01*
X70434Y276986D01*
X70189Y276907D01*
X69945Y276821D01*
X69704Y276729D01*
X69465Y276632D01*
X69228Y276528D01*
X69702Y270856D02*
X69611Y270817D01*
X69522Y270775D01*
X69434Y270730D01*
X69349Y270680D01*
X69265Y270628D01*
X69184Y270572D01*
X69105Y270513D01*
X69029Y270451D01*
X68955Y270386D01*
X68884Y270318D01*
X68815Y270247D01*
X68749Y270173D01*
X68687Y270097D01*
X68627Y270018D01*
X68571Y269937D01*
X68518Y269854D01*
X68469Y269769D01*
X68423Y269682D01*
X68380Y269593D01*
X68341Y269502D01*
X68306Y269410D01*
X68274Y269317D01*
X68247Y269222D01*
X68223Y269127D01*
X68203Y269030D01*
X68187Y268933D01*
X68174Y268835D01*
X68166Y268737D01*
X68162Y268638D01*
X68161Y268540D01*
X68165Y268441D01*
X68172Y268343D01*
X68184Y268245D01*
X68199Y268148D01*
X68219Y268051D01*
X68242Y267955D01*
X68269Y267860D01*
X68300Y267767D01*
X68334Y267675D01*
X68373Y267584D01*
X68415Y267494D01*
X68460Y267407D01*
X68509Y267321D01*
X68561Y267238D01*
X68617Y267156D01*
X68676Y267077D01*
X68738Y267001D01*
X68803Y266927D01*
X68871Y266855D01*
X68941Y266787D01*
X69015Y266721D01*
X69091Y266658D01*
X69169Y266598D01*
X69250Y266542D01*
X69333Y266489D01*
X69418Y266439D01*
X69505Y266393D01*
X69594Y266350D01*
X69685Y266311D01*
X69777Y266276D01*
X69870Y266244D01*
X69965Y266216D01*
X70060Y266192D01*
X70157Y266172D01*
X70254Y266155D01*
X70352Y266143D01*
X70450Y266134D01*
X70548Y266130D01*
X70647Y266129D01*
X71026Y266139D01*
X71405Y266157D01*
X71783Y266185D01*
X72160Y266222D01*
X72537Y266268D01*
X72912Y266322D01*
X73286Y266386D01*
X73658Y266458D01*
X74029Y266539D01*
X74397Y266629D01*
X74763Y266727D01*
X75127Y266834D01*
X75488Y266950D01*
X75847Y267074D01*
X60743Y266129D02*
X60743Y283147D01*
X53179Y277474D02*
X60743Y271801D01*
X57434Y274165D02*
X53179Y266129D01*
X47215Y266129D02*
X47215Y277474D01*
X47688Y282201D02*
X47688Y283147D01*
X46742Y283147D01*
X46742Y282201D01*
X47688Y282201D01*
M02*
